<svg fill="none" height="36" width="99" xmlns="http://www.w3.org/2000/svg"><path d="M46.658 8.825v7.739h-.554V9.34h-4.011l-.104 2.838a14.908 14.908 0 01-.27 2.58 3.082 3.082 0 01-.607 1.43 1.29 1.29 0 01-1.045.465c-.186 0-.372-.022-.554-.064l.064-.53c.124.019.25.019.374 0a.967.967 0 00.813-.399c.268-.382.437-.826.49-1.29.124-.75.197-1.51.22-2.27l.103-3.366zm3.496 0h.554v6.797l5.289-6.797h.49v7.739h-.568V9.792l-5.275 6.785h-.49zm14.846 0v7.739h-.568v-3.315a6.282 6.282 0 01-2.58.593 3.031 3.031 0 01-2.05-.645 2.219 2.219 0 01-.735-1.78v-2.58h.567v2.58a1.806 1.806 0 00.593 1.445 2.464 2.464 0 001.677.516 6.242 6.242 0 002.58-.593v-3.87zm9.84 0v7.739h-.554V12.9h-5.159v3.689h-.568V8.85h.568v3.535h5.16v-3.56zm8.63 3.444a2.233 2.233 0 01.722 1.806 2.284 2.284 0 01-.76 1.857c-.628.466-1.4.695-2.18.645h-2.967v-7.74h.554v2.774h2.58a3.122 3.122 0 012.05.658zm-.452 3.315a1.844 1.844 0 00.594-1.497c0-1.29-.787-1.947-2.36-1.947h-2.413v3.96h2.451a2.58 2.58 0 001.728-.516zm2.58-6.759h.568v7.739h-.568zm4.063 0h.568v6.797l5.25-6.797h.49v7.739h-.49V9.792l-5.276 6.785H89.7zm1.948-.942a1.212 1.212 0 01-.49-.993h.49a.876.876 0 00.348.735c.27.181.59.272.916.258.32.014.637-.077.903-.258a.929.929 0 00.36-.735h.452a1.2 1.2 0 01-.477.993 2.308 2.308 0 01-2.476 0zm-48.382 18.29H41.37v3.676h-.567V22.11h.567v3.56h1.87l2.786-3.56h.62l-2.967 3.766 3.173 3.973h-.67zm10.525 1.497h-4.488l-.98 2.179h-.62l3.573-7.739h.555l3.573 7.739h-.606zm-.206-.478l-2.038-4.463-2.025 4.463zm4.114-5.082h5.573v.49h-5.005v2.8h2.58a3.38 3.38 0 012.076.54 1.986 1.986 0 01.71 1.639 2.012 2.012 0 01-.761 1.69 3.508 3.508 0 01-2.18.58h-2.992zm2.993 7.262c.62.043 1.239-.11 1.767-.439a1.6 1.6 0 00.593-1.29c0-1.148-.786-1.728-2.36-1.728h-2.425v3.508zm5.714-7.262h.554v6.797l5.34-6.797h.49v7.739h-.619v-6.784l-5.275 6.784h-.49zm16.123 0v7.739h-.555v-3.676h-5.16v3.676h-.644V22.11h.567v3.56h5.16v-3.56zm8.835 7.236v.503h-5.34V22.11h5.16v.503h-4.592v3.057h4.127v.503h-4.128v3.173zm7.442-6.733h-2.799v7.236h-.49v-7.236h-2.863v-.503h6.152zM.032 27.373c.116-.078.206-.155.322-.22.361-.206.735-.412 1.11-.593l2.244-1.096 1.599-.748 1.6-.736 1.56-.683.67-.284a1.29 1.29 0 011.69.67c.258.594.503 1.187.748 1.78l.555 1.29c.18.4.348.8.529 1.187l.658 1.419c.232.49.477.967.71 1.445.018.048.04.095.064.141v.065a.142.142 0 00.129-.052.218.218 0 000-.09c0-.696.064-1.393.09-2.09s0-1.109.09-1.676v-.671a.386.386 0 000-.245l-.464-1.006-.658-1.367c-.142-.31-.31-.62-.452-.929a2.058 2.058 0 01-.128-.4.657.657 0 01.58-.722h4.411a1.02 1.02 0 01.516.09.646.646 0 01.335.748 1.844 1.844 0 01-.103.284l-.967 2-.58 1.289a.864.864 0 00-.09.4c0 .593.064 1.187.09 1.78 0 .864.09 1.728.128 2.58a.464.464 0 000 .128c.006.011.014.02.024.027a.065.065 0 00.069 0 .065.065 0 00.024-.027c.27-.58.554-1.147.825-1.728s.62-1.29.916-2.012l.967-2.219c.18-.412.348-.838.529-1.29a1.29 1.29 0 01.645-.696 1.16 1.16 0 01.993 0c.555.22 1.096.465 1.638.71l1.225.541 1.613.748 1.638.761 1.715.852c.4.19.789.405 1.161.645l.18.128c0 .065 0 .13-.09.181l-.4.542a18.698 18.698 0 01-2.476 2.67c-.409.373-.84.722-1.29 1.045l-.941.67-.684.426c-.27.155-.542.322-.825.464l-.903.439-.323.167-.49.207-.774.296-.593.207c-.22.064-.439.142-.67.193l-.53.13h-.206l-.684.128-.89.168h-.128l-.555.077h-.58a3.119 3.119 0 00-.607.078c-.21.02-.422.02-.632 0h-.4c-.35.01-.699-.011-1.044-.065a7.243 7.243 0 00-.761-.077 3.16 3.16 0 01-.349 0h-.322l-.439-.065h-.051c-.297 0-.593-.09-.89-.154a5.851 5.851 0 01-.606-.142 3.04 3.04 0 00-.49-.13l-.336-.128-.529-.155-.451-.142-.271-.116c-.27-.103-.542-.194-.8-.31a20.58 20.58 0 01-.954-.464 8.887 8.887 0 01-.851-.439 14.303 14.303 0 01-.749-.45l-.632-.414-.786-.554c-.4-.31-.787-.62-1.161-.955a20.225 20.225 0 01-1.29-1.29 15.654 15.654 0 01-1.651-2.012c-.168-.245-.064-.09-.064-.154zM15.729.003a9.66 9.66 0 011.534.103c.473.053.94.152 1.393.296.336.117.671.22.98.362a6.1 6.1 0 011.845 1.29 5.997 5.997 0 011.51 2.58c.178.588.24 1.206.18 1.818-.065.529-.142 1.044-.22 1.573-.077.53-.116.8-.18 1.187.007.086.007.172 0 .258a.193.193 0 00.065.232 1.586 1.586 0 01.567 1.096c.052.295.052.596 0 .89a4.85 4.85 0 01-.206.955 1.432 1.432 0 01-.774.89 2.67 2.67 0 00-.413.245c-.19.179-.305.423-.323.684-.085.385-.21.762-.374 1.122a6.72 6.72 0 01-1.754 2.27c-.468.42-.993.772-1.56 1.045a5.626 5.626 0 01-1.587.464 4.699 4.699 0 01-.954 0 5.828 5.828 0 01-1.755-.361 7.107 7.107 0 01-2.85-2.154 6.052 6.052 0 01-.954-1.625 4.528 4.528 0 01-.245-.813 1.506 1.506 0 00-.168-.22.774.774 0 00-.426-.49l-.206-.116a1.29 1.29 0 01-.748-.8 4.372 4.372 0 01-.336-1.818c.01-.36.131-.707.349-.993.066-.075.14-.144.219-.206a.206.206 0 00.077-.22c0-.451-.142-.89-.219-1.29-.077-.4-.116-1.212-.18-1.805a4.553 4.553 0 010-1.11c.07-.44.182-.871.335-1.29a5.946 5.946 0 011.29-2.05A6.179 6.179 0 0111.408.828a8.124 8.124 0 011.74-.58 11.158 11.158 0 012.58-.245z" fill="#fff"/></svg>