<svg fill="none" height="36" viewBox="0 0 99 36" width="99" xmlns="http://www.w3.org/2000/svg"><g fill="#fff"><path d="m46.6584 8.82498v7.73892h-.5546v-7.22299h-4.0113l-.1032 2.83759c-.0151.8661-.1057 1.7293-.2709 2.5796-.0764.5212-.2851 1.0141-.6062 1.4317-.1267.1525-.2869.2738-.4681.3543s-.3785.1182-.5767.1101c-.1867-.0001-.3728-.0217-.5546-.0645l.0645-.5288c.124.0181.25.0181.3741 0 .1577.0047.3143-.0293.4559-.099.1417-.0697.2641-.173.3566-.3009.2685-.3823.437-.8257.4902-1.2898.1236-.751.1968-1.5093.2192-2.2701l.1032-3.3664z"/><path d="m50.1538 8.82498h.5546v6.79732l5.2883-6.79732h.4901v7.73892h-.5675v-6.77155l-5.2754 6.78445h-.4901z"/><path d="m64.9997 8.82498v7.73892h-.5676v-3.3148c-.8079.3787-1.6873.581-2.5796.5933-.7394.0428-1.469-.1866-2.0508-.6449-.2484-.2224-.4435-.4979-.5708-.8061-.1273-.3081-.1835-.641-.1644-.9739v-2.57962h.5675v2.57962c-.0155.2699.0297.5397.1324.7898.1027.25.2602.4738.4609.6548.4767.3719 1.0735.5555 1.6768.5159.8924-.0111 1.7721-.2134 2.5796-.5933v-3.86943z"/><path d="m74.8409 8.82498v7.73892h-.5547v-3.6631h-5.1592v3.6889h-.5676v-7.73892h.5676v3.53412h5.1592v-3.55992z"/><path d="m83.4699 12.2688c.2488.227.4431.5073.5682.82.1251.3128.1778.6498.1541.9857.023.3471-.0336.6949-.1655 1.0168s-.3356.6094-.5955.8406c-.6274.4662-1.3998.6947-2.1798.6449h-2.9666v-7.73892h.5546v2.77312h2.5796c.74-.031 1.467.2022 2.0509.6578zm-.4515 3.3148c.2056-.1883.3657-.4208.4685-.6799.1028-.2592.1455-.5382.1248-.8163 0-1.2898-.7867-1.9476-2.3603-1.9476h-2.412v3.9598h2.4507c.6194.0416 1.2331-.1416 1.7283-.516zm2.5797-6.75862h.5675v7.73892h-.5675z"/><path d="m89.6611 8.82497h.5676v6.79733l5.2495-6.79733h.4901v7.73893h-.4901v-6.77156l-5.2753 6.78446h-.5031zm1.9477-.94157c-.1547-.11471-.2799-.26463-.3651-.43734-.0853-.17271-.1281-.36324-.1251-.55582h.4902c-.0057.14156.023.28238.0837.41042.0606.12803.1514.23947.2645.32478.2702.18081.5909.27114.9158.25796.3208.01313.6374-.07731.9029-.25796.1124-.08678.2034-.19818.266-.32563s.0951-.26757.0951-.40957h.4514c.0056.19164-.0348.38182-.1178.55462s-.2063.32318-.3594.43854c-.3701.23521-.7996.36013-1.2382.36013s-.8681-.12492-1.2382-.36013z"/><path d="m43.2275 26.173h-1.8574v3.676h-.5675v-7.7389h.5675v3.5599h1.8703l2.786-3.5599h.6191l-2.9666 3.7663 3.173 3.9726h-.6707z"/><path d="m53.7525 27.6692h-4.4886l-.9802 2.1798h-.6191l3.5727-7.7389h.5547l3.5728 7.7389h-.6062zm-.2064-.4772-2.0379-4.4628-2.025 4.4628z"/><path d="m57.6606 22.1101h5.5721v.4901h-5.0045v2.7989h2.5796c.7327-.0498 1.4617.1404 2.0766.5418.2379.1987.4259.4504.5491.7348.1232.2845.1781.5938.1603.9032.0179.322-.042.6436-.1744.9377-.1324.294-.3336.552-.5866.752-.6429.4282-1.4091.6322-2.1798.5804h-2.9924zm2.9924 7.2617c.6205.0435 1.2389-.11 1.7671-.4386.1915-.1548.3447-.3517.4476-.5754s.1528-.4682.1457-.7144c0-1.1479-.7868-1.7283-2.3604-1.7283h-2.4248v3.5083z"/><path d="m66.3668 22.1101h.5546v6.7974l5.3399-6.7974h.4901v7.7389h-.6191v-6.7844l-5.2753 6.7844h-.4902z"/><path d="m82.4897 22.1101v7.7389h-.5547v-3.676h-5.1592v3.676h-.6449v-7.7389h.5675v3.5599h5.1593v-3.5599z"/><path d="m91.3248 29.346v.503h-5.3398v-7.7389h5.1593v.503h-4.5918v3.0569h4.1274v.503h-4.1274v3.173z"/><path d="m98.7672 22.6131h-2.7989v7.2359h-.4902v-7.2359h-2.8634v-.503h6.1525z"/><path d="m.0315317 27.3726c.1160833-.0774.2063713-.1548.3224543-.2193.36115-.2064.735194-.4127 1.109244-.5933l2.24428-1.0964 1.59938-.7481 1.59938-.7352 1.56068-.6836.6707-.2837c.31314-.134.66653-.1386.98305-.0129.3166.1256.5706.3714.7066.6836.258.5933.503 1.1866.7481 1.7799l.5546 1.2898c.1806.3999.3483.7997.5289 1.1867l.6578 1.4188c.2321.4901.4772.9673.7094 1.4446.019.0484.0405.0957.0645.1419v.0645c.0241.0031.0486.0001.0712-.009.0226-.009.0425-.0237.0577-.0426.0063-.0298.0063-.0606 0-.0903 0-.6965.0645-1.393.0903-2.0895s0-1.1093.0903-1.6768c0-.2193 0-.4514 0-.6707.0266-.0795.0266-.1655 0-.2451l-.4643-1.006-.6578-1.3672c-.1419-.3096-.3096-.6192-.4515-.9287-.0565-.1286-.0997-.2625-.1289-.3998-.0182-.1727.0327-.3454.1414-.4807s.2665-.2222.439-.2416h.2966 4.1145c.177-.0154.3548.0157.516.0902.1339.0665.2406.1775.3018.3139.0612.1365.073.29.0335.4342-.0266.0973-.0611.1922-.1032.2838l-.9673 1.9992-.5804 1.2898c-.0618.1241-.0927.2613-.0903.3999 0 .5933.0645 1.1866.0903 1.7799 0 .8642.0902 1.7284.1289 2.5797-.006.0427-.006.0862 0 .1289.0053.0109.0136.0201.0238.0266.0103.0064.0222.0098.0343.0098s.024-.0034.0342-.0098c.0103-.0065.0185-.0157.0238-.0266.2709-.5804.5546-1.1479.8255-1.7283s.6191-1.2898.9158-2.0121l.9673-2.2185c.1806-.4128.3483-.8384.5289-1.2898.1186-.3057.3492-.5548.6449-.6965.1552-.0735.3248-.1116.4966-.1116.1717 0 .3413.0381.4965.1116.5547.2192 1.0964.4643 1.6381.7094l1.2253.5417 1.6123.7481 1.6381.761 1.7154.8513c.4006.1895.7883.4049 1.1609.6449l.1806.1289c0 .0645 0 .129-.0903.1806l-.3999.5417c-.7366.9685-1.5661 1.8627-2.4764 2.67-.4088.3735-.8395.7224-1.2899 1.0447l-.9415.6707-.6836.4257c-.2709.1547-.5417.3224-.8255.4643l-.9029.4385-.3224.1677-.4902.2064-.7739.2966-.5933.2064c-.2192.0645-.4385.1419-.6707.1935l-.5288.129h-.1032s0 0-.1032 0l-.6836.129-.89.1676h-.1289l-.5547.0774h-.5804c-.2041.0059-.4071.0318-.6062.0774-.2102.0197-.4218.0197-.632 0h-.3998c-.3495.0107-.6993-.0109-1.0448-.0645-.2521-.0392-.5061-.065-.761-.0774-.116.0064-.2322.0064-.3482 0h-.3225l-.4385-.0645h-.0516c-.2967 0-.5933-.0903-.89-.1547-.2045-.0365-.4068-.0839-.6062-.1419-.1595-.0566-.3235-.0997-.4901-.129l-.3354-.129-.52883-.1548-.45143-.1418-.27087-.1161c-.27086-.1032-.54172-.1935-.79968-.3096-.25797-.1161-.63201-.2966-.95447-.4643-.29143-.1308-.57561-.2772-.85128-.4386-.25796-.1418-.50303-.2966-.74809-.4514l-.63201-.4127-.78679-.5547c-.39985-.3095-.78679-.6191-1.16084-.9544-.37405-.3354-.85128-.8126-1.28982-1.2898-.39726-.4092-.771862-.8398-1.122142-1.2899-.180574-.2321-.361149-.4772-.5288254-.7223-.1676764-.245-.0644909-.0902-.0644909-.1547z"/><path d="m15.7286.00262054c.5135-.00645937 1.0268.02804516 1.5348.10318546.473.052837.9396.152204 1.393.296658.3354.116084.6707.219269.9803.361149.6895.311827 1.3149.749217 1.8444 1.289817.7127.71877 1.2318 1.6062 1.5091 2.57964.1788.58853.2401 1.20645.1806 1.81864-.0645.52883-.1419 1.04476-.2193 1.57358-.0773.52883-.116.79969-.1805 1.18664.0073.08583.0073.17213 0 .25796-.0171.04029-.0201.08518-.0083.12735.0117.04217.0373.07912.0728.10482.163.13554.2973.30244.3947.49074.0975.1883.1562.3942.1728.6056.0515.2944.0515.5956 0 .89-.0365.3243-.1057.644-.2064.9544-.0584.1948-.1576.375-.291.5284-.1335.1535-.2981.2767-.4829.3616-.1446.0691-.2828.1512-.4127.2451-.1901.1789-.3053.4231-.3225.6836-.0856.3859-.2109.762-.374 1.1221-.4145.8742-1.0129 1.6485-1.7542 2.2701-.4678.4208-.9933.7726-1.5607 1.0448-.503.232-1.0376.3885-1.5864.4643-.3174.0324-.6372.0324-.9545 0-.5998-.0293-1.1915-.1511-1.7542-.3612-1.118-.4635-2.0992-1.2049-2.8505-2.1539-.4011-.4886-.7231-1.037-.95442-1.6252-.10696-.2626-.18901-.5347-.24507-.8126-.04908-.0781-.1052-.1515-.16768-.2193-.03122-.1076-.08545-.2072-.15894-.2918-.07349-.0847-.16449-.1523-.2667-.1983l-.20637-.1161c-.17572-.0702-.33384-.1783-.46312-.3165-.12929-.1382-.22658-.3032-.28497-.4832-.24017-.5753-.35451-1.1954-.33535-1.8186.00915-.3594.13097-.7068.34825-.99318.0667-.07528.14009-.14435.21927-.20637.03344-.02454.05871-.05859.07251-.0977.01381-.03911.0155-.08148.00487-.12157 0-.45144-.14188-.88998-.21926-1.28982-.07739-.39984-.11609-1.21243-.18058-1.80575-.04521-.36836-.04521-.74087 0-1.10924.07061-.43961.1829-.87149.33535-1.28982.28465-.76488.7237-1.46297 1.28982-2.05081.51699-.4902 1.11479-.8873 1.76709-1.173736.5566-.258613 1.1407-.453328 1.7412-.580418.8475-.1816057 1.7132-.2638487 2.5797-.24506546z"/></g></svg>