<svg width="48" height="41" fill="none" xmlns="http://www.w3.org/2000/svg"><path d="M40.929 0H7.025A7.025 7.025 0 000 7.025v19.876a7.025 7.025 0 007.025 7.026H32.3l5.11 6.044a1.637 1.637 0 001.258.577 1.672 1.672 0 001.707-1.65v-4.971h.611A7.025 7.025 0 0048 26.9V7.025A7.026 7.026 0 0040.929 0zM7.025 3.31H40.93a3.715 3.715 0 013.714 3.715v19.876a3.714 3.714 0 01-3.714 3.715h-2.31a1.649 1.649 0 00-1.614 1.684v2.123l-2.7-3.184a1.65 1.65 0 00-1.257-.588H7.025a3.715 3.715 0 01-3.714-3.715V7.026A3.715 3.715 0 017.025 3.31z" fill="#10182E"/><path d="M16.68 20.165a2.931 2.931 0 10.023-5.863 2.931 2.931 0 00-.023 5.863zm7.291 0a2.931 2.931 0 002.088-4.998 2.93 2.93 0 10-2.088 4.998zm7.74 0a2.93 2.93 0 10.116-5.858 2.93 2.93 0 00-.116 5.857z" fill="#10182E"/></svg>