<svg fill="none" height="42" width="36" xmlns="http://www.w3.org/2000/svg"><path d="M0 31.63c.12-.093.244-.179.374-.257.421-.234.842-.467 1.275-.69l2.585-1.251 1.848-.866 1.86-.842 1.8-.772.784-.362a1.45 1.45 0 011.954.783c.292.679.573 1.369.865 2.047l.643 1.474c.2.468.398.924.609 1.38s.49 1.088.748 1.637.55 1.112.83 1.673a.877.877 0 00.07.152s.06.082.082.07.059-.058.082-.093a.365.365 0 000-.117l.106-2.398c0-.643.07-1.287.093-1.93v-.783a.749.749 0 000-.281 33.028 33.028 0 00-.55-1.17c-.187-.386-.49-1.052-.748-1.579-.257-.526-.35-.701-.515-1.052a1.825 1.825 0 01-.152-.468.76.76 0 01.667-.842h5.088c.204-.018.41.018.596.105a.748.748 0 01.386.866 1.555 1.555 0 01-.117.327l-1.17 2.34-.666 1.403a.866.866 0 00-.094.456c0 .69.07 1.368.094 2.058.058.994.105 1.989.152 2.994a.716.716 0 000 .153s.082.07.129 0c.327-.667.655-1.322.959-1.989.304-.666.713-1.555 1.052-2.339s.749-1.708 1.17-2.561c.21-.48.41-.96.608-1.45.139-.358.411-.648.76-.808a1.404 1.404 0 011.17 0c.632.258 1.251.538 1.883.819l1.415.632 1.848.853 1.895.89 1.988.97c.463.222.912.472 1.345.749l.199.152c-.028.07-.063.136-.105.198l-.468.632a20.9 20.9 0 01-2.842 3.088c-.461.421-.95.812-1.462 1.17-.363.257-.714.526-1.088.771-.374.246-.526.34-.795.492-.27.152-.62.374-.948.55l-1.04.502a3.71 3.71 0 01-.375.187c-.187.094-.374.164-.561.246l-.89.339c-.225.09-.455.168-.69.234l-.771.234-.608.152h-.234l-.795.152-1.018.187h-.152l-.655.082-.62.058a4.61 4.61 0 00-.702.082c-.24.03-.484.03-.725 0h-.561a6.002 6.002 0 01-1.17-.07c-.28-.058-.573 0-.865-.082h-.784l-.503-.082h-.094c-.35-.058-.69-.093-1.029-.175a6.802 6.802 0 01-.702-.164 3.177 3.177 0 00-.573-.152l-.386-.117-.608-.187-.55-.222-.315-.129c-.304-.117-.62-.222-.924-.35l-1.1-.527c-.327-.164-.666-.328-.982-.515s-.585-.35-.866-.526l-.736-.48a15.2 15.2 0 01-.901-.631 27.34 27.34 0 01-1.345-1.111c-.433-.386-.97-.936-1.45-1.427a15.55 15.55 0 01-1.287-1.497l-.631-.83C.058 31.77 0 31.7 0 31.63zM18.105.052c.595-.003 1.189.036 1.778.117a8.21 8.21 0 011.602.35c.398.113.788.25 1.17.41.778.36 1.487.855 2.093 1.462a7.018 7.018 0 011.743 3.03c.204.69.275 1.411.21 2.128-.081.608-.163 1.17-.257 1.824-.093.655-.14.913-.21 1.369a2.779 2.779 0 01-.059.304.222.222 0 00.082.257 1.837 1.837 0 01.643 1.275c.053.337.053.68 0 1.018-.04.374-.122.743-.245 1.1a1.626 1.626 0 01-.89 1.028 3.1 3.1 0 00-.467.281 1.17 1.17 0 00-.386.784c-.09.447-.232.882-.421 1.298a7.943 7.943 0 01-2.023 2.632 7.484 7.484 0 01-1.813 1.169 6.48 6.48 0 01-1.813.538 5.85 5.85 0 01-1.111.058 6.713 6.713 0 01-2.024-.42 8.083 8.083 0 01-3.286-2.48 6.47 6.47 0 01-1.1-1.883 5.255 5.255 0 01-.28-.924 2.339 2.339 0 00-.129-.35.97.97 0 00-.491-.562l-.246-.14a1.51 1.51 0 01-.819-.925 5.158 5.158 0 01-.315-2.105c.004-.422.143-.832.397-1.17.076-.083.159-.161.246-.233a.27.27 0 00.105-.258c-.14-.456-.222-.994-.304-1.509-.082-.514-.21-1.286-.28-2.023a4.678 4.678 0 010-1.275 6.795 6.795 0 01.432-1.497 6.69 6.69 0 011.509-2.339 7.145 7.145 0 011.977-1.38 8.679 8.679 0 012.011-.679 12.935 12.935 0 012.971-.28z" fill="#10182e"/></svg>