<svg width="44" height="43" fill="none" xmlns="http://www.w3.org/2000/svg"><path d="M44 24.42s-.168-4.791-1.605-6.887a3.15 3.15 0 00-1.39-.935l-.204-.072a14.043 14.043 0 00-1.689-.659l-.479-.191c-.587-.288-1.078-.611-1.198-.923a.383.383 0 00-.12-.347 6.133 6.133 0 001.426-2.887c.195-.212.317-.48.347-.767.12-.419.264-1.198 0-1.51a4.396 4.396 0 00-.55-3.976A3.965 3.965 0 0036.5 4.008l-.635-.216a12.1 12.1 0 00-1.725-.407h-.144a.659.659 0 01-.251 0 1.689 1.689 0 00-.683.12 4.935 4.935 0 00-2.72 2.72 6.24 6.24 0 000 2.898l-.131.12a2.12 2.12 0 000 1.51c.036.284.157.551.347.766a5.822 5.822 0 001.39 2.899.885.885 0 00-.204.3c-.108.335-.683.694-1.33 1.006a6.759 6.759 0 00-.682-1.51 3.246 3.246 0 00-1.39-.934l-.216-.06a13.302 13.302 0 00-1.677-.67l-.479-.193c-.587-.287-1.078-.61-1.198-.922a.358.358 0 00-.108-.347A6.11 6.11 0 0026.08 8.2c.194-.214.32-.48.36-.767.119-.431.263-1.198 0-1.51a4.36 4.36 0 00-.54-3.976A4.025 4.025 0 0023.815.654l-.623-.216a9.49 9.49 0 00-1.725-.395h-.144a.659.659 0 01-.252 0 1.857 1.857 0 00-.706.156 4.984 4.984 0 00-2.696 2.719 6.301 6.301 0 000 2.91.625.625 0 00-.131.12c-.264.348-.108 1.079 0 1.51.038.28.159.543.347.755a5.918 5.918 0 001.366 2.91.694.694 0 00-.192.288c-.276.85-3.594 1.845-3.594 1.845a3.223 3.223 0 00-1.39.946 6.15 6.15 0 00-.67 1.438c-.587-.3-1.078-.623-1.198-.934a.384.384 0 00-.12-.348 5.99 5.99 0 001.426-2.887c.195-.212.316-.48.347-.767.132-.419.276-1.198 0-1.509a4.36 4.36 0 00-.551-3.99 4.001 4.001 0 00-2.036-1.197l-.611-.276a9.272 9.272 0 00-1.713-.395.288.288 0 00-.144 0 .707.707 0 01-.252 0 1.809 1.809 0 00-.695.12 4.935 4.935 0 00-2.707 2.755 5.882 5.882 0 000 2.9.455.455 0 00-.132.13c-.263.336-.12 1.08 0 1.51.033.282.155.546.348.755a5.99 5.99 0 001.39 2.911.694.694 0 00-.192.288c-.276.85-3.594 1.844-3.594 1.844-.54.186-1.02.513-1.39.947C.168 19.665 0 24.42 0 24.42c0 .778 1.09 13.956 11.32 17.729.168-1.893.635-5.439 1.93-7.343a4.038 4.038 0 011.724-1.198s4.12-1.198 4.456-2.324a.778.778 0 01.24-.372 7.427 7.427 0 01-1.701-3.593 1.665 1.665 0 01-.431-.947c-.156-.539-.336-1.461 0-1.893a.685.685 0 01.167-.155 7.702 7.702 0 010-3.594 6.203 6.203 0 013.403-3.402c.273-.109.567-.158.862-.144.107.016.216.016.323 0a.43.43 0 01.168 0c.732.107 1.453.276 2.156.503l.791.264c.994.25 1.886.802 2.552 1.581 1.39 1.57 1.006 3.87.694 4.983l.06.06c.324.432.144 1.366 0 1.893-.042.356-.192.69-.431.958a7.678 7.678 0 01-1.785 3.594.48.48 0 01.144.431c.132.396.743.803 1.473 1.198.18.084.372.156.6.24a18.2 18.2 0 012.108.838l.275.084c.67.24 1.266.654 1.725 1.198a16.69 16.69 0 011.857 6.66C44.156 38.174 44 24.42 44 24.42z" fill="#10182E"/></svg>