<svg fill="none" height="542" viewBox="0 0 462 542" width="462" xmlns="http://www.w3.org/2000/svg"><g fill="#fff" opacity=".36"><path d="m372.324 101.865h-.678c-.7-.083-1.378-.303-1.994-.648-.615-.345-1.156-.808-1.592-1.3629-.437-.5548-.759-1.1903-.948-1.8699-.19-.6797-.244-1.3902-.158-2.0906.844-6.6877-.04-13.4801-2.57-19.7284-2.529-6.2482-6.618-11.7435-11.877-15.9606-5.259-4.2172-11.511-7.0154-18.159-8.1272-6.649-1.1119-13.471-.5003-19.816 1.7764-1.336.4781-2.807.406-4.09-.2007-1.283-.6066-2.272-1.698-2.75-3.0341s-.406-2.8073.2-4.0901c.607-1.2829 1.699-2.2722 3.035-2.7503 8.064-2.9025 16.739-3.6883 25.193-2.2823 8.455 1.4059 16.409 4.9566 23.1 10.3128s11.897 12.3389 15.121 20.2808c3.223 7.942 4.355 16.5778 3.289 25.0823-.162 1.2939-.79 2.4844-1.767 3.3478-.977.864-2.235 1.342-3.539 1.345z"/><path d="m415.795 124.572c-.942.001-1.867-.247-2.682-.718-.815-.472-1.491-1.15-1.959-1.967-3.837-6.598-9.471-11.971-16.244-15.491-6.772-3.52-14.406-5.043-22.011-4.391-.718.095-1.446.043-2.143-.151-.697-.195-1.347-.529-1.911-.981-.564-.453-1.031-1.0152-1.372-1.6531s-.55-1.3383-.613-2.0589.021-1.4465.246-2.134c.225-.6874.587-1.3222 1.064-1.866s1.059-.9853 1.711-1.298c.653-.3127 1.362-.49 2.084-.5213 9.635-.8317 19.307 1.0951 27.888 5.5552s15.715 11.2691 20.57 19.6331c.468.814.713 1.737.713 2.676-.001.939-.248 1.861-.716 2.675-.468.813-1.142 1.49-1.954 1.962-.811.473-1.732.724-2.671.729z"/><path d="m432.161 211.899c-1.086-.001-2.145-.332-3.038-.949s-1.578-1.491-1.963-2.506c-.386-1.015-.454-2.123-.196-3.177.259-1.054.831-2.005 1.642-2.727 5.353-4.747 9.039-11.088 10.512-18.09 1.474-7.001.657-14.29-2.329-20.792-.549-1.287-.572-2.739-.065-4.043.508-1.305 1.506-2.359 2.781-2.937 1.274-.578 2.725-.635 4.041-.157s2.392 1.452 2.999 2.713c3.927 8.586 4.988 18.207 3.026 27.442-1.961 9.235-6.842 17.594-13.92 23.842-.956.871-2.197 1.362-3.49 1.381z"/><path d="m441.724 166.791c-.917.003-1.819-.23-2.618-.678-.8-.448-1.471-1.096-1.947-1.879l-25.98-42.193c-.403-.599-.681-1.273-.817-1.982s-.128-1.438.025-2.143c.153-.706.446-1.373.864-1.962.417-.589.948-1.088 1.563-1.466.615-.379 1.3-.629 2.013-.736.714-.108 1.442-.069 2.141.112s1.353.502 1.925.942c.572.441 1.049.992 1.402 1.622l25.981 42.193c.501.81.777 1.739.798 2.692.022.952-.211 1.893-.676 2.725-.464.832-1.142 1.525-1.964 2.007-.822.481-1.757.735-2.71.733z"/><path d="m444.359 298.383c-.985-.003-1.951-.276-2.79-.792-.84-.515-1.522-1.252-1.97-2.13-.448-.877-.645-1.861-.57-2.844.075-.982.42-1.925.996-2.724 8.8-12.089 12.539-27.133 10.424-41.935-2.115-14.803-9.919-28.197-21.752-37.337-1.102-.88-1.813-2.158-1.978-3.558-.166-1.401.227-2.809 1.094-3.922.866-1.112 2.136-1.838 3.535-2.02 1.398-.181 2.811.195 3.933 1.048 14.028 10.84 23.277 26.722 25.781 44.273 2.505 17.55-1.932 35.385-12.368 49.716-.494.688-1.145 1.249-1.899 1.636-.753.387-1.588.589-2.436.589z"/><path d="m342.315 438.886c-5.751-.005-11.471-.823-16.993-2.429-.675-.197-1.306-.524-1.855-.965-.549-.44-1.007-.984-1.345-1.6-.339-.617-.554-1.295-.631-1.994-.077-.7-.015-1.408.181-2.084.196-.675.524-1.306.964-1.855s.984-1.006 1.601-1.345 1.294-.554 1.994-.631 1.407-.015 2.083.181c7.06 2.06 14.488 2.533 21.752 1.386 7.264-1.148 14.184-3.888 20.264-8.025 6.081-4.136 11.171-9.566 14.906-15.901 3.736-6.335 6.024-13.417 6.7-20.74.171-1.383.874-2.645 1.959-3.519 1.086-.874 2.47-1.29 3.857-1.16 1.388.13 2.67.795 3.575 1.855s1.362 2.431 1.273 3.821c-1.412 15.02-8.371 28.975-19.517 39.141-11.147 10.165-25.682 15.812-40.768 15.838z"/><path d="m408.941 451.544c-8.513.022-16.91-1.98-24.498-5.841-7.587-3.862-14.148-9.472-19.14-16.368-.411-.572-.704-1.219-.865-1.904-.16-.685-.184-1.396-.07-2.09.114-.695.363-1.36.734-1.958s.857-1.117 1.428-1.528c.572-.41 1.219-.704 1.904-.865.686-.16 1.396-.184 2.09-.07 1.403.23 2.657 1.008 3.486 2.163 6.595 9.097 16.488 15.253 27.563 17.151 11.075 1.897 22.453-.615 31.699-6.999 1.166-.755 2.58-1.027 3.943-.76 1.363.268 2.568 1.054 3.363 2.193.794 1.139 1.115 2.543.895 3.914-.221 1.371-.965 2.603-2.076 3.436-8.938 6.218-19.568 9.543-30.456 9.526z"/><path d="m402.817 476.527c-1.085-.001-2.145-.332-3.038-.949s-1.578-1.491-1.963-2.506-.453-2.123-.195-3.177.831-2.005 1.642-2.727c1.208-1.076 2.157-2.412 2.777-3.906.62-1.495.894-3.111.802-4.726s-.548-3.189-1.334-4.604c-.786-1.414-1.881-2.633-3.204-3.565-.609-.389-1.133-.897-1.541-1.493-.407-.597-.69-1.27-.83-1.979-.141-.708-.137-1.438.012-2.145.148-.707.439-1.377.853-1.969s.944-1.094 1.557-1.476 1.298-.636 2.012-.747c.714-.11 1.443-.075 2.143.103s1.357.497 1.931.935c2.654 1.855 4.852 4.288 6.429 7.115 1.578 2.827 2.493 5.975 2.678 9.208.184 3.232-.367 6.464-1.612 9.452-1.245 2.989-3.152 5.656-5.577 7.801-.973.872-2.235 1.355-3.542 1.355z"/><path d="m369.37 499.989c-1.277.001-2.513-.456-3.484-1.286-.97-.831-1.612-1.981-1.81-3.243-.197-1.262.063-2.553.733-3.64.671-1.088 1.708-1.9 2.925-2.29 12.232-3.939 23.004-11.452 30.928-21.569.877-1.116 2.161-1.838 3.57-2.007 1.408-.169 2.826.229 3.942 1.105 1.116.877 1.838 2.161 2.007 3.57.169 1.408-.229 2.826-1.105 3.942-9.234 11.792-21.794 20.54-36.056 25.111-.531.19-1.087.293-1.65.307z"/><path d="m328.021 540.469c-6.899.005-13.714-1.505-19.966-4.421s-11.788-7.168-16.218-12.456c-.489-.534-.865-1.162-1.104-1.846-.24-.683-.338-1.409-.289-2.131.049-.723.243-1.428.573-2.074.329-.645.785-1.217 1.342-1.681.556-.463 1.201-.81 1.895-1.017.694-.208 1.423-.272 2.142-.19.72.082 1.416.309 2.045.668.629.358 1.179.841 1.617 1.418 4.719 5.671 11.057 9.766 18.166 11.737s14.651 1.724 21.616-.707c6.966-2.432 13.022-6.932 17.36-12.9 4.338-5.967 6.751-13.117 6.915-20.492.033-1.399.613-2.729 1.614-3.706s2.344-1.524 3.743-1.524h.128c1.419.034 2.766.629 3.747 1.655.98 1.026 1.513 2.399 1.483 3.818-.251 9.547-3.393 18.793-9.011 26.517-5.619 7.723-13.449 13.559-22.455 16.737-4.933 1.721-10.12 2.598-15.343 2.595z"/><path d="m273.859 533.603c-5.403-.003-10.745-1.143-15.678-3.347-4.934-2.205-9.347-5.423-12.955-9.446-3.607-4.022-6.326-8.76-7.981-13.903-1.656-5.144-2.209-10.578-1.625-15.949.584-5.372 2.293-10.56 5.015-15.228 2.722-4.667 6.396-8.709 10.783-11.863 4.388-3.153 9.39-5.348 14.682-6.44s10.754-1.058 16.031.101c.71.126 1.388.395 1.991.789.604.394 1.122.907 1.523 1.506.401.6.677 1.274.811 1.983.134.708.124 1.437-.03 2.141-.155.705-.449 1.371-.867 1.959-.418.587-.95 1.085-1.565 1.462s-1.299.626-2.013.733c-.713.106-1.44.067-2.138-.115-4.638-1.014-9.457-.824-14 .552-4.543 1.377-8.658 3.894-11.953 7.311-3.294 3.418-5.658 7.622-6.867 12.213-1.209 4.59-1.222 9.414-.039 14.01 1.184 4.597 3.525 8.815 6.801 12.25 3.276 3.436 7.377 5.975 11.912 7.376 4.536 1.402 9.354 1.618 13.997.629s8.955-3.151 12.525-6.279c1.075-.886 2.453-1.318 3.841-1.205 1.388.112 2.678.761 3.596 1.809.918 1.047 1.392 2.411 1.321 3.802s-.68 2.7-1.7 3.649c-7.04 6.145-16.074 9.521-25.418 9.5z"/><path d="m241.025 401.334c-.283-.003-.565-.024-.844-.064-1.402-.223-2.658-.993-3.492-2.142-.834-1.148-1.179-2.58-.958-3.982 1.458-9.238 4.872-18.058 10.016-25.868 5.143-7.811 11.897-14.432 19.807-19.42 7.911-4.988 16.796-8.228 26.061-9.503 9.265-1.274 18.695-.554 27.659 2.113.726.151 1.414.451 2.018.882.605.43 1.113.982 1.493 1.619s.624 1.347.716 2.083c.091.736.029 1.484-.184 2.195-.212.711-.57 1.37-1.05 1.936-.481.565-1.074 1.025-1.741 1.349-.668.324-1.395.506-2.137.535-.741.028-1.481-.098-2.171-.37-7.5-2.222-15.389-2.818-23.138-1.748s-15.181 3.781-21.798 7.953c-6.618 4.172-12.269 9.707-16.576 16.238-4.307 6.53-7.171 13.904-8.401 21.629-.187 1.268-.823 2.426-1.792 3.264s-2.207 1.299-3.488 1.301z"/><path d="m357.926 265.702c-.746 0-1.484-.156-2.167-.457-.682-.302-1.294-.743-1.796-1.295-5.99-6.565-13.259-11.836-21.359-15.49-8.101-3.654-16.864-5.614-25.749-5.759-8.886-.145-17.707 1.528-25.923 4.916s-15.652 8.42-21.853 14.786c-.482.538-1.067.973-1.722 1.278-.654.306-1.363.476-2.085.501-.721.024-1.441-.097-2.114-.358-.674-.26-1.288-.654-1.805-1.157-.517-.504-.928-1.107-1.206-1.773-.279-.666-.42-1.382-.414-2.104.005-.722.156-1.436.444-2.098.287-.662.706-1.259 1.231-1.756 7.215-7.412 15.869-13.27 25.432-17.215 9.562-3.945 19.83-5.893 30.172-5.724 10.343.169 20.542 2.451 29.97 6.706 9.429 4.255 17.887 10.392 24.857 18.036.694.768 1.151 1.722 1.315 2.744.165 1.023.029 2.071-.391 3.018-.419.947-1.104 1.752-1.972 2.318-.867.566-1.88.868-2.916.87z"/><path d="m241.038 303.254c-1.376-.005-2.698-.539-3.693-1.49-.994-.952-1.585-2.25-1.651-3.625-.395-7.862.778-15.724 3.452-23.128 2.673-7.404 6.794-14.202 12.121-19.998.969-1.02 2.301-1.617 3.707-1.663 1.405-.046 2.773.462 3.807 1.416 1.034.953 1.652 2.275 1.72 3.68.067 1.405-.42 2.781-1.358 3.829-4.366 4.742-7.745 10.305-9.94 16.366-2.196 6.061-3.163 12.498-2.846 18.936.038.706-.064 1.413-.302 2.079-.237.666-.604 1.279-1.08 1.802s-1.05.947-1.691 1.246c-.641.3-1.334.469-2.041.499z"/><path d="m359.423 156.179c-1.352.001-2.654-.511-3.644-1.432-4.848-4.502-8.414-10.21-10.333-16.541-1.919-6.332-2.122-13.059-.589-19.495s4.748-12.349 9.315-17.135c4.568-4.7864 10.324-8.2739 16.682-10.1061 1.299-.2265 2.637.0346 3.756.7331s1.941 1.7855 2.309 3.0525c.367 1.2671.254 2.6252-.318 3.8141-.572 1.1884-1.562 2.1254-2.781 2.6294-4.544 1.308-8.658 3.801-11.921 7.224-3.262 3.423-5.556 7.651-6.645 12.253-1.089 4.601-.935 9.409.447 13.932 1.382 4.522 3.942 8.595 7.417 11.801.791.731 1.342 1.683 1.583 2.732.24 1.05.158 2.147-.236 3.149s-1.081 1.861-1.971 2.466c-.891.605-1.943.926-3.02.923z"/><path d="m307.397 242.675h-.537c-1.421-.01-2.779-.584-3.777-1.596-.997-1.012-1.552-2.379-1.542-3.8.01-1.42.585-2.779 1.596-3.777 1.012-.997 2.379-1.552 3.8-1.542h.447c4.724.014 9.364-1.239 13.439-3.627 4.075-2.389 7.435-5.825 9.732-9.953 2.296-4.128 3.444-8.795 3.324-13.517-.119-4.722-1.502-9.325-4.004-13.331-.372-.596-.623-1.26-.739-1.953-.115-.693-.093-1.402.065-2.086.159-.685.451-1.331.859-1.903s.925-1.057 1.521-1.429 1.26-.623 1.953-.739c.693-.115 1.402-.093 2.086.066.685.158 1.331.45 1.903.858.572.409 1.058.926 1.429 1.522 3.531 5.617 5.489 12.079 5.671 18.711s-1.419 13.192-4.636 18.995c-3.217 5.802-7.931 10.636-13.653 13.995-5.721 3.36-12.238 5.123-18.873 5.106z"/><path d="m240.744 500.616c-.704-.002-1.401-.142-2.05-.414-.65-.272-1.239-.669-1.735-1.169-.495-.501-.887-1.094-1.152-1.746-.266-.652-.4-1.35-.395-2.054l.448-99.115c.01-1.416.578-2.77 1.582-3.768 1.003-.999 2.36-1.561 3.775-1.564.704.003 1.4.145 2.048.417.649.273 1.238.67 1.733 1.17s.887 1.092 1.153 1.744c.266.651.401 1.348.398 2.052l-.461 99.115c-.003 1.416-.568 2.772-1.569 3.771-1.002 1-2.36 1.561-3.775 1.561z"/><path d="m241.191 303.292c-1.42-.003-2.78-.569-3.784-1.572-1.004-1.004-1.57-2.365-1.573-3.785v-231.2826c0-1.4208.564-2.7834 1.569-3.7881s2.367-1.5691 3.788-1.5691 2.784.5644 3.788 1.5691c1.005 1.0047 1.57 2.3673 1.57 3.7881v231.2576c.003.705-.133 1.405-.401 2.058-.268.652-.662 1.246-1.16 1.746-.497.5-1.089.897-1.741 1.168-.651.271-1.35.41-2.056.41z"/><path d="m241.077 72.0098c-7.121 0-14.082-2.1117-20.003-6.068-5.921-3.9562-10.536-9.5794-13.261-16.1584-2.725-6.5791-3.438-13.8185-2.049-20.8027 1.389-6.9843 4.818-13.3997 9.854-18.4351 5.035-5.03537 11.451-8.4645 18.435-9.85376 6.984-1.389256 14.224-.6762396 20.803 2.04888 6.579 2.72513 12.202 7.33998 16.158 13.26098 3.956 5.9209 6.068 12.8821 6.068 20.0032-.014 9.5449-3.811 18.695-10.561 25.4443-6.749 6.7493-15.899 10.547-25.444 10.5606zm0-61.2953c-5.001.0026-9.89 1.488-14.047 4.2684-4.157 2.7805-7.397 6.7312-9.309 11.3526-1.912 4.6215-2.411 9.7061-1.434 14.6111s3.387 9.4101 6.924 12.9458c3.538 3.5356 8.044 5.943 12.95 6.9178 4.905.9748 9.99.4732 14.61-1.4413 4.621-1.9145 8.57-5.1561 11.348-9.3148s4.261-9.0478 4.261-14.0492c-.007-6.7076-2.675-13.1383-7.419-17.88-4.744-4.7418-11.176-7.407-17.884-7.4104z"/><path d="m132.73 480.567c-1.419-.003-2.78-.569-3.784-1.573-1.004-1.003-1.57-2.364-1.573-3.784v-71.089c.001-.714.144-1.421.421-2.08.277-.658.681-1.255 1.19-1.756l108.462-106.122c.504-.492 1.1-.88 1.753-1.142.654-.262 1.353-.392 2.057-.384.704.009 1.399.156 2.047.433.647.277 1.233.679 1.725 1.182.492.504.88 1.1 1.142 1.753.262.654.392 1.353.384 2.057-.009.704-.156 1.399-.433 2.047-.277.647-.679 1.233-1.182 1.725l-106.851 104.537v68.839c-.004 1.42-.569 2.781-1.573 3.784-1.004 1.004-2.365 1.57-3.785 1.573z"/><path d="m132.614 541.863c-7.121 0-14.082-2.112-20.003-6.068s-10.536-9.58-13.2609-16.159c-2.7251-6.579-3.4381-13.818-2.0489-20.802 1.3893-6.985 4.8188-13.4 9.8538-18.435 5.035-5.036 11.451-8.465 18.435-9.854s14.224-.676 20.803 2.049 12.202 7.34 16.158 13.261 6.068 12.882 6.068 20.003c-.013 9.545-3.811 18.695-10.56 25.444-6.75 6.75-15.9 10.547-25.445 10.561zm0-61.295c-5.002 0-9.891 1.483-14.05 4.262s-7.401 6.729-9.315 11.35-2.415 9.706-1.439 14.612 3.384 9.412 6.921 12.949 8.044 5.945 12.949 6.921c4.906.976 9.991.475 14.612-1.439 4.622-1.914 8.571-5.156 11.35-9.315s4.263-9.048 4.263-14.05c-.007-6.705-2.674-13.134-7.415-17.876-4.742-4.741-11.17-7.408-17.876-7.414z"/><path d="m132.73 409.466h-65.8474c-.7247.035-1.4491-.077-2.1291-.33-.6801-.253-1.3016-.641-1.8271-1.142-.5254-.5-.9437-1.102-1.2295-1.769s-.4332-1.385-.4332-2.11c0-.726.1474-1.444.4332-2.111.2858-.666.7041-1.268 1.2295-1.769.5255-.5 1.147-.889 1.8271-1.141.68-.253 1.4044-.365 2.1291-.33h65.8474c.724-.035 1.449.077 2.129.33.68.252 1.301.641 1.827 1.141.525.501.943 1.103 1.229 1.769.286.667.433 1.385.433 2.111 0 .725-.147 1.443-.433 2.11s-.704 1.269-1.229 1.769c-.526.501-1.147.889-1.827 1.142s-1.405.365-2.129.33z"/><path d="m36.0049 442.517c-7.1211 0-14.0823-2.112-20.0032-6.068-5.921-3.956-10.53585-9.579-13.26098-16.158-2.7251196-6.579-3.438136-13.819-2.04888-20.803 1.38926-6.984 4.81839-13.4 9.85376-18.435 5.0354-5.035 11.4508-8.465 18.4351-9.854 6.9842-1.389 14.2236-.676 20.8027 2.049 6.579 2.725 12.2022 7.34 16.1584 13.261 3.9563 5.921 6.068 12.882 6.068 20.003-.0136 9.545-3.8113 18.695-10.5606 25.445-6.7493 6.749-15.8994 10.547-25.4443 10.56zm0-61.295c-5.002 0-9.8916 1.483-14.0506 4.262s-7.4005 6.729-9.3147 11.35c-1.9141 4.621-2.415 9.706-1.4391 14.612.9758 4.906 3.3845 9.412 6.9214 12.949s8.0432 5.946 12.9491 6.922c4.9058.975 9.9909.475 14.6121-1.44 4.6212-1.914 8.571-5.155 11.3499-9.314 2.779-4.159 4.2622-9.049 4.2622-14.051-.0067-6.705-2.6734-13.134-7.4148-17.875-4.7414-4.742-11.1702-7.408-17.8755-7.415z"/><path d="m241.192 187.76h-109.37c-1.421 0-2.783-.565-3.788-1.569-1.005-1.005-1.569-2.368-1.569-3.789 0-1.42.564-2.783 1.569-3.788 1.005-1.004 2.367-1.569 3.788-1.569h109.37c1.421 0 2.783.565 3.788 1.569 1.005 1.005 1.569 2.368 1.569 3.788 0 1.421-.564 2.784-1.569 3.789-1.005 1.004-2.367 1.569-3.788 1.569z"/><path d="m101.175 221.028c-7.1213 0-14.0825-2.111-20.0034-6.068-5.921-3.956-10.5358-9.579-13.261-16.158-2.7251-6.579-3.4381-13.818-2.0488-20.803 1.3892-6.984 4.8183-13.399 9.8537-18.435 5.0354-5.035 11.4508-8.464 18.4351-9.854 6.9844-1.389 14.2234-.676 20.8024 2.049s12.202 7.34 16.159 13.261c3.956 5.921 6.068 12.882 6.068 20.003-.01 9.546-3.807 18.698-10.557 25.449-6.75 6.75-15.902 10.546-25.448 10.556zm0-61.295c-5.0022 0-9.8918 1.483-14.0508 4.262-4.1589 2.779-7.4005 6.729-9.3146 11.35-1.9142 4.621-2.415 9.706-1.4392 14.612s3.3845 9.413 6.9214 12.949c3.5369 3.537 8.0433 5.946 12.9491 6.922 4.9061.976 9.9911.475 14.6121-1.439s8.571-5.156 11.35-9.315 4.262-9.049 4.262-14.051c-.007-6.705-2.673-13.134-7.415-17.875-4.741-4.741-11.17-7.408-17.875-7.415z"/></g></svg>