<svg width="462" height="542" viewBox="0 0 462 542" fill="none" xmlns="http://www.w3.org/2000/svg">
<g opacity="0.36">
<path d="M372.324 101.865H371.646C370.946 101.782 370.268 101.562 369.652 101.217C369.037 100.872 368.496 100.409 368.06 99.8541C367.623 99.2993 367.301 98.6638 367.112 97.9842C366.922 97.3045 366.868 96.594 366.954 95.8936C367.798 89.2059 366.914 82.4135 364.384 76.1652C361.855 69.917 357.766 64.4217 352.507 60.2046C347.248 55.9874 340.996 53.1892 334.348 52.0774C327.699 50.9655 320.877 51.5771 314.532 53.8538C313.196 54.3319 311.725 54.2598 310.442 53.6531C309.159 53.0465 308.17 51.9551 307.692 50.619C307.214 49.2829 307.286 47.8117 307.892 46.5289C308.499 45.246 309.591 44.2567 310.927 43.7786C318.991 40.8761 327.666 40.0903 336.12 41.4963C344.575 42.9022 352.529 46.4529 359.22 51.8091C365.911 57.1653 371.117 64.148 374.341 72.0899C377.564 80.0319 378.696 88.6677 377.63 97.1722C377.468 98.4661 376.84 99.6566 375.863 100.52C374.886 101.384 373.628 101.862 372.324 101.865Z" fill="white"/>
<path d="M415.795 124.572C414.853 124.573 413.928 124.325 413.113 123.854C412.298 123.382 411.622 122.704 411.154 121.887C407.317 115.289 401.683 109.916 394.91 106.396C388.138 102.876 380.504 101.353 372.899 102.005C372.181 102.1 371.453 102.048 370.756 101.854C370.059 101.659 369.409 101.325 368.845 100.873C368.281 100.42 367.814 99.8578 367.473 99.2199C367.132 98.582 366.923 97.8816 366.86 97.161C366.797 96.4404 366.881 95.7145 367.106 95.027C367.331 94.3396 367.693 93.7048 368.17 93.161C368.647 92.6172 369.229 92.1757 369.881 91.863C370.534 91.5503 371.243 91.373 371.965 91.3417C381.6 90.51 391.272 92.4368 399.853 96.8969C408.434 101.357 415.568 108.166 420.423 116.53C420.891 117.344 421.136 118.267 421.136 119.206C421.135 120.145 420.888 121.067 420.42 121.881C419.952 122.694 419.278 123.371 418.466 123.843C417.655 124.316 416.734 124.567 415.795 124.572Z" fill="white"/>
<path d="M432.161 211.899C431.075 211.898 430.016 211.567 429.123 210.95C428.23 210.333 427.545 209.459 427.16 208.444C426.774 207.429 426.706 206.321 426.964 205.267C427.223 204.213 427.795 203.262 428.606 202.54C433.959 197.793 437.645 191.452 439.118 184.45C440.592 177.449 439.775 170.16 436.789 163.658C436.24 162.371 436.217 160.919 436.724 159.615C437.232 158.31 438.23 157.256 439.505 156.678C440.779 156.1 442.23 156.043 443.546 156.521C444.862 156.999 445.938 157.973 446.545 159.234C450.472 167.82 451.533 177.441 449.571 186.676C447.61 195.911 442.729 204.27 435.651 210.518C434.695 211.389 433.454 211.88 432.161 211.899Z" fill="white"/>
<path d="M441.724 166.791C440.807 166.794 439.905 166.561 439.106 166.113C438.306 165.665 437.635 165.017 437.159 164.234L411.179 122.041C410.776 121.442 410.498 120.768 410.362 120.059C410.226 119.35 410.234 118.621 410.387 117.916C410.54 117.21 410.833 116.543 411.251 115.954C411.668 115.365 412.199 114.866 412.814 114.488C413.429 114.109 414.114 113.859 414.827 113.752C415.541 113.644 416.269 113.683 416.968 113.864C417.667 114.045 418.321 114.366 418.893 114.806C419.465 115.247 419.942 115.798 420.295 116.428L446.276 158.621C446.777 159.431 447.053 160.36 447.074 161.313C447.096 162.265 446.863 163.206 446.398 164.038C445.934 164.87 445.256 165.563 444.434 166.045C443.612 166.526 442.677 166.78 441.724 166.778V166.791Z" fill="white"/>
<path d="M444.359 298.383C443.374 298.38 442.408 298.107 441.569 297.591C440.729 297.076 440.047 296.339 439.599 295.461C439.151 294.584 438.954 293.6 439.029 292.617C439.104 291.635 439.449 290.692 440.025 289.893C448.825 277.804 452.564 262.76 450.449 247.958C448.334 233.155 440.53 219.761 428.697 210.621C427.595 209.741 426.884 208.463 426.719 207.063C426.553 205.662 426.946 204.254 427.813 203.141C428.679 202.029 429.949 201.303 431.348 201.121C432.746 200.94 434.159 201.316 435.281 202.169C449.309 213.009 458.558 228.891 461.062 246.442C463.567 263.992 459.13 281.827 448.694 296.158C448.2 296.846 447.549 297.407 446.795 297.794C446.042 298.181 445.207 298.383 444.359 298.383Z" fill="white"/>
<path d="M342.315 438.886C336.564 438.881 330.844 438.063 325.322 436.457C324.647 436.26 324.016 435.933 323.467 435.492C322.918 435.052 322.46 434.508 322.122 433.892C321.783 433.275 321.568 432.597 321.491 431.898C321.414 431.198 321.476 430.49 321.672 429.814C321.868 429.139 322.196 428.508 322.636 427.959C323.076 427.41 323.62 426.953 324.237 426.614C324.854 426.275 325.531 426.06 326.231 425.983C326.931 425.906 327.638 425.968 328.314 426.164C335.374 428.224 342.802 428.697 350.066 427.55C357.33 426.402 364.25 423.662 370.33 419.525C376.411 415.389 381.501 409.959 385.236 403.624C388.972 397.289 391.26 390.207 391.936 382.884C392.107 381.501 392.81 380.239 393.895 379.365C394.981 378.491 396.365 378.075 397.752 378.205C399.14 378.335 400.422 379 401.327 380.06C402.232 381.12 402.689 382.491 402.6 383.881C401.188 398.901 394.229 412.856 383.083 423.022C371.936 433.187 357.401 438.834 342.315 438.86V438.886Z" fill="white"/>
<path d="M408.941 451.544C400.428 451.566 392.031 449.564 384.443 445.703C376.856 441.841 370.295 436.231 365.303 429.335C364.892 428.763 364.599 428.116 364.438 427.431C364.278 426.746 364.254 426.035 364.368 425.341C364.482 424.646 364.731 423.981 365.102 423.383C365.473 422.785 365.959 422.266 366.53 421.855C367.102 421.445 367.749 421.151 368.434 420.99C369.12 420.83 369.83 420.806 370.524 420.92C371.927 421.15 373.181 421.928 374.01 423.083C380.605 432.18 390.498 438.336 401.573 440.234C412.648 442.131 424.026 439.619 433.272 433.235C434.438 432.48 435.852 432.208 437.215 432.475C438.578 432.743 439.783 433.529 440.578 434.668C441.372 435.807 441.693 437.211 441.473 438.582C441.252 439.953 440.508 441.185 439.397 442.018C430.459 448.236 419.829 451.561 408.941 451.544Z" fill="white"/>
<path d="M402.817 476.527C401.732 476.526 400.672 476.195 399.779 475.578C398.886 474.961 398.201 474.087 397.816 473.072C397.431 472.057 397.363 470.949 397.621 469.895C397.879 468.841 398.452 467.89 399.263 467.168C400.471 466.092 401.42 464.756 402.04 463.262C402.66 461.767 402.934 460.151 402.842 458.536C402.75 456.921 402.294 455.347 401.508 453.932C400.722 452.518 399.627 451.299 398.304 450.367C397.695 449.978 397.171 449.47 396.763 448.874C396.356 448.277 396.073 447.604 395.933 446.895C395.792 446.187 395.796 445.457 395.945 444.75C396.093 444.043 396.384 443.373 396.798 442.781C397.212 442.189 397.742 441.687 398.355 441.305C398.968 440.923 399.653 440.669 400.367 440.558C401.081 440.448 401.81 440.483 402.51 440.661C403.21 440.839 403.867 441.158 404.441 441.596C407.095 443.451 409.293 445.884 410.87 448.711C412.448 451.538 413.363 454.686 413.548 457.919C413.732 461.151 413.181 464.383 411.936 467.371C410.691 470.36 408.784 473.027 406.359 475.172C405.386 476.044 404.124 476.527 402.817 476.527Z" fill="white"/>
<path d="M369.37 499.989C368.093 499.99 366.857 499.533 365.886 498.703C364.916 497.872 364.274 496.722 364.076 495.46C363.879 494.198 364.139 492.907 364.809 491.82C365.48 490.732 366.517 489.92 367.734 489.53C379.966 485.591 390.738 478.078 398.662 467.961C399.539 466.845 400.823 466.123 402.232 465.954C403.64 465.785 405.058 466.183 406.174 467.059C407.29 467.936 408.012 469.22 408.181 470.629C408.35 472.037 407.952 473.455 407.076 474.571C397.842 486.363 385.282 495.111 371.02 499.682C370.489 499.872 369.933 499.975 369.37 499.989Z" fill="white"/>
<path d="M328.021 540.469C321.122 540.474 314.307 538.964 308.055 536.048C301.803 533.132 296.267 528.88 291.837 523.592C291.348 523.058 290.972 522.43 290.733 521.746C290.493 521.063 290.395 520.337 290.444 519.615C290.493 518.892 290.687 518.187 291.017 517.541C291.346 516.896 291.802 516.324 292.359 515.86C292.915 515.397 293.56 515.05 294.254 514.843C294.948 514.635 295.677 514.571 296.396 514.653C297.116 514.735 297.812 514.962 298.441 515.321C299.07 515.679 299.62 516.162 300.058 516.739C304.777 522.41 311.115 526.505 318.224 528.476C325.333 530.447 332.875 530.2 339.84 527.769C346.806 525.337 352.862 520.837 357.2 514.869C361.538 508.902 363.951 501.752 364.115 494.377C364.148 492.978 364.728 491.648 365.729 490.671C366.73 489.694 368.073 489.147 369.472 489.147H369.6C371.019 489.181 372.366 489.776 373.347 490.802C374.327 491.828 374.86 493.201 374.83 494.62C374.579 504.167 371.437 513.413 365.819 521.137C360.2 528.86 352.37 534.696 343.364 537.874C338.431 539.595 333.244 540.472 328.021 540.469Z" fill="white"/>
<path d="M273.859 533.603C268.456 533.6 263.114 532.46 258.181 530.256C253.247 528.051 248.834 524.833 245.226 520.81C241.619 516.788 238.9 512.05 237.245 506.907C235.589 501.763 235.036 496.329 235.62 490.958C236.204 485.586 237.913 480.398 240.635 475.73C243.357 471.063 247.031 467.021 251.418 463.867C255.806 460.714 260.808 458.519 266.1 457.427C271.392 456.335 276.854 456.369 282.131 457.528C282.841 457.654 283.519 457.923 284.122 458.317C284.726 458.711 285.244 459.224 285.645 459.823C286.046 460.423 286.322 461.097 286.456 461.806C286.59 462.514 286.58 463.243 286.426 463.947C286.271 464.652 285.977 465.318 285.559 465.906C285.141 466.493 284.609 466.991 283.994 467.368C283.379 467.745 282.695 467.994 281.981 468.101C281.268 468.207 280.541 468.168 279.843 467.986C275.205 466.972 270.386 467.162 265.843 468.538C261.3 469.915 257.185 472.432 253.89 475.849C250.596 479.267 248.232 483.471 247.023 488.062C245.814 492.652 245.801 497.476 246.984 502.072C248.168 506.669 250.509 510.887 253.785 514.322C257.061 517.758 261.162 520.297 265.697 521.698C270.233 523.1 275.051 523.316 279.694 522.327C284.337 521.338 288.649 519.176 292.219 516.048C293.294 515.162 294.672 514.73 296.06 514.843C297.448 514.955 298.738 515.604 299.656 516.652C300.574 517.699 301.048 519.063 300.977 520.454C300.906 521.845 300.297 523.154 299.277 524.103C292.237 530.248 283.203 533.624 273.859 533.603Z" fill="white"/>
<path d="M241.025 401.334C240.742 401.331 240.46 401.31 240.181 401.27C238.779 401.047 237.523 400.277 236.689 399.128C235.855 397.98 235.51 396.548 235.731 395.146C237.189 385.908 240.603 377.088 245.747 369.278C250.89 361.467 257.644 354.846 265.554 349.858C273.465 344.87 282.35 341.63 291.615 340.355C300.88 339.081 310.31 339.801 319.274 342.468C320 342.619 320.688 342.919 321.292 343.35C321.897 343.78 322.405 344.332 322.785 344.969C323.165 345.606 323.409 346.316 323.501 347.052C323.592 347.788 323.53 348.536 323.317 349.247C323.105 349.958 322.747 350.617 322.267 351.183C321.786 351.748 321.193 352.208 320.526 352.532C319.858 352.856 319.131 353.038 318.389 353.067C317.648 353.095 316.908 352.969 316.218 352.697C308.718 350.475 300.829 349.879 293.08 350.949C285.331 352.019 277.899 354.73 271.282 358.902C264.664 363.074 259.013 368.609 254.706 375.14C250.399 381.67 247.535 389.044 246.305 396.769C246.118 398.037 245.482 399.195 244.513 400.033C243.544 400.871 242.306 401.332 241.025 401.334Z" fill="white"/>
<path d="M357.926 265.702C357.18 265.702 356.442 265.546 355.759 265.245C355.077 264.943 354.465 264.502 353.963 263.95C347.973 257.385 340.704 252.114 332.604 248.46C324.503 244.806 315.74 242.846 306.855 242.701C297.969 242.556 289.148 244.229 280.932 247.617C272.716 251.005 265.28 256.037 259.079 262.403C258.597 262.941 258.012 263.376 257.357 263.681C256.703 263.987 255.994 264.157 255.272 264.182C254.551 264.206 253.831 264.085 253.158 263.824C252.484 263.564 251.87 263.17 251.353 262.667C250.836 262.163 250.425 261.56 250.147 260.894C249.868 260.228 249.727 259.512 249.733 258.79C249.738 258.068 249.889 257.354 250.177 256.692C250.464 256.03 250.883 255.433 251.408 254.936C258.623 247.524 267.277 241.666 276.84 237.721C286.402 233.776 296.67 231.828 307.012 231.997C317.355 232.166 327.554 234.448 336.982 238.703C346.411 242.958 354.869 249.095 361.839 256.739C362.533 257.507 362.99 258.461 363.154 259.483C363.319 260.506 363.183 261.554 362.763 262.501C362.344 263.448 361.659 264.253 360.791 264.819C359.924 265.385 358.911 265.687 357.875 265.689L357.926 265.702Z" fill="white"/>
<path d="M241.038 303.254C239.662 303.249 238.34 302.715 237.345 301.764C236.351 300.812 235.76 299.514 235.694 298.139C235.299 290.277 236.472 282.415 239.146 275.011C241.819 267.607 245.94 260.809 251.267 255.013C252.236 253.993 253.568 253.396 254.974 253.35C256.379 253.304 257.747 253.812 258.781 254.766C259.815 255.719 260.433 257.041 260.501 258.446C260.568 259.851 260.081 261.227 259.143 262.275C254.777 267.017 251.398 272.58 249.203 278.641C247.007 284.702 246.04 291.139 246.357 297.577C246.395 298.283 246.293 298.99 246.055 299.656C245.818 300.322 245.451 300.935 244.975 301.458C244.499 301.981 243.925 302.405 243.284 302.704C242.643 303.004 241.95 303.173 241.243 303.203L241.038 303.254Z" fill="white"/>
<path d="M359.423 156.179C358.071 156.18 356.769 155.668 355.779 154.747C350.931 150.245 347.365 144.537 345.446 138.206C343.527 131.874 343.324 125.147 344.857 118.711C346.39 112.275 349.605 106.362 354.172 101.576C358.74 96.7896 364.496 93.3021 370.854 91.4699C372.153 91.2434 373.491 91.5045 374.61 92.203C375.729 92.9015 376.551 93.9885 376.919 95.2555C377.286 96.5226 377.173 97.8807 376.601 99.0696C376.029 100.258 375.039 101.195 373.82 101.699C369.276 103.007 365.162 105.5 361.899 108.923C358.637 112.346 356.343 116.574 355.254 121.176C354.165 125.777 354.319 130.585 355.701 135.108C357.083 139.63 359.643 143.703 363.118 146.909C363.909 147.64 364.46 148.592 364.701 149.641C364.941 150.691 364.859 151.788 364.465 152.79C364.071 153.792 363.384 154.651 362.494 155.256C361.603 155.861 360.551 156.182 359.474 156.179H359.423Z" fill="white"/>
<path d="M307.397 242.675H306.86C305.439 242.665 304.081 242.091 303.083 241.079C302.086 240.067 301.531 238.7 301.541 237.279C301.551 235.859 302.126 234.5 303.137 233.502C304.149 232.505 305.516 231.95 306.937 231.96H307.384C312.108 231.974 316.748 230.721 320.823 228.333C324.898 225.944 328.258 222.508 330.555 218.38C332.851 214.252 333.999 209.585 333.879 204.863C333.76 200.141 332.377 195.538 329.875 191.532C329.503 190.936 329.252 190.272 329.136 189.579C329.021 188.886 329.043 188.177 329.201 187.493C329.36 186.808 329.652 186.162 330.06 185.59C330.468 185.018 330.985 184.533 331.581 184.161C332.177 183.789 332.841 183.538 333.534 183.422C334.227 183.307 334.936 183.329 335.62 183.488C336.305 183.646 336.951 183.938 337.523 184.346C338.095 184.755 338.581 185.272 338.952 185.868C342.483 191.485 344.441 197.947 344.623 204.579C344.805 211.211 343.204 217.771 339.987 223.574C336.77 229.376 332.056 234.21 326.334 237.569C320.613 240.929 314.096 242.692 307.461 242.675H307.397Z" fill="white"/>
<path d="M240.744 500.616C240.04 500.614 239.343 500.474 238.694 500.202C238.044 499.93 237.455 499.533 236.959 499.033C236.464 498.532 236.072 497.939 235.807 497.287C235.541 496.635 235.407 495.937 235.412 495.233L235.86 396.118C235.87 394.702 236.438 393.348 237.442 392.35C238.445 391.351 239.802 390.789 241.217 390.786C241.921 390.789 242.617 390.931 243.265 391.203C243.914 391.476 244.503 391.873 244.998 392.373C245.493 392.873 245.885 393.465 246.151 394.117C246.417 394.768 246.552 395.465 246.549 396.169L246.088 495.284C246.085 496.7 245.52 498.056 244.519 499.055C243.517 500.055 242.159 500.616 240.744 500.616Z" fill="white"/>
<path d="M241.191 303.292C239.771 303.289 238.411 302.723 237.407 301.72C236.403 300.716 235.837 299.355 235.834 297.935V66.6524C235.834 65.2316 236.398 63.869 237.403 62.8643C238.408 61.8596 239.77 61.2952 241.191 61.2952C242.612 61.2952 243.975 61.8596 244.979 62.8643C245.984 63.869 246.549 65.2316 246.549 66.6524V297.91C246.552 298.615 246.416 299.315 246.148 299.968C245.88 300.62 245.486 301.214 244.988 301.714C244.491 302.214 243.899 302.611 243.247 302.882C242.596 303.153 241.897 303.292 241.191 303.292Z" fill="white"/>
<path d="M241.077 72.0098C233.956 72.0098 226.995 69.8981 221.074 65.9418C215.153 61.9856 210.538 56.3624 207.813 49.7834C205.088 43.2043 204.375 35.9649 205.764 28.9807C207.153 21.9964 210.582 15.581 215.618 10.5456C220.653 5.51023 227.069 2.0811 234.053 0.69184C241.037 -0.697416 248.277 0.0156004 254.856 2.74072C261.435 5.46585 267.058 10.0807 271.014 16.0017C274.97 21.9226 277.082 28.8838 277.082 36.0049C277.068 45.5498 273.271 54.6999 266.521 61.4492C259.772 68.1985 250.622 71.9962 241.077 72.0098ZM241.077 10.7145C236.076 10.7171 231.187 12.2025 227.03 14.9829C222.873 17.7634 219.633 21.7141 217.721 26.3355C215.809 30.957 215.31 36.0416 216.287 40.9466C217.264 45.8516 219.674 50.3567 223.211 53.8924C226.749 57.428 231.255 59.8354 236.161 60.8102C241.066 61.785 246.151 61.2834 250.771 59.3689C255.392 57.4544 259.341 54.2128 262.119 50.0541C264.897 45.8954 266.38 41.0063 266.38 36.0049C266.373 29.2973 263.705 22.8666 258.961 18.1249C254.217 13.3831 247.785 10.7179 241.077 10.7145Z" fill="white"/>
<path d="M132.73 480.567C131.311 480.564 129.95 479.998 128.946 478.994C127.942 477.991 127.376 476.63 127.373 475.21V404.121C127.374 403.407 127.517 402.7 127.794 402.041C128.071 401.383 128.475 400.786 128.984 400.285L237.446 294.163C237.95 293.671 238.546 293.283 239.199 293.021C239.853 292.759 240.552 292.629 241.256 292.637C241.96 292.646 242.655 292.793 243.303 293.07C243.95 293.347 244.536 293.749 245.028 294.252C245.52 294.756 245.908 295.352 246.17 296.005C246.432 296.659 246.562 297.358 246.554 298.062C246.545 298.766 246.398 299.461 246.121 300.109C245.844 300.756 245.442 301.342 244.939 301.834L138.088 406.371V475.21C138.084 476.63 137.519 477.991 136.515 478.994C135.511 479.998 134.15 480.564 132.73 480.567Z" fill="white"/>
<path d="M132.614 541.863C125.493 541.863 118.532 539.751 112.611 535.795C106.69 531.839 102.075 526.215 99.3501 519.636C96.625 513.057 95.912 505.818 97.3012 498.834C98.6905 491.849 102.12 485.434 107.155 480.399C112.19 475.363 118.606 471.934 125.59 470.545C132.574 469.156 139.814 469.869 146.393 472.594C152.972 475.319 158.595 479.934 162.551 485.855C166.507 491.776 168.619 498.737 168.619 505.858C168.606 515.403 164.808 524.553 158.059 531.302C151.309 538.052 142.159 541.849 132.614 541.863ZM132.614 480.568C127.612 480.568 122.723 482.051 118.564 484.83C114.405 487.609 111.163 491.559 109.249 496.18C107.335 500.801 106.834 505.886 107.81 510.792C108.786 515.698 111.194 520.204 114.731 523.741C118.268 527.278 122.775 529.686 127.68 530.662C132.586 531.638 137.671 531.137 142.292 529.223C146.914 527.309 150.863 524.067 153.642 519.908C156.421 515.749 157.905 510.86 157.905 505.858C157.898 499.153 155.231 492.724 150.49 487.982C145.748 483.241 139.32 480.574 132.614 480.568Z" fill="white"/>
<path d="M132.73 409.466H66.8826C66.1579 409.501 65.4335 409.389 64.7535 409.136C64.0734 408.883 63.4519 408.495 62.9264 407.994C62.401 407.494 61.9827 406.892 61.6969 406.225C61.4111 405.558 61.2637 404.84 61.2637 404.115C61.2637 403.389 61.4111 402.671 61.6969 402.004C61.9827 401.338 62.401 400.736 62.9264 400.235C63.4519 399.735 64.0734 399.346 64.7535 399.094C65.4335 398.841 66.1579 398.729 66.8826 398.764H132.73C133.454 398.729 134.179 398.841 134.859 399.094C135.539 399.346 136.16 399.735 136.686 400.235C137.211 400.736 137.629 401.338 137.915 402.004C138.201 402.671 138.348 403.389 138.348 404.115C138.348 404.84 138.201 405.558 137.915 406.225C137.629 406.892 137.211 407.494 136.686 407.994C136.16 408.495 135.539 408.883 134.859 409.136C134.179 409.389 133.454 409.501 132.73 409.466Z" fill="white"/>
<path d="M36.0049 442.517C28.8838 442.517 21.9226 440.405 16.0017 436.449C10.0807 432.493 5.46585 426.87 2.74072 420.291C0.0156004 413.712 -0.697416 406.472 0.69184 399.488C2.0811 392.504 5.51023 386.088 10.5456 381.053C15.581 376.018 21.9964 372.588 28.9807 371.199C35.9649 369.81 43.2043 370.523 49.7834 373.248C56.3624 375.973 61.9856 380.588 65.9418 386.509C69.8981 392.43 72.0098 399.391 72.0098 406.512C71.9962 416.057 68.1985 425.207 61.4492 431.957C54.6999 438.706 45.5498 442.504 36.0049 442.517ZM36.0049 381.222C31.0029 381.222 26.1133 382.705 21.9543 385.484C17.7953 388.263 14.5538 392.213 12.6396 396.834C10.7255 401.455 10.2246 406.54 11.2005 411.446C12.1763 416.352 14.585 420.858 18.1219 424.395C21.6588 427.932 26.1651 430.341 31.071 431.317C35.9768 432.292 41.0619 431.792 45.6831 429.877C50.3043 427.963 54.2541 424.722 57.033 420.563C59.812 416.404 61.2952 411.514 61.2952 406.512C61.2885 399.807 58.6218 393.378 53.8804 388.637C49.139 383.895 42.7102 381.229 36.0049 381.222Z" fill="white"/>
<path d="M241.192 187.76H131.822C130.401 187.76 129.039 187.195 128.034 186.191C127.029 185.186 126.465 183.823 126.465 182.402C126.465 180.982 127.029 179.619 128.034 178.614C129.039 177.61 130.401 177.045 131.822 177.045H241.192C242.613 177.045 243.975 177.61 244.98 178.614C245.985 179.619 246.549 180.982 246.549 182.402C246.549 183.823 245.985 185.186 244.98 186.191C243.975 187.195 242.613 187.76 241.192 187.76Z" fill="white"/>
<path d="M101.175 221.028C94.0537 221.028 87.0925 218.917 81.1716 214.96C75.2506 211.004 70.6358 205.381 67.9106 198.802C65.1855 192.223 64.4725 184.984 65.8618 177.999C67.251 171.015 70.6801 164.6 75.7155 159.564C80.7509 154.529 87.1663 151.1 94.1506 149.71C101.135 148.321 108.374 149.034 114.953 151.759C121.532 154.484 127.155 159.099 131.112 165.02C135.068 170.941 137.18 177.902 137.18 185.023C137.17 194.569 133.373 203.721 126.623 210.472C119.873 217.222 110.721 221.018 101.175 221.028ZM101.175 159.733C96.1728 159.733 91.2832 161.216 87.1242 163.995C82.9653 166.774 79.7237 170.724 77.8096 175.345C75.8954 179.966 75.3946 185.051 76.3704 189.957C77.3462 194.863 79.7549 199.37 83.2918 202.906C86.8287 206.443 91.3351 208.852 96.2409 209.828C101.147 210.804 106.232 210.303 110.853 208.389C115.474 206.475 119.424 203.233 122.203 199.074C124.982 194.915 126.465 190.025 126.465 185.023C126.458 178.318 123.792 171.889 119.05 167.148C114.309 162.407 107.88 159.74 101.175 159.733Z" fill="white"/>
</g>
</svg>
