<svg width="512" height="512" viewBox="0 0 512 512" fill="none" xmlns="http://www.w3.org/2000/svg">
<rect width="512" height="512" rx="51" fill="#10182D"/>
<path d="M368.203 108.687H367.64C367.058 108.618 366.495 108.435 365.984 108.149C365.473 107.862 365.023 107.478 364.661 107.017C364.299 106.556 364.032 106.028 363.874 105.464C363.717 104.9 363.672 104.31 363.743 103.728C364.445 98.1739 363.71 92.533 361.609 87.344C359.509 82.1551 356.113 77.5915 351.746 74.0892C347.378 70.587 342.186 68.2632 336.665 67.3398C331.144 66.4165 325.478 66.9244 320.209 68.8151C319.099 69.2122 317.877 69.1522 316.812 68.6484C315.747 68.1446 314.925 67.2383 314.528 66.1287C314.131 65.0192 314.191 63.7973 314.695 62.732C315.198 61.6666 316.105 60.845 317.214 60.448C323.912 58.0376 331.115 57.385 338.137 58.5526C345.159 59.7202 351.763 62.6689 357.32 67.1171C362.877 71.5652 367.201 77.3641 369.878 83.9596C372.554 90.5552 373.495 97.7269 372.61 104.79C372.475 105.864 371.953 106.853 371.142 107.57C370.331 108.288 369.286 108.685 368.203 108.687V108.687Z" fill="white"/>
<path d="M404.305 127.544C403.523 127.545 402.754 127.339 402.078 126.948C401.401 126.556 400.839 125.993 400.45 125.315C397.264 119.835 392.585 115.373 386.961 112.45C381.336 109.527 374.996 108.262 368.68 108.803C368.085 108.882 367.48 108.839 366.901 108.678C366.322 108.516 365.783 108.239 365.314 107.863C364.845 107.487 364.458 107.02 364.175 106.49C363.891 105.961 363.718 105.379 363.666 104.781C363.613 104.182 363.683 103.579 363.87 103.008C364.057 102.437 364.357 101.91 364.753 101.459C365.15 101.007 365.633 100.64 366.175 100.381C366.717 100.121 367.305 99.9737 367.905 99.9477C375.907 99.2571 383.939 100.857 391.065 104.561C398.191 108.265 404.116 113.92 408.148 120.866C408.536 121.542 408.74 122.308 408.74 123.088C408.739 123.868 408.534 124.634 408.145 125.309C407.756 125.985 407.197 126.547 406.523 126.939C405.849 127.332 405.084 127.54 404.305 127.544V127.544Z" fill="white"/>
<path d="M417.895 200.067C416.994 200.066 416.114 199.791 415.372 199.278C414.631 198.766 414.062 198.04 413.742 197.197C413.422 196.355 413.365 195.434 413.58 194.559C413.795 193.683 414.27 192.894 414.943 192.294C419.389 188.352 422.45 183.086 423.673 177.271C424.897 171.457 424.219 165.404 421.739 160.004C421.283 158.935 421.264 157.729 421.685 156.646C422.107 155.563 422.935 154.687 423.994 154.207C425.053 153.727 426.257 153.68 427.35 154.077C428.443 154.474 429.337 155.283 429.841 156.33C433.102 163.46 433.983 171.45 432.354 179.12C430.725 186.789 426.672 193.731 420.794 198.92C420 199.643 418.969 200.05 417.895 200.067Z" fill="white"/>
<path d="M425.839 162.606C425.077 162.609 424.328 162.415 423.664 162.043C423 161.67 422.443 161.133 422.048 160.482L400.472 125.442C400.137 124.945 399.906 124.385 399.793 123.796C399.68 123.208 399.687 122.602 399.814 122.016C399.941 121.431 400.185 120.876 400.531 120.387C400.878 119.898 401.319 119.484 401.83 119.169C402.34 118.855 402.909 118.647 403.502 118.558C404.095 118.469 404.699 118.501 405.279 118.651C405.86 118.802 406.403 119.068 406.878 119.434C407.353 119.8 407.749 120.258 408.042 120.781L429.619 155.821C430.035 156.494 430.264 157.265 430.282 158.056C430.3 158.847 430.106 159.629 429.721 160.32C429.335 161.011 428.772 161.586 428.089 161.986C427.407 162.386 426.63 162.596 425.839 162.595V162.606Z" fill="white"/>
<path d="M428.025 271.889C427.207 271.887 426.405 271.659 425.708 271.231C425.01 270.803 424.445 270.191 424.073 269.463C423.7 268.734 423.537 267.917 423.599 267.101C423.661 266.285 423.947 265.502 424.426 264.838C431.734 254.799 434.84 242.305 433.083 230.012C431.326 217.72 424.846 206.596 415.018 199.005C414.103 198.275 413.513 197.213 413.375 196.05C413.238 194.887 413.565 193.717 414.284 192.794C415.004 191.87 416.059 191.267 417.22 191.116C418.381 190.965 419.554 191.278 420.487 191.987C432.136 200.989 439.817 214.178 441.897 228.753C443.977 243.328 440.292 258.14 431.625 270.041C431.215 270.613 430.675 271.079 430.049 271.4C429.423 271.721 428.729 271.889 428.025 271.889Z" fill="white"/>
<path d="M343.282 388.572C338.506 388.568 333.756 387.889 329.17 386.555C328.609 386.392 328.085 386.119 327.629 385.754C327.173 385.388 326.794 384.937 326.512 384.424C326.231 383.912 326.053 383.35 325.989 382.769C325.925 382.188 325.976 381.6 326.139 381.039C326.302 380.477 326.574 379.954 326.94 379.498C327.305 379.041 327.757 378.662 328.269 378.38C328.781 378.099 329.344 377.921 329.925 377.857C330.506 377.793 331.094 377.844 331.655 378.007C337.518 379.718 343.686 380.111 349.719 379.158C355.751 378.205 361.498 375.929 366.548 372.494C371.598 369.059 375.825 364.549 378.927 359.288C382.029 354.028 383.929 348.146 384.491 342.064C384.633 340.916 385.216 339.867 386.118 339.142C387.02 338.416 388.169 338.071 389.321 338.179C390.474 338.286 391.539 338.839 392.29 339.719C393.042 340.599 393.421 341.738 393.347 342.893C392.174 355.366 386.396 366.955 377.138 375.397C367.881 383.84 355.811 388.529 343.282 388.551V388.572Z" fill="white"/>
<path d="M398.613 399.084C391.543 399.103 384.57 397.44 378.269 394.233C371.968 391.026 366.519 386.367 362.373 380.64C362.032 380.166 361.788 379.628 361.655 379.059C361.522 378.49 361.502 377.9 361.596 377.323C361.691 376.747 361.898 376.194 362.207 375.697C362.515 375.201 362.918 374.77 363.393 374.429C363.867 374.088 364.405 373.844 364.974 373.71C365.543 373.577 366.133 373.557 366.709 373.652C367.874 373.843 368.916 374.489 369.604 375.448C375.081 383.003 383.297 388.116 392.494 389.691C401.692 391.267 411.141 389.181 418.82 383.879C419.788 383.252 420.962 383.026 422.094 383.248C423.225 383.47 424.227 384.123 424.886 385.069C425.546 386.016 425.813 387.181 425.63 388.32C425.447 389.458 424.829 390.482 423.906 391.174C416.483 396.337 407.655 399.098 398.613 399.084V399.084Z" fill="white"/>
<path d="M393.527 419.832C392.626 419.831 391.746 419.556 391.004 419.043C390.262 418.531 389.694 417.805 389.374 416.963C389.054 416.12 388.997 415.2 389.212 414.324C389.426 413.449 389.902 412.659 390.575 412.06C391.579 411.166 392.367 410.057 392.882 408.815C393.397 407.574 393.624 406.233 393.548 404.891C393.471 403.549 393.092 402.242 392.44 401.068C391.787 399.893 390.878 398.881 389.779 398.107C389.273 397.784 388.838 397.362 388.5 396.867C388.161 396.371 387.927 395.812 387.81 395.224C387.693 394.635 387.696 394.029 387.82 393.442C387.943 392.855 388.184 392.299 388.528 391.807C388.872 391.315 389.312 390.898 389.822 390.581C390.331 390.264 390.899 390.053 391.492 389.961C392.085 389.869 392.691 389.898 393.272 390.046C393.853 390.194 394.399 390.459 394.876 390.823C397.079 392.363 398.905 394.384 400.215 396.732C401.525 399.079 402.285 401.694 402.439 404.378C402.592 407.063 402.134 409.747 401.1 412.229C400.066 414.71 398.482 416.925 396.468 418.707C395.66 419.431 394.613 419.832 393.527 419.832V419.832Z" fill="white"/>
<path d="M365.749 439.317C364.688 439.317 363.662 438.938 362.856 438.248C362.05 437.559 361.517 436.604 361.353 435.555C361.189 434.507 361.405 433.435 361.962 432.532C362.519 431.629 363.38 430.955 364.39 430.631C374.549 427.359 383.495 421.12 390.076 412.718C390.804 411.791 391.87 411.192 393.04 411.052C394.21 410.911 395.387 411.241 396.314 411.969C397.24 412.697 397.84 413.764 397.98 414.933C398.121 416.103 397.79 417.281 397.062 418.208C389.395 428 378.963 435.265 367.119 439.062C366.679 439.219 366.217 439.305 365.749 439.317V439.317Z" fill="white"/>
<path d="M331.411 472.934C325.682 472.938 320.022 471.684 314.83 469.262C309.638 466.841 305.04 463.31 301.361 458.918C300.955 458.474 300.643 457.953 300.444 457.385C300.246 456.817 300.164 456.215 300.204 455.615C300.245 455.015 300.407 454.429 300.68 453.893C300.953 453.357 301.333 452.882 301.795 452.497C302.257 452.112 302.792 451.824 303.368 451.652C303.945 451.48 304.55 451.426 305.148 451.494C305.745 451.562 306.323 451.751 306.846 452.049C307.368 452.347 307.825 452.747 308.189 453.227C312.108 457.936 317.371 461.337 323.275 462.974C329.179 464.611 335.442 464.406 341.227 462.387C347.011 460.367 352.041 456.63 355.644 451.674C359.246 446.718 361.25 440.781 361.386 434.655C361.414 433.494 361.895 432.389 362.726 431.578C363.557 430.766 364.673 430.312 365.835 430.313H365.941C367.119 430.34 368.238 430.835 369.053 431.687C369.867 432.539 370.31 433.679 370.284 434.857C370.076 442.786 367.467 450.465 362.801 456.879C358.135 463.293 351.632 468.14 344.153 470.779C340.057 472.208 335.749 472.937 331.411 472.934Z" fill="white"/>
<path d="M286.432 467.232C281.945 467.23 277.508 466.282 273.411 464.452C269.315 462.621 265.649 459.949 262.653 456.608C259.658 453.267 257.399 449.333 256.025 445.061C254.65 440.79 254.191 436.277 254.676 431.816C255.161 427.355 256.58 423.046 258.84 419.17C261.101 415.294 264.152 411.937 267.796 409.318C271.439 406.7 275.594 404.877 279.988 403.97C284.383 403.063 288.919 403.091 293.302 404.054C293.891 404.159 294.454 404.382 294.955 404.709C295.457 405.037 295.887 405.462 296.22 405.96C296.553 406.458 296.782 407.018 296.893 407.606C297.005 408.195 296.996 408.8 296.868 409.385C296.74 409.97 296.495 410.523 296.148 411.011C295.801 411.499 295.359 411.913 294.849 412.226C294.338 412.539 293.77 412.746 293.177 412.834C292.585 412.922 291.981 412.89 291.401 412.739C287.55 411.897 283.547 412.055 279.775 413.198C276.002 414.341 272.584 416.431 269.849 419.269C267.113 422.107 265.149 425.599 264.145 429.411C263.141 433.223 263.13 437.229 264.113 441.047C265.096 444.864 267.041 448.367 269.761 451.22C272.482 454.073 275.887 456.182 279.654 457.345C283.42 458.509 287.422 458.689 291.278 457.867C295.133 457.046 298.714 455.251 301.68 452.653C302.572 451.917 303.716 451.558 304.869 451.652C306.022 451.746 307.093 452.284 307.855 453.154C308.618 454.024 309.011 455.157 308.952 456.312C308.894 457.468 308.387 458.554 307.541 459.343C301.694 464.446 294.192 467.249 286.432 467.232V467.232Z" fill="white"/>
<path d="M259.164 357.386C258.929 357.384 258.695 357.366 258.463 357.333C257.299 357.148 256.256 356.508 255.563 355.555C254.87 354.601 254.584 353.411 254.768 352.247C255.978 344.575 258.814 337.251 263.085 330.765C267.357 324.278 272.965 318.78 279.535 314.637C286.104 310.495 293.483 307.804 301.177 306.746C308.872 305.687 316.703 306.285 324.147 308.5C324.75 308.625 325.321 308.875 325.823 309.232C326.325 309.59 326.747 310.048 327.063 310.577C327.379 311.106 327.581 311.695 327.657 312.307C327.733 312.918 327.682 313.539 327.505 314.13C327.329 314.72 327.032 315.268 326.633 315.737C326.233 316.207 325.741 316.588 325.187 316.858C324.633 317.127 324.028 317.278 323.412 317.302C322.797 317.326 322.183 317.221 321.609 316.995C315.38 315.149 308.829 314.654 302.394 315.543C295.959 316.432 289.787 318.684 284.291 322.148C278.796 325.612 274.102 330.21 270.525 335.633C266.948 341.056 264.57 347.18 263.549 353.596C263.394 354.648 262.865 355.61 262.061 356.306C261.256 357.002 260.228 357.385 259.164 357.386Z" fill="white"/>
<path d="M356.247 244.748C355.627 244.749 355.014 244.619 354.447 244.369C353.88 244.118 353.372 243.752 352.955 243.294C347.981 237.842 341.944 233.464 335.217 230.429C328.489 227.395 321.213 225.767 313.833 225.647C306.454 225.527 299.128 226.916 292.305 229.73C285.482 232.543 279.307 236.722 274.157 242.009C273.757 242.455 273.271 242.816 272.727 243.07C272.184 243.324 271.595 243.466 270.996 243.486C270.396 243.506 269.799 243.405 269.24 243.189C268.68 242.973 268.171 242.646 267.741 242.228C267.311 241.809 266.97 241.309 266.739 240.755C266.508 240.202 266.391 239.608 266.395 239.008C266.399 238.408 266.525 237.816 266.764 237.266C267.003 236.716 267.351 236.22 267.786 235.808C273.778 229.652 280.966 224.787 288.907 221.511C296.848 218.235 305.375 216.617 313.964 216.758C322.553 216.898 331.023 218.793 338.853 222.326C346.683 225.86 353.708 230.957 359.496 237.305C360.073 237.943 360.452 238.735 360.588 239.584C360.725 240.433 360.612 241.304 360.264 242.09C359.915 242.877 359.346 243.545 358.626 244.015C357.906 244.485 357.064 244.736 356.204 244.738L356.247 244.748Z" fill="white"/>
<path d="M259.175 275.934C258.032 275.93 256.934 275.487 256.108 274.696C255.282 273.906 254.791 272.829 254.736 271.687C254.408 265.157 255.383 258.628 257.603 252.479C259.823 246.33 263.245 240.685 267.669 235.871C268.474 235.025 269.58 234.529 270.748 234.49C271.915 234.452 273.051 234.874 273.91 235.666C274.769 236.458 275.281 237.556 275.338 238.723C275.394 239.89 274.989 241.032 274.21 241.903C270.584 245.841 267.778 250.461 265.955 255.494C264.132 260.527 263.329 265.873 263.592 271.219C263.623 271.806 263.538 272.393 263.341 272.946C263.144 273.499 262.839 274.008 262.444 274.442C262.049 274.877 261.572 275.229 261.04 275.478C260.508 275.726 259.932 275.867 259.345 275.891L259.175 275.934Z" fill="white"/>
<path d="M357.489 153.793C356.366 153.794 355.285 153.369 354.463 152.604C350.436 148.865 347.475 144.125 345.881 138.867C344.288 133.609 344.119 128.022 345.392 122.677C346.665 117.332 349.335 112.421 353.128 108.447C356.921 104.472 361.702 101.576 366.981 100.054C368.061 99.866 369.172 100.083 370.101 100.663C371.03 101.243 371.713 102.146 372.018 103.198C372.323 104.25 372.23 105.378 371.755 106.365C371.28 107.353 370.457 108.13 369.445 108.549C365.671 109.635 362.255 111.706 359.545 114.548C356.836 117.391 354.931 120.903 354.026 124.724C353.122 128.545 353.25 132.538 354.398 136.294C355.545 140.049 357.671 143.432 360.557 146.095C361.214 146.701 361.672 147.492 361.872 148.364C362.071 149.235 362.003 150.146 361.676 150.978C361.349 151.81 360.778 152.524 360.039 153.026C359.299 153.529 358.425 153.796 357.531 153.793H357.489Z" fill="white"/>
<path d="M314.283 225.625H313.837C312.657 225.617 311.529 225.14 310.701 224.3C309.872 223.459 309.412 222.324 309.42 221.144C309.428 219.964 309.905 218.836 310.746 218.008C311.586 217.179 312.721 216.719 313.901 216.727H314.273C318.195 216.738 322.049 215.698 325.433 213.715C328.817 211.731 331.608 208.877 333.515 205.449C335.422 202.021 336.375 198.145 336.276 194.224C336.176 190.302 335.028 186.479 332.95 183.152C332.641 182.657 332.433 182.106 332.337 181.531C332.241 180.955 332.259 180.367 332.391 179.798C332.523 179.23 332.765 178.693 333.104 178.218C333.443 177.743 333.873 177.34 334.368 177.031C334.863 176.722 335.414 176.514 335.989 176.418C336.565 176.322 337.153 176.34 337.722 176.472C338.29 176.604 338.827 176.846 339.302 177.185C339.777 177.524 340.18 177.953 340.489 178.449C343.421 183.114 345.047 188.48 345.198 193.988C345.349 199.496 344.02 204.943 341.348 209.762C338.677 214.581 334.761 218.595 330.01 221.385C325.259 224.175 319.846 225.64 314.336 225.625H314.283Z" fill="white"/>
<path d="M258.93 439.837C258.345 439.836 257.767 439.719 257.227 439.493C256.688 439.268 256.198 438.938 255.787 438.522C255.376 438.107 255.05 437.614 254.83 437.073C254.609 436.531 254.498 435.952 254.502 435.367L254.874 353.054C254.882 351.879 255.354 350.755 256.187 349.925C257.02 349.096 258.147 348.629 259.323 348.627V348.627C259.907 348.629 260.485 348.747 261.024 348.973C261.562 349.2 262.051 349.53 262.462 349.945C262.874 350.36 263.199 350.852 263.42 351.393C263.641 351.934 263.753 352.513 263.751 353.097L263.368 435.409C263.365 436.585 262.897 437.711 262.065 438.541C261.232 439.371 260.105 439.837 258.93 439.837V439.837Z" fill="white"/>
<path d="M259.302 275.966C258.122 275.963 256.992 275.494 256.159 274.66C255.325 273.826 254.855 272.696 254.853 271.517V79.4439C254.853 78.264 255.321 77.1323 256.156 76.298C256.99 75.4636 258.122 74.9949 259.302 74.9949C260.482 74.9949 261.613 75.4636 262.448 76.298C263.282 77.1323 263.751 78.264 263.751 79.4439V271.496C263.753 272.082 263.64 272.663 263.418 273.205C263.196 273.747 262.868 274.24 262.455 274.655C262.042 275.071 261.55 275.4 261.009 275.625C260.468 275.85 259.888 275.966 259.302 275.966V275.966Z" fill="white"/>
<path d="M259.207 83.893C253.293 83.893 247.512 82.1394 242.595 78.8538C237.677 75.5683 233.845 70.8984 231.582 65.4347C229.319 59.971 228.726 53.9589 229.88 48.1587C231.034 42.3585 233.882 37.0307 238.063 32.849C242.245 28.6673 247.573 25.8195 253.373 24.6657C259.173 23.512 265.185 24.1041 270.649 26.3673C276.113 28.6304 280.783 32.4629 284.068 37.3801C287.354 42.2972 289.108 48.0783 289.108 53.9921C289.096 61.9189 285.942 69.5178 280.337 75.1228C274.732 80.7279 267.133 83.8818 259.207 83.893ZM259.207 32.9893C255.053 32.9914 250.993 34.2249 247.541 36.534C244.088 38.8431 241.398 42.1241 239.81 45.962C238.222 49.8 237.808 54.0226 238.619 58.0961C239.431 62.1695 241.432 65.9109 244.37 68.8471C247.307 71.7834 251.05 73.7826 255.124 74.5922C259.198 75.4017 263.42 74.9852 267.257 73.3952C271.094 71.8052 274.374 69.1132 276.681 65.6596C278.989 62.2059 280.22 58.1456 280.22 53.9921C280.214 48.4217 277.998 43.0812 274.058 39.1433C270.119 35.2054 264.777 32.9921 259.207 32.9893V32.9893Z" fill="white"/>
<path d="M169.228 423.187C168.049 423.184 166.919 422.715 166.085 421.881C165.251 421.047 164.782 419.917 164.779 418.738V359.701C164.78 359.108 164.899 358.521 165.128 357.974C165.358 357.427 165.694 356.931 166.117 356.515L256.191 268.384C256.609 267.976 257.104 267.653 257.647 267.436C258.19 267.219 258.77 267.11 259.355 267.117C259.939 267.124 260.517 267.246 261.055 267.476C261.592 267.706 262.079 268.04 262.488 268.458C262.896 268.877 263.218 269.371 263.436 269.914C263.653 270.457 263.762 271.037 263.755 271.622C263.748 272.207 263.626 272.784 263.396 273.322C263.165 273.86 262.832 274.347 262.413 274.755L173.677 361.57V418.738C173.674 419.917 173.204 421.047 172.371 421.881C171.537 422.715 170.407 423.184 169.228 423.187Z" fill="white"/>
<path d="M169.132 474.091C163.218 474.091 157.437 472.338 152.52 469.052C147.603 465.767 143.77 461.097 141.507 455.633C139.244 450.169 138.652 444.157 139.806 438.357C140.959 432.557 143.807 427.229 147.989 423.047C152.17 418.865 157.498 416.018 163.299 414.864C169.099 413.71 175.111 414.302 180.574 416.566C186.038 418.829 190.708 422.661 193.994 427.578C197.279 432.495 199.033 438.277 199.033 444.19C199.022 452.117 195.868 459.716 190.263 465.321C184.658 470.926 177.059 474.08 169.132 474.091V474.091ZM169.132 423.187C164.978 423.187 160.917 424.419 157.463 426.727C154.009 429.035 151.317 432.315 149.728 436.153C148.138 439.991 147.722 444.214 148.533 448.288C149.343 452.362 151.343 456.104 154.281 459.042C157.218 461.979 160.96 463.979 165.034 464.79C169.109 465.6 173.332 465.184 177.169 463.594C181.007 462.005 184.287 459.313 186.595 455.859C188.903 452.405 190.135 448.344 190.135 444.19C190.129 438.622 187.914 433.283 183.977 429.345C180.039 425.408 174.7 423.193 169.132 423.187V423.187Z" fill="white"/>
<path d="M169.228 364.14H114.544C113.942 364.169 113.34 364.076 112.776 363.866C112.211 363.656 111.695 363.333 111.258 362.918C110.822 362.502 110.475 362.002 110.237 361.449C110 360.895 109.877 360.298 109.877 359.696C109.877 359.093 110 358.497 110.237 357.943C110.475 357.389 110.822 356.89 111.258 356.474C111.695 356.058 112.211 355.736 112.776 355.526C113.34 355.316 113.942 355.223 114.544 355.252H169.228C169.829 355.223 170.431 355.316 170.996 355.526C171.56 355.736 172.077 356.058 172.513 356.474C172.949 356.89 173.297 357.389 173.534 357.943C173.772 358.497 173.894 359.093 173.894 359.696C173.894 360.298 173.772 360.895 173.534 361.449C173.297 362.002 172.949 362.502 172.513 362.918C172.077 363.333 171.56 363.656 170.996 363.866C170.431 364.076 169.829 364.169 169.228 364.14V364.14Z" fill="white"/>
<path d="M88.9009 391.588C82.9871 391.588 77.206 389.834 72.2889 386.549C67.3717 383.263 63.5392 378.593 61.2761 373.129C59.013 367.666 58.4208 361.654 59.5746 355.853C60.7283 350.053 63.5761 344.725 67.7578 340.544C71.9395 336.362 77.2673 333.514 83.0675 332.36C88.8678 331.207 94.8798 331.799 100.344 334.062C105.807 336.325 110.477 340.158 113.763 345.075C117.048 349.992 118.802 355.773 118.802 361.687C118.791 369.614 115.637 377.212 110.032 382.818C104.427 388.423 96.8277 391.576 88.9009 391.588V391.588ZM88.9009 340.684C84.747 340.684 80.6863 341.916 77.2324 344.224C73.7785 346.531 71.0865 349.812 69.4968 353.649C67.9072 357.487 67.4912 361.71 68.3016 365.784C69.112 369.858 71.1124 373.601 74.0497 376.538C76.987 379.475 80.7293 381.476 84.8035 382.286C88.8776 383.096 93.1006 382.681 96.9384 381.091C100.776 379.501 104.056 376.809 106.364 373.355C108.672 369.901 109.904 365.841 109.904 361.687C109.898 356.118 107.684 350.779 103.746 346.842C99.8084 342.904 94.4695 340.69 88.9009 340.684V340.684Z" fill="white"/>
<path d="M259.302 180.02H168.473C167.293 180.02 166.162 179.551 165.328 178.717C164.493 177.882 164.024 176.751 164.024 175.571C164.024 174.391 164.493 173.259 165.328 172.425C166.162 171.59 167.293 171.122 168.473 171.122H259.302C260.482 171.122 261.613 171.59 262.448 172.425C263.282 173.259 263.751 174.391 263.751 175.571C263.751 176.751 263.282 177.882 262.448 178.717C261.613 179.551 260.482 180.02 259.302 180.02V180.02Z" fill="white"/>
<path d="M143.022 207.648C137.108 207.648 131.327 205.895 126.41 202.609C121.493 199.324 117.66 194.654 115.397 189.19C113.134 183.726 112.542 177.714 113.696 171.914C114.849 166.114 117.697 160.786 121.879 156.604C126.061 152.423 131.388 149.575 137.189 148.421C142.989 147.267 149.001 147.859 154.465 150.123C159.928 152.386 164.598 156.218 167.884 161.135C171.169 166.052 172.923 171.834 172.923 177.747C172.915 185.675 169.762 193.276 164.156 198.881C158.55 204.487 150.95 207.64 143.022 207.648ZM143.022 156.745C138.868 156.745 134.807 157.976 131.353 160.284C127.9 162.592 125.208 165.872 123.618 169.71C122.028 173.548 121.612 177.771 122.423 181.845C123.233 185.919 125.233 189.661 128.171 192.599C131.108 195.536 134.85 197.536 138.925 198.347C142.999 199.157 147.222 198.741 151.059 197.151C154.897 195.562 158.177 192.87 160.485 189.416C162.793 185.962 164.025 181.901 164.025 177.747C164.019 172.179 161.805 166.84 157.867 162.902C153.929 158.965 148.591 156.75 143.022 156.745V156.745Z" fill="white"/>
</svg>
