<svg width="303" height="274" viewBox="0 0 303 274" fill="none" xmlns="http://www.w3.org/2000/svg">
<g opacity="0.18">
<path d="M42.2428 53.3986C42.2428 53.5361 42.2428 53.6631 42.2428 53.8007C42.1346 54.6335 41.7008 55.3895 41.0364 55.9032C40.372 56.4169 39.5311 56.6464 38.6978 56.5414C34.7465 56.0346 30.7312 56.5503 27.0361 58.0391C23.341 59.528 20.0898 61.9401 17.5935 65.0448C15.0973 68.1494 13.4395 71.8427 12.7788 75.7713C12.1181 79.6999 12.4766 83.7323 13.82 87.4827C14.0053 87.8833 14.105 88.3182 14.1127 88.7596C14.1205 89.201 14.0361 89.6391 13.8649 90.0461C13.6938 90.453 13.4397 90.8197 13.1188 91.1229C12.7979 91.4261 12.4173 91.659 12.0013 91.8067C11.5854 91.9545 11.1431 92.0139 10.7029 91.9811C10.2627 91.9483 9.83413 91.8241 9.44463 91.6163C9.05513 91.4086 8.71324 91.1219 8.4408 90.7745C8.16836 90.4272 7.97136 90.0268 7.86238 89.599C6.15682 84.8308 5.70183 79.7051 6.54084 74.711C7.37986 69.717 9.48487 65.0213 12.655 61.0722C15.825 57.1231 19.9544 54.0525 24.6488 52.1533C29.3433 50.2542 34.4461 49.59 39.4703 50.224C40.2408 50.3224 40.9485 50.6998 41.4594 51.2848C41.9703 51.8698 42.249 52.6219 42.2428 53.3986Z" fill="#10182E"/>
<path d="M55.6604 27.6529C55.6618 28.2095 55.5169 28.7567 55.2402 29.2395C54.9634 29.7224 54.5646 30.1241 54.0837 30.4042C50.1809 32.6701 47.0031 35.9995 44.9215 40.0036C42.8398 44.0077 41.94 48.5213 42.3273 53.0176C42.4017 53.8595 42.1385 54.6965 41.5958 55.3445C41.053 55.9924 40.2751 56.3982 39.4332 56.4726C39.0163 56.5094 38.5962 56.4637 38.197 56.3382C37.7977 56.2127 37.4271 56.0098 37.1063 55.741C36.4583 55.1983 36.0526 54.4204 35.9782 53.5784C35.4885 47.8771 36.6327 42.1543 39.2769 37.0796C41.9211 32.0048 45.9559 27.7881 50.9092 24.9228C51.3901 24.6476 51.9346 24.5031 52.4887 24.5035C53.0428 24.504 53.5871 24.6495 54.0676 24.9256C54.548 25.2016 54.9478 25.5986 55.2272 26.0771C55.5067 26.5556 55.656 27.0989 55.6604 27.6529Z" fill="#10182E"/>
<path d="M107.3 18.013C107.298 18.6545 107.103 19.2805 106.738 19.8085C106.374 20.3365 105.858 20.7418 105.259 20.971C104.66 21.2001 104.005 21.2423 103.382 21.0921C102.758 20.9418 102.195 20.6062 101.765 20.1293C98.9659 16.9597 95.2213 14.7743 91.0846 13.8959C86.9479 13.0175 82.6383 13.4926 78.7923 15.2511C78.0365 15.537 77.2001 15.5239 76.4537 15.2145C75.7072 14.9051 75.1068 14.3227 74.7748 13.5859C74.4429 12.8492 74.4044 12.0136 74.6672 11.2495C74.93 10.4853 75.4743 9.85015 76.1892 9.47343C81.2652 7.15268 86.953 6.52626 92.4124 7.68674C97.8717 8.84721 102.813 11.733 106.506 15.9178C107.017 16.4965 107.299 17.2413 107.3 18.013Z" fill="#10182E"/>
<path d="M80.6333 12.3305C80.6322 12.872 80.4925 13.4042 80.2277 13.8765C79.9628 14.3488 79.5815 14.7455 79.1201 15.0289L54.1999 30.3831C53.8465 30.6425 53.4432 30.8259 53.0154 30.9217C52.5877 31.0175 52.1447 31.0237 51.7144 30.9399C51.2841 30.856 50.8758 30.684 50.5153 30.4345C50.1548 30.1851 49.8499 29.8637 49.6197 29.4906C49.3896 29.1175 49.2392 28.7008 49.178 28.2667C49.1169 27.8326 49.1463 27.3906 49.2644 26.9684C49.3826 26.5463 49.5868 26.1531 49.8644 25.8138C50.142 25.4745 50.4868 25.1964 50.8772 24.9969L75.808 9.6427C76.2876 9.3507 76.8361 9.19114 77.3975 9.18028C77.9589 9.16943 78.5131 9.30767 79.0037 9.58091C79.4942 9.85414 79.9035 10.2526 80.1898 10.7356C80.4761 11.2187 80.6291 11.769 80.6333 12.3305Z" fill="#10182E"/>
<path d="M158.43 10.775C158.433 11.4411 158.222 12.0904 157.827 12.6269C157.333 13.3059 156.591 13.7617 155.762 13.8946C154.933 14.0275 154.085 13.8266 153.404 13.3358C146.259 8.13381 137.368 5.92228 128.618 7.17104C119.869 8.4198 111.951 13.0304 106.547 20.0236C106.315 20.4087 106.005 20.7403 105.635 20.9963C105.265 21.2522 104.846 21.4268 104.404 21.5084C103.961 21.59 103.507 21.5768 103.071 21.4696C102.634 21.3624 102.225 21.1637 101.871 20.8867C101.517 20.6096 101.226 20.2605 101.017 19.8625C100.808 19.4645 100.686 19.0266 100.659 18.5779C100.632 18.1292 100.7 17.6798 100.86 17.2595C101.019 16.8392 101.266 16.4577 101.584 16.14C107.993 7.84457 117.384 2.37484 127.762 0.892905C138.139 -0.589032 148.686 2.03361 157.16 8.20365C157.559 8.50255 157.881 8.89107 158.102 9.33778C158.323 9.78449 158.435 10.2768 158.43 10.775Z" fill="#10182E"/>
<path d="M241.498 71.1125C241.5 74.5072 241.019 77.8849 240.07 81.1441C239.795 81.9027 239.243 82.5284 238.524 82.8941C237.805 83.2599 236.974 83.3382 236.199 83.1133C235.424 82.8883 234.764 82.3769 234.353 81.6829C233.942 80.9889 233.81 80.1644 233.985 79.377C235.198 75.2032 235.474 70.8131 234.793 66.5204C234.112 62.2276 232.492 58.1382 230.047 54.5444C227.603 50.9505 224.395 47.941 220.653 45.7307C216.91 43.5205 212.726 42.1641 208.398 41.7585C207.981 41.7203 207.576 41.6004 207.206 41.4055C206.835 41.2107 206.507 40.9448 206.239 40.623C205.971 40.3011 205.769 39.9298 205.645 39.53C205.521 39.1302 205.477 38.7099 205.515 38.293C205.553 37.8761 205.673 37.4708 205.868 37.1003C206.063 36.7297 206.329 36.4012 206.65 36.1335C206.972 35.8657 207.344 35.6639 207.743 35.5397C208.143 35.4155 208.563 35.3712 208.98 35.4094C217.865 36.2391 226.121 40.3523 232.135 46.945C238.148 53.5378 241.487 62.1362 241.498 71.0596V71.1125Z" fill="#10182E"/>
<path d="M248.991 31.7164C249.007 36.7489 247.825 41.7129 245.541 46.1974C243.257 50.6819 239.938 54.5578 235.859 57.5044C235.52 57.753 235.135 57.9319 234.727 58.0307C234.318 58.1295 233.894 58.1463 233.48 58.08C233.065 58.0138 232.667 57.8658 232.31 57.6446C231.952 57.4235 231.642 57.1337 231.398 56.7919C231.154 56.4501 230.979 56.0632 230.886 55.6536C230.792 55.244 230.78 54.8199 230.852 54.4058C230.923 53.9917 231.076 53.5959 231.302 53.2414C231.527 52.8868 231.821 52.5806 232.166 52.3404C237.551 48.4466 241.195 42.597 242.317 36.0469C243.439 29.4967 241.948 22.7678 238.166 17.304C237.898 16.963 237.703 16.571 237.593 16.1519C237.483 15.7329 237.46 15.2958 237.525 14.8674C237.59 14.4391 237.742 14.0286 237.972 13.6613C238.202 13.294 238.505 12.9776 238.861 12.7316C239.218 12.4856 239.621 12.3153 240.046 12.231C240.471 12.1468 240.909 12.1504 241.332 12.2417C241.756 12.333 242.156 12.51 242.509 12.7619C242.861 13.0137 243.159 13.3351 243.382 13.7061C247.051 18.9943 249.008 25.2806 248.991 31.7164Z" fill="#10182E"/>
<path d="M263.763 35.3354C263.761 35.9769 263.565 36.6029 263.201 37.131C262.837 37.659 262.321 38.0643 261.722 38.2934C261.123 38.5225 260.468 38.5648 259.845 38.4145C259.221 38.2643 258.657 37.9286 258.228 37.4518C257.592 36.7369 256.802 36.1752 255.918 35.8087C255.033 35.4422 254.078 35.2803 253.122 35.3353C252.166 35.3902 251.235 35.6606 250.399 36.126C249.563 36.5915 248.842 37.2401 248.292 38.0232C248.07 38.4008 247.772 38.7284 247.417 38.9853C247.063 39.2422 246.658 39.4229 246.23 39.516C245.802 39.6092 245.36 39.6127 244.93 39.5264C244.501 39.4402 244.094 39.266 243.735 39.0148C243.376 38.7636 243.073 38.4408 242.845 38.0668C242.617 37.6928 242.469 37.2757 242.41 36.8416C242.351 36.4076 242.382 35.966 242.502 35.5447C242.622 35.1234 242.828 34.7315 243.107 34.3936C244.208 32.8311 245.648 31.5373 247.319 30.6088C248.989 29.6803 250.848 29.141 252.757 29.0311C254.665 28.9213 256.574 29.2437 258.34 29.9743C260.107 30.7049 261.685 31.8249 262.958 33.2508C263.47 33.8252 263.756 34.566 263.763 35.3354Z" fill="#10182E"/>
<path d="M277.636 55.1024C277.624 55.8503 277.349 56.5702 276.859 57.1351C276.368 57.7 275.694 58.0736 274.955 58.19C274.217 58.3064 273.46 58.1581 272.82 57.7713C272.18 57.3846 271.697 56.7841 271.456 56.0759C269.138 48.8524 264.717 42.4853 258.758 37.7905C258.393 37.5474 258.084 37.2316 257.847 36.863C257.611 36.4944 257.454 36.0809 257.385 35.6486C257.316 35.2162 257.338 34.7743 257.448 34.3506C257.558 33.9269 257.755 33.5306 258.026 33.1866C258.297 32.8426 258.636 32.5583 259.022 32.3517C259.408 32.145 259.832 32.0204 260.269 31.9857C260.705 31.951 261.144 32.0069 261.558 32.15C261.971 32.2931 262.351 32.5202 262.673 32.817C269.631 38.2843 274.791 45.7112 277.487 54.1394C277.588 54.4504 277.638 54.7755 277.636 55.1024Z" fill="#10182E"/>
<path d="M301.582 79.557C301.583 83.6359 300.69 87.6654 298.966 91.3621C297.242 95.0587 294.729 98.3327 291.603 100.953C291.289 101.254 290.916 101.487 290.507 101.638C290.099 101.789 289.664 101.854 289.229 101.829C288.795 101.805 288.37 101.691 287.981 101.495C287.592 101.299 287.248 101.025 286.969 100.691C286.691 100.356 286.484 99.9681 286.362 99.5503C286.24 99.1325 286.205 98.694 286.259 98.2621C286.314 97.8302 286.457 97.4141 286.679 97.0397C286.901 96.6653 287.198 96.3406 287.551 96.0858C290.897 93.2924 293.312 89.5448 294.473 85.3431C295.634 81.1414 295.486 76.6856 294.049 72.5702C292.611 68.4549 289.953 64.8758 286.429 62.3106C282.904 59.7454 278.681 58.3161 274.323 58.2134C273.496 58.1914 272.71 57.8472 272.133 57.2542C271.556 56.6613 271.233 55.8664 271.233 55.0389V54.9648C271.256 54.1265 271.609 53.3311 272.215 52.7521C272.822 52.1732 273.633 51.8579 274.471 51.8749C280.114 52.0207 285.58 53.8763 290.145 57.1962C294.71 60.5162 298.16 65.1439 300.037 70.4672C301.06 73.3887 301.582 76.4617 301.582 79.557Z" fill="#10182E"/>
<path d="M297.509 111.599C297.5 114.789 296.821 117.942 295.515 120.852C294.21 123.763 292.306 126.366 289.929 128.493C287.552 130.621 284.754 132.224 281.717 133.2C278.679 134.176 275.471 134.502 272.3 134.157C269.128 133.812 266.065 132.805 263.308 131.199C260.552 129.594 258.163 127.427 256.299 124.838C254.434 122.25 253.134 119.299 252.484 116.175C251.834 113.052 251.848 109.827 252.525 106.71C252.591 106.282 252.745 105.871 252.975 105.504C253.206 105.137 253.51 104.822 253.867 104.576C254.225 104.331 254.629 104.162 255.054 104.079C255.48 103.996 255.918 104.001 256.341 104.093C256.765 104.186 257.165 104.364 257.517 104.618C257.868 104.871 258.165 105.193 258.387 105.565C258.61 105.938 258.754 106.351 258.81 106.781C258.867 107.211 258.834 107.648 258.716 108.065C258.116 110.806 258.229 113.656 259.043 116.342C259.857 119.028 261.346 121.46 263.367 123.408C265.388 125.355 267.874 126.753 270.588 127.467C273.302 128.181 276.154 128.189 278.871 127.488C281.589 126.788 284.082 125.403 286.113 123.466C288.144 121.529 289.645 119.104 290.472 116.422C291.3 113.74 291.428 110.891 290.842 108.146C290.257 105.402 288.978 102.852 287.128 100.742C286.635 100.102 286.404 99.2976 286.483 98.4934C286.563 97.6891 286.945 96.9454 287.554 96.4137C288.163 95.882 288.951 95.6025 289.759 95.632C290.566 95.6616 291.332 95.998 291.9 96.5727C295.53 100.736 297.523 106.076 297.509 111.599Z" fill="#10182E"/>
<path d="M219.297 130.995C219.308 131.161 219.308 131.327 219.297 131.493C219.165 132.321 218.709 133.063 218.031 133.557C217.353 134.05 216.507 134.256 215.678 134.128C210.216 133.267 205 131.249 200.382 128.208C195.763 125.167 191.848 121.174 188.899 116.496C185.95 111.818 184.035 106.564 183.282 101.086C182.53 95.6072 182.957 90.0312 184.536 84.7316C184.624 84.3 184.8 83.8915 185.054 83.5318C185.309 83.1722 185.635 82.8694 186.012 82.6427C186.39 82.4159 186.81 82.2702 187.247 82.2147C187.684 82.1593 188.128 82.1953 188.55 82.3206C188.972 82.4458 189.364 82.6575 189.7 82.9423C190.035 83.227 190.308 83.5785 190.501 83.9744C190.694 84.3704 190.802 84.8021 190.819 85.2421C190.836 85.6822 190.761 86.1209 190.599 86.5305C189.279 90.966 188.922 95.6325 189.552 100.217C190.182 104.802 191.785 109.199 194.253 113.114C196.721 117.029 199.997 120.371 203.862 122.917C207.727 125.462 212.091 127.152 216.662 127.874C217.399 128.001 218.067 128.383 218.549 128.954C219.031 129.525 219.296 130.248 219.297 130.995Z" fill="#10182E"/>
<path d="M139.108 61.864C139.104 62.306 139.008 62.7424 138.826 63.1451C138.644 63.5478 138.379 63.908 138.05 64.2026C134.169 67.743 131.053 72.0394 128.894 76.8279C126.734 81.6163 125.576 86.7958 125.491 92.0481C125.405 97.3004 126.395 102.515 128.398 107.371C130.401 112.227 133.376 116.622 137.14 120.286C137.67 120.886 137.954 121.664 137.935 122.464C137.916 123.264 137.595 124.027 137.037 124.601C136.48 125.175 135.726 125.517 134.926 125.559C134.127 125.6 133.342 125.339 132.727 124.826C128.341 120.56 124.873 115.441 122.538 109.785C120.203 104.129 119.05 98.0549 119.149 91.9366C119.248 85.8183 120.598 79.7849 123.115 74.2075C125.632 68.63 129.263 63.6264 133.785 59.5043C134.24 59.0973 134.803 58.8301 135.406 58.7347C136.009 58.6394 136.627 58.72 137.185 58.9668C137.744 59.2136 138.219 59.6162 138.555 60.1263C138.89 60.6364 139.071 61.2324 139.076 61.8429L139.108 61.864Z" fill="#10182E"/>
<path d="M161.309 130.984C161.31 131.796 161.001 132.577 160.444 133.168C159.887 133.758 159.125 134.113 158.314 134.159C153.665 134.392 149.015 133.697 144.637 132.114C140.258 130.532 136.239 128.094 132.812 124.942C132.466 124.672 132.181 124.332 131.973 123.946C131.765 123.559 131.639 123.134 131.604 122.696C131.569 122.259 131.625 121.819 131.768 121.404C131.912 120.989 132.14 120.609 132.438 120.286C132.736 119.964 133.097 119.707 133.5 119.532C133.902 119.356 134.336 119.266 134.775 119.267C135.214 119.268 135.648 119.36 136.05 119.537C136.451 119.715 136.812 119.973 137.108 120.297C139.914 122.873 143.203 124.866 146.785 126.159C150.368 127.453 154.172 128.021 157.976 127.831C158.815 127.788 159.636 128.079 160.261 128.64C160.886 129.201 161.263 129.987 161.309 130.826V130.984Z" fill="#10182E"/>
<path d="M74.3582 60.9859C74.3477 61.7718 74.0461 62.5259 73.5117 63.1023C70.8496 65.9683 67.4744 68.0763 63.7309 69.2108C59.9873 70.3453 56.0098 70.4656 52.2045 69.5595C48.3993 68.6534 44.9028 66.7533 42.0724 64.0534C39.2419 61.3535 37.1789 57.9506 36.0943 54.1924C35.9439 53.7832 35.8794 53.3475 35.9048 52.9123C35.9302 52.4772 36.0449 52.0519 36.2419 51.663C36.4388 51.2742 36.7137 50.93 37.0495 50.652C37.3852 50.374 37.7746 50.1682 38.1934 50.0473C38.6122 49.9264 39.0515 49.893 39.4837 49.9493C39.916 50.0055 40.332 50.1502 40.7059 50.3743C41.0798 50.5984 41.4035 50.8971 41.6569 51.2517C41.9103 51.6064 42.088 52.0095 42.1788 52.4358C42.9525 55.1164 44.4241 57.5434 46.4431 59.4689C48.4622 61.3944 50.9563 62.7493 53.6705 63.395C56.3847 64.0408 59.2218 63.9542 61.8916 63.1442C64.5614 62.3342 66.9683 60.8299 68.8662 58.7849C69.4483 58.1808 70.2459 57.8317 71.0846 57.8138C71.9234 57.796 72.7351 58.1109 73.3423 58.6897C73.6589 58.9832 73.9123 59.3383 74.0869 59.7331C74.2616 60.1279 74.3539 60.5542 74.3582 60.9859Z" fill="#10182E"/>
<path d="M125.49 91.7575V92.0644C125.49 92.9063 125.155 93.7138 124.56 94.3091C123.965 94.9045 123.157 95.2389 122.315 95.2389C121.473 95.2389 120.666 94.9045 120.07 94.3091C119.475 93.7138 119.141 92.9063 119.141 92.0644V91.7998C119.152 89.0058 118.413 86.26 117.002 83.8487C115.59 81.4373 113.558 79.4487 111.116 78.0902C108.675 76.7316 105.914 76.0529 103.12 76.1247C100.327 76.1965 97.6047 77.0162 95.2362 78.4985C94.5258 78.8815 93.6961 78.9795 92.916 78.7726C92.1359 78.5657 91.4638 78.0695 91.0365 77.3847C90.6092 76.7 90.4588 75.8782 90.6158 75.0866C90.7728 74.2949 91.2255 73.5927 91.8818 73.1229C95.2064 71.047 99.0261 69.8988 102.944 69.7976C106.863 69.6964 110.736 70.6459 114.164 72.5475C117.591 74.449 120.447 77.2334 122.435 80.6114C124.423 83.9894 125.47 87.838 125.469 91.7575H125.49Z" fill="#10182E"/>
<path d="M278.006 131.164C278.006 132.006 277.672 132.814 277.077 133.409C276.481 134.005 275.674 134.339 274.832 134.339L216.23 134.074C215.388 134.074 214.58 133.74 213.985 133.145C213.39 132.549 213.055 131.742 213.055 130.9C213.055 130.058 213.39 129.25 213.985 128.655C214.58 128.06 215.388 127.725 216.23 127.725L274.832 128C275.672 128 276.478 128.333 277.073 128.927C277.668 129.52 278.004 130.324 278.006 131.164Z" fill="#10182E"/>
<path d="M161.33 130.889C161.33 131.731 160.996 132.539 160.4 133.134C159.805 133.729 158.998 134.064 158.156 134.064H21.4172C20.5753 134.064 19.7678 133.729 19.1725 133.134C18.5771 132.539 18.2427 131.731 18.2427 130.889C18.2427 130.047 18.5771 129.24 19.1725 128.645C19.7678 128.049 20.5753 127.715 21.4172 127.715H158.166C159.006 127.718 159.811 128.053 160.404 128.648C160.997 129.243 161.33 130.049 161.33 130.889Z" fill="#10182E"/>
<path d="M24.5813 130.964C24.5813 135.175 23.3324 139.292 20.9925 142.793C18.6525 146.295 15.3268 149.023 11.4358 150.635C7.54482 152.246 3.26344 152.667 -0.866831 151.844C-4.9971 151.022 -8.79071 148.993 -11.7678 146.015C-14.745 143.036 -16.7719 139.241 -17.5922 135.111C-18.4125 130.98 -17.9894 126.699 -16.3763 122.809C-14.7632 118.918 -12.0327 115.594 -8.53009 113.256C-5.02747 110.918 -0.910097 109.671 3.30125 109.673C8.94518 109.678 14.3562 111.924 18.3461 115.916C22.336 119.907 24.5785 125.32 24.5813 130.964ZM-11.6403 130.964C-11.6403 133.923 -10.7628 136.816 -9.11864 139.276C-7.47451 141.737 -5.13765 143.655 -2.40358 144.787C0.330503 145.92 3.33901 146.216 6.24149 145.639C9.14397 145.061 11.8101 143.636 13.9026 141.544C15.9952 139.451 17.4203 136.785 17.9976 133.883C18.575 130.98 18.2786 127.972 17.1462 125.238C16.0137 122.503 14.0959 120.167 11.6352 118.522C9.17464 116.878 6.28175 116.001 3.32241 116.001C-0.64509 116.004 -4.44929 117.581 -7.25473 120.386C-10.0602 123.192 -11.6375 126.996 -11.6403 130.964Z" fill="#10182E"/>
<path d="M266.154 195.026C266.154 195.868 265.82 196.676 265.224 197.271C264.629 197.866 263.821 198.201 262.98 198.201H220.949C220.527 198.2 220.109 198.116 219.72 197.953C219.332 197.789 218.979 197.55 218.684 197.248L155.902 133.122C155.371 132.512 155.093 131.721 155.126 130.912C155.158 130.103 155.498 129.337 156.077 128.771C156.655 128.205 157.428 127.881 158.238 127.866C159.047 127.85 159.832 128.145 160.431 128.689L222.282 191.862H262.98C263.82 191.862 264.626 192.195 265.221 192.788C265.816 193.381 266.151 194.186 266.154 195.026Z" fill="#10182E"/>
<path d="M302.386 195.089C302.386 199.301 301.137 203.418 298.797 206.919C296.457 210.421 293.131 213.149 289.24 214.76C285.35 216.372 281.068 216.793 276.938 215.97C272.808 215.148 269.014 213.119 266.037 210.14C263.06 207.162 261.033 203.367 260.213 199.237C259.392 195.106 259.815 190.825 261.428 186.935C263.041 183.044 265.772 179.72 269.275 177.382C272.777 175.044 276.895 173.797 281.106 173.799C286.749 173.807 292.158 176.053 296.148 180.045C300.137 184.036 302.38 189.446 302.386 195.089ZM266.154 195.089C266.154 198.047 267.031 200.938 268.674 203.396C270.317 205.855 272.652 207.772 275.384 208.903C278.116 210.035 281.122 210.331 284.023 209.754C286.923 209.177 289.588 207.753 291.679 205.662C293.77 203.571 295.194 200.907 295.771 198.007C296.348 195.106 296.052 192.1 294.92 189.368C293.788 186.635 291.872 184.3 289.413 182.657C286.954 181.014 284.063 180.137 281.106 180.137C277.141 180.14 273.34 181.716 270.536 184.52C267.733 187.323 266.157 191.125 266.154 195.089Z" fill="#10182E"/>
<path d="M224.112 195.026V233.956C224.112 234.798 223.777 235.606 223.182 236.201C222.587 236.797 221.779 237.131 220.937 237.131C220.095 237.131 219.288 236.797 218.693 236.201C218.097 235.606 217.763 234.798 217.763 233.956V195.026C217.763 194.184 218.097 193.376 218.693 192.781C219.288 192.186 220.095 191.851 220.937 191.851C221.779 191.851 222.587 192.186 223.182 192.781C223.777 193.376 224.112 194.184 224.112 195.026Z" fill="#10182E"/>
<path d="M243.646 252.21C243.648 256.422 242.401 260.54 240.063 264.043C237.724 267.546 234.399 270.276 230.508 271.889C226.617 273.502 222.336 273.924 218.205 273.103C214.074 272.282 210.279 270.254 207.301 267.276C204.323 264.297 202.295 260.503 201.474 256.372C200.652 252.241 201.075 247.959 202.688 244.068C204.3 240.178 207.031 236.853 210.534 234.514C214.037 232.175 218.154 230.928 222.366 230.93C228.008 230.936 233.418 233.18 237.407 237.169C241.397 241.159 243.641 246.568 243.646 252.21ZM207.403 252.21C207.401 255.17 208.277 258.064 209.92 260.526C211.563 262.988 213.899 264.907 216.633 266.042C219.367 267.176 222.376 267.473 225.279 266.897C228.182 266.321 230.849 264.897 232.943 262.805C235.036 260.713 236.462 258.047 237.041 255.144C237.619 252.241 237.323 249.232 236.191 246.497C235.059 243.763 233.141 241.425 230.68 239.781C228.219 238.136 225.326 237.258 222.366 237.258C218.401 237.261 214.598 238.837 211.793 241.64C208.988 244.443 207.409 248.245 207.403 252.21Z" fill="#10182E"/>
<path d="M93.0249 130.889V195.566C93.0249 196.408 92.6904 197.215 92.0951 197.81C91.4997 198.406 90.6923 198.74 89.8503 198.74C89.0084 198.74 88.2009 198.406 87.6056 197.81C87.0102 197.215 86.6758 196.408 86.6758 195.566V130.889C86.6758 130.047 87.0102 129.24 87.6056 128.645C88.2009 128.049 89.0084 127.715 89.8503 127.715C90.6923 127.715 91.4997 128.049 92.0951 128.645C92.6904 129.24 93.0249 130.047 93.0249 130.889Z" fill="#10182E"/>
<path d="M112.697 213.682C112.697 217.893 111.448 222.009 109.108 225.51C106.769 229.011 103.444 231.74 99.5535 233.352C95.6631 234.963 91.3823 235.385 87.2523 234.563C83.1223 233.742 79.3287 231.714 76.3511 228.737C73.3736 225.759 71.3458 221.965 70.5243 217.835C69.7028 213.705 70.1245 209.425 71.7359 205.534C73.3473 201.644 76.0762 198.319 79.5774 195.979C83.0787 193.64 87.195 192.391 91.4059 192.391C97.0499 192.4 102.46 194.645 106.451 198.636C110.442 202.627 112.688 208.038 112.697 213.682ZM76.4538 213.682C76.4538 216.639 77.3307 219.53 78.9737 221.989C80.6166 224.448 82.9518 226.364 85.684 227.496C88.4161 228.627 91.4225 228.924 94.3229 228.347C97.2233 227.77 99.8876 226.346 101.979 224.255C104.07 222.163 105.494 219.499 106.071 216.599C106.648 213.698 106.352 210.692 105.22 207.96C104.088 205.228 102.172 202.892 99.7129 201.25C97.254 199.607 94.3631 198.73 91.4059 198.73C87.4421 198.735 83.6422 200.312 80.8393 203.115C78.0365 205.918 76.4594 209.718 76.4538 213.682Z" fill="#10182E"/>
</g>
</svg>
