<svg fill="none" height="274" viewBox="0 0 303 274" width="303" xmlns="http://www.w3.org/2000/svg"><g fill="#10182e" opacity=".18"><path d="m42.2428 53.3986v.4021c-.1082.8328-.542 1.5888-1.2064 2.1025s-1.5053.7432-2.3386.6382c-3.9513-.5068-7.9666.0089-11.6617 1.4977-3.6951 1.4889-6.9463 3.901-9.4426 7.0057-2.4962 3.1046-4.154 6.7979-4.8147 10.7265s-.3022 7.961 1.0412 11.7114c.1853.4006.285.8355.2927 1.2769.0078.4414-.0766.8795-.2478 1.2865-.1711.4069-.4252.7736-.7461 1.0768s-.7015.5361-1.1175.6838c-.4159.1478-.8582.2072-1.2984.1744s-.86877-.157-1.25827-.3648c-.3895-.2077-.73139-.4944-1.00383-.8418-.27244-.3473-.46944-.7477-.57842-1.1755-1.70556-4.7682-2.16055-9.8939-1.32154-14.888.83902-4.994 2.94403-9.6897 6.11416-13.6388 3.17-3.9491 7.2994-7.0197 11.9938-8.9189 4.6945-1.8991 9.7973-2.5633 14.8215-1.9293.7705.0984 1.4782.4758 1.9891 1.0608s.7896 1.3371.7834 2.1138z"/><path d="m55.6604 27.6529c.0014.5566-.1435 1.1038-.4202 1.5866-.2768.4829-.6756.8846-1.1565 1.1647-3.9028 2.2659-7.0806 5.5953-9.1622 9.5994-2.0817 4.0041-2.9815 8.5177-2.5942 13.014.0744.8419-.1888 1.6789-.7315 2.3269-.5428.6479-1.3207 1.0537-2.1626 1.1281-.4169.0368-.837-.0089-1.2362-.1344-.3993-.1255-.7699-.3284-1.0907-.5972-.648-.5427-1.0537-1.3206-1.1281-2.1626-.4897-5.7013.6545-11.4241 3.2987-16.4988 2.6442-5.0748 6.679-9.2915 11.6323-12.1568.4809-.2752 1.0254-.4197 1.5795-.4193.5541.0005 1.0984.146 1.5789.4221.4804.276.8802.673 1.1596 1.1515.2795.4785.4288 1.0218.4332 1.5758z"/><path d="m107.3 18.013c-.002.6415-.197 1.2675-.562 1.7955-.364.528-.88.9333-1.479 1.1625-.599.2291-1.254.2713-1.877.1211-.624-.1503-1.187-.4859-1.617-.9628-2.7991-3.1696-6.5437-5.355-10.6804-6.2334s-8.4463-.4033-12.2923 1.3552c-.7558.2859-1.5922.2728-2.3386-.0366-.7465-.3094-1.3469-.8918-1.6789-1.6286-.3319-.7367-.3704-1.5723-.1076-2.3364.2628-.7642.8071-1.39935 1.522-1.77607 5.076-2.32075 10.7638-2.94717 16.2232-1.78669 5.4593 1.16047 10.4006 4.04626 14.0936 8.23106.511.5787.793 1.3235.794 2.0952z"/><path d="m80.6333 12.3305c-.0011.5415-.1408 1.0737-.4056 1.546-.2649.4723-.6462.869-1.1076 1.1524l-24.9202 15.3542c-.3534.2594-.7567.4428-1.1845.5386-.4277.0958-.8707.102-1.301.0182-.4303-.0839-.8386-.2559-1.1991-.5054-.3605-.2494-.6654-.5708-.8956-.9439-.2301-.3731-.3805-.7898-.4417-1.2239-.0611-.4341-.0317-.8761.0864-1.2983.1182-.4221.3224-.8153.6-1.1546s.6224-.6174 1.0128-.8169l24.9308-15.3542c.4796-.292 1.0281-.45156 1.5895-.46242.5614-.01085 1.1156.12739 1.6062.40063.4905.27323.8998.67169 1.1861 1.15469.2863.4831.4393 1.0334.4435 1.5949z"/><path d="m158.43 10.775c.003.6661-.208 1.3154-.603 1.8519-.494.679-1.236 1.1348-2.065 1.2677s-1.677-.068-2.358-.5588c-7.145-5.20199-16.036-7.41352-24.786-6.16476-8.749 1.24876-16.667 5.85936-22.071 12.85256-.232.3851-.542.7167-.912.9727-.37.2559-.789.4305-1.231.5121-.443.0816-.897.0684-1.333-.0388-.437-.1072-.846-.3059-1.2-.5829-.354-.2771-.645-.6262-.854-1.0242s-.331-.8359-.358-1.2846.041-.8981.201-1.3184c.159-.4203.406-.8018.724-1.1195 6.409-8.29543 15.8-13.76516 26.178-15.247095 10.377-1.481937 20.924 1.140705 29.398 7.310745.399.2989.721.68742.942 1.13413s.333.93902.328 1.43722z"/><path d="m241.498 71.1125c.002 3.3947-.479 6.7724-1.428 10.0316-.275.7586-.827 1.3843-1.546 1.75-.719.3658-1.55.4441-2.325.2192-.775-.225-1.435-.7364-1.846-1.4304s-.543-1.5185-.368-2.3059c1.213-4.1738 1.489-8.5639.808-12.8566-.681-4.2928-2.301-8.3822-4.746-11.976-2.444-3.5939-5.652-6.6034-9.394-8.8137-3.743-2.2102-7.927-3.5666-12.255-3.9722-.417-.0382-.822-.1581-1.192-.353-.371-.1948-.699-.4607-.967-.7825-.268-.3219-.47-.6932-.594-1.093s-.168-.8201-.13-1.237.158-.8222.353-1.1927c.195-.3706.461-.6991.782-.9668.322-.2678.694-.4696 1.093-.5938.4-.1242.82-.1685 1.237-.1303 8.885.8297 17.141 4.9429 23.155 11.5356 6.013 6.5928 9.352 15.1912 9.363 24.1146z"/><path d="m248.991 31.7164c.016 5.0325-1.166 9.9965-3.45 14.481s-5.603 8.3604-9.682 11.307c-.339.2486-.724.4275-1.132.5263-.409.0988-.833.1156-1.247.0493-.415-.0662-.813-.2142-1.17-.4354-.358-.2211-.668-.5109-.912-.8527s-.419-.7287-.512-1.1383c-.094-.4096-.106-.8337-.034-1.2478.071-.4141.224-.8099.45-1.1644.225-.3546.519-.6608.864-.901 5.385-3.8938 9.029-9.7434 10.151-16.2935 1.122-6.5502-.369-13.2791-4.151-18.7429-.268-.341-.463-.733-.573-1.1521-.11-.419-.133-.8561-.068-1.2845.065-.4283.217-.8388.447-1.2061s.533-.6837.889-.9297c.357-.246.76-.4163 1.185-.5006.425-.0842.863-.0806 1.286.0107.424.0913.824.2683 1.177.5202.352.2518.65.5732.873.9442 3.669 5.2882 5.626 11.5745 5.609 18.0103z"/><path d="m263.763 35.3354c-.002.6415-.198 1.2675-.562 1.7956-.364.528-.88.9333-1.479 1.1624s-1.254.2714-1.877.1211c-.624-.1502-1.188-.4859-1.617-.9627-.636-.7149-1.426-1.2766-2.31-1.6431-.885-.3665-1.84-.5284-2.796-.4734-.956.0549-1.887.3253-2.723.7907-.836.4655-1.557 1.1141-2.107 1.8972-.222.3776-.52.7052-.875.9621-.354.2569-.759.4376-1.187.5307-.428.0932-.87.0967-1.3.0104-.429-.0862-.836-.2604-1.195-.5116s-.662-.574-.89-.948-.376-.7911-.435-1.2252c-.059-.434-.028-.8756.092-1.2969s.326-.8132.605-1.1511c1.101-1.5625 2.541-2.8563 4.212-3.7848 1.67-.9285 3.529-1.4678 5.438-1.5777 1.908-.1098 3.817.2126 5.583.9432 1.767.7306 3.345 1.8506 4.618 3.2765.512.5744.798 1.3152.805 2.0846z"/><path d="m277.636 55.1024c-.012.7479-.287 1.4678-.777 2.0327-.491.5649-1.165.9385-1.904 1.0549-.738.1164-1.495-.0319-2.135-.4187-.64-.3867-1.123-.9872-1.364-1.6954-2.318-7.2235-6.739-13.5906-12.698-18.2854-.365-.2431-.674-.5589-.911-.9275-.236-.3686-.393-.7821-.462-1.2144-.069-.4324-.047-.8743.063-1.298s.307-.82.578-1.164.61-.6283.996-.8349c.386-.2067.81-.3313 1.247-.366.436-.0347.875.0212 1.289.1643.413.1431.793.3702 1.115.667 6.958 5.4673 12.118 12.8942 14.814 21.3224.101.311.151.6361.149.963z"/><path d="m301.582 79.557c.001 4.0789-.892 8.1084-2.616 11.8051-1.724 3.6966-4.237 6.9706-7.363 9.5909-.314.301-.687.534-1.096.685-.408.151-.843.216-1.278.191-.434-.024-.859-.138-1.248-.334s-.733-.47-1.012-.804c-.278-.335-.485-.7229-.607-1.1407s-.157-.8563-.103-1.2882c.055-.4319.198-.848.42-1.2224s.519-.6991.872-.9539c3.346-2.7934 5.761-6.541 6.922-10.7427s1.013-8.6575-.424-12.7729c-1.438-4.1153-4.096-7.6944-7.62-10.2596-3.525-2.5652-7.748-3.9945-12.106-4.0972-.827-.022-1.613-.3662-2.19-.9592-.577-.5929-.9-1.3878-.9-2.2153v-.0741c.023-.8383.376-1.6337.982-2.2127.607-.5789 1.418-.8942 2.256-.8772 5.643.1458 11.109 2.0014 15.674 5.3213 4.565 3.32 8.015 7.9477 9.892 13.271 1.023 2.9215 1.545 5.9945 1.545 9.0898z"/><path d="m297.509 111.599c-.009 3.19-.688 6.343-1.994 9.253-1.305 2.911-3.209 5.514-5.586 7.641-2.377 2.128-5.175 3.731-8.212 4.707-3.038.976-6.246 1.302-9.417.957-3.172-.345-6.235-1.352-8.992-2.958-2.756-1.605-5.145-3.772-7.009-6.361-1.865-2.588-3.165-5.539-3.815-8.663-.65-3.123-.636-6.348.041-9.465.066-.428.22-.839.45-1.206.231-.367.535-.682.892-.928.358-.245.762-.414 1.187-.497.426-.083.864-.078 1.287.014.424.093.824.271 1.176.525.351.253.648.575.87.947.223.373.367.786.423 1.216.057.43.024.867-.094 1.284-.6 2.741-.487 5.591.327 8.277s2.303 5.118 4.324 7.066c2.021 1.947 4.507 3.345 7.221 4.059s5.566.722 8.283.021c2.718-.7 5.211-2.085 7.242-4.022s3.532-4.362 4.359-7.044c.828-2.682.956-5.531.37-8.276-.585-2.744-1.864-5.294-3.714-7.404-.493-.64-.724-1.4444-.645-2.2486.08-.8043.462-1.548 1.071-2.0797s1.397-.8112 2.205-.7817c.807.0296 1.573.366 2.141.9407 3.63 4.1633 5.623 9.5033 5.609 15.0263z"/><path d="m219.297 130.995c.011.166.011.332 0 .498-.132.828-.588 1.57-1.266 2.064-.678.493-1.524.699-2.353.571-5.462-.861-10.678-2.879-15.296-5.92-4.619-3.041-8.534-7.034-11.483-11.712s-4.864-9.932-5.617-15.41c-.752-5.4788-.325-11.0548 1.254-16.3544.088-.4316.264-.8401.518-1.1998.255-.3596.581-.6624.958-.8891.378-.2268.798-.3725 1.235-.428.437-.0554.881-.0194 1.303.1059.422.1252.814.3369 1.15.6217.335.2847.608.6362.801 1.0321.193.396.301.8277.318 1.2677.017.4401-.058.8788-.22 1.2884-1.32 4.4355-1.677 9.102-1.047 13.6865.63 4.585 2.233 8.982 4.701 12.897s5.744 7.257 9.609 9.803c3.865 2.545 8.229 4.235 12.8 4.957.737.127 1.405.509 1.887 1.08s.747 1.294.748 2.041z"/><path d="m139.108 61.864c-.004.442-.1.8784-.282 1.2811s-.447.7629-.776 1.0575c-3.881 3.5404-6.997 7.8368-9.156 12.6253-2.16 4.7884-3.318 9.9679-3.403 15.2202-.086 5.2523.904 10.4669 2.907 15.3229s4.978 9.251 8.742 12.915c.53.6.814 1.378.795 2.178s-.34 1.563-.898 2.137c-.557.574-1.311.916-2.111.958-.799.041-1.584-.22-2.199-.733-4.386-4.266-7.854-9.385-10.189-15.041s-3.488-11.7301-3.389-17.8484 1.449-12.1517 3.966-17.7291c2.517-5.5775 6.148-10.5811 10.67-14.7032.455-.407 1.018-.6742 1.621-.7696.603-.0953 1.221-.0147 1.779.2321.559.2468 1.034.6494 1.37 1.1595.335.5101.516 1.1061.521 1.7166z"/><path d="m161.309 130.984c.001.812-.308 1.593-.865 2.184-.557.59-1.319.945-2.13.991-4.649.233-9.299-.462-13.677-2.045-4.379-1.582-8.398-4.02-11.825-7.172-.346-.27-.631-.61-.839-.996-.208-.387-.334-.812-.369-1.25-.035-.437.021-.877.164-1.292.144-.415.372-.795.67-1.118.298-.322.659-.579 1.062-.754.402-.176.836-.266 1.275-.265s.873.093 1.275.27c.401.178.762.436 1.058.76 2.806 2.576 6.095 4.569 9.677 5.862 3.583 1.294 7.387 1.862 11.191 1.672.839-.043 1.66.248 2.285.809s1.002 1.347 1.048 2.186z"/><path d="m74.3582 60.9859c-.0105.7859-.3121 1.54-.8465 2.1164-2.6621 2.866-6.0373 4.974-9.7808 6.1085-3.7436 1.1345-7.7211 1.2548-11.5264.3487-3.8052-.9061-7.3017-2.8062-10.1321-5.5061-2.8305-2.6999-4.8935-6.1028-5.9781-9.861-.1504-.4092-.2149-.8449-.1895-1.2801.0254-.4351.1401-.8604.3371-1.2493.1969-.3888.4718-.733.8076-1.011.3357-.278.7251-.4838 1.1439-.6047s.8581-.1543 1.2903-.098c.4323.0562.8483.2009 1.2222.425s.6976.5228.951.8774c.2534.3547.4311.7578.5219 1.1841.7737 2.6806 2.2453 5.1076 4.2643 7.0331 2.0191 1.9255 4.5132 3.2804 7.2274 3.9261 2.7142.6458 5.5513.5592 8.2211-.2508s5.0767-2.3143 6.9746-4.3593c.5821-.6041 1.3797-.9532 2.2184-.9711.8388-.0178 1.6505.2971 2.2577.8759.3166.2935.57.6486.7446 1.0434.1747.3948.267.8211.2713 1.2528z"/><path d="m125.49 91.7575v.3069c0 .8419-.335 1.6494-.93 2.2447-.595.5954-1.403.9298-2.245.9298s-1.649-.3344-2.245-.9298c-.595-.5953-.929-1.4028-.929-2.2447v-.2646c.011-2.794-.728-5.5398-2.139-7.9511-1.412-2.4114-3.444-4.4-5.886-5.7585-2.441-1.3586-5.202-2.0373-7.996-1.9655-2.793.0718-5.5153.8915-7.8838 2.3738-.7104.383-1.5401.481-2.3202.2741s-1.4522-.7031-1.8795-1.3879c-.4273-.6847-.5777-1.5065-.4207-2.2981.157-.7917.6097-1.4939 1.266-1.9637 3.3246-2.0759 7.1443-3.2241 11.0622-3.3253 3.919-.1012 7.792.8483 11.22 2.7499 3.427 1.9015 6.283 4.6859 8.271 8.0639s3.035 7.2266 3.034 11.1461z"/><path d="m278.006 131.164c0 .842-.334 1.65-.929 2.245-.596.596-1.403.93-2.245.93l-58.602-.265c-.842 0-1.65-.334-2.245-.929-.595-.596-.93-1.403-.93-2.245s.335-1.65.93-2.245 1.403-.93 2.245-.93l58.602.275c.84 0 1.646.333 2.241.927.595.593.931 1.397.933 2.237z"/><path d="m161.33 130.889c0 .842-.334 1.65-.93 2.245-.595.595-1.402.93-2.244.93h-136.7388c-.8419 0-1.6494-.335-2.2447-.93-.5954-.595-.9298-1.403-.9298-2.245s.3344-1.649.9298-2.244c.5953-.596 1.4028-.93 2.2447-.93h136.7488c.84.003 1.645.338 2.238.933s.926 1.401.926 2.241z"/><path d="m24.5813 130.964c0 4.211-1.2489 8.328-3.5888 11.829-2.34 3.502-5.6657 6.23-9.5567 7.842-3.89098 1.611-8.17236 2.032-12.302631 1.209-4.130269-.822-7.923879-2.851-10.900969-5.829-2.9772-2.979-5.0041-6.774-5.8244-10.904-.8203-4.131-.3972-8.412 1.2159-12.302 1.6131-3.891 4.3436-7.215 7.84621-9.553 3.50262-2.338 7.619993-3.585 11.83134-3.583 5.64393.005 11.05495 2.251 15.04485 6.243 3.9899 3.991 6.2324 9.404 6.2352 15.048zm-36.2216 0c0 2.959.8775 5.852 2.52166 8.312 1.64413 2.461 3.98099 4.379 6.71506 5.511 2.734083 1.133 5.74259 1.429 8.64507.852 2.90248-.578 5.56861-2.003 7.66111-4.095 2.0926-2.093 3.5177-4.759 4.095-7.661.5774-2.903.281-5.911-.8514-8.645-1.1325-2.735-3.0503-5.071-5.511-6.716-2.46056-1.644-5.35345-2.521-8.31279-2.521-3.9675.003-7.7717 1.58-10.57714 4.385-2.80547 2.806-4.38277 6.61-4.38557 10.578z"/><path d="m266.154 195.026c0 .842-.334 1.65-.93 2.245-.595.595-1.403.93-2.244.93h-42.031c-.422-.001-.84-.085-1.229-.248-.388-.164-.741-.403-1.036-.705l-62.782-64.126c-.531-.61-.809-1.401-.776-2.21.032-.809.372-1.575.951-2.141.578-.566 1.351-.89 2.161-.905.809-.016 1.594.279 2.193.823l61.851 63.173h40.698c.84 0 1.646.333 2.241.926s.93 1.398.933 2.238z"/><path d="m302.386 195.089c0 4.212-1.249 8.329-3.589 11.83-2.34 3.502-5.666 6.23-9.557 7.841-3.89 1.612-8.172 2.033-12.302 1.21-4.13-.822-7.924-2.851-10.901-5.83-2.977-2.978-5.004-6.773-5.824-10.903-.821-4.131-.398-8.412 1.215-12.302 1.613-3.891 4.344-7.215 7.847-9.553 3.502-2.338 7.62-3.585 11.831-3.583 5.643.008 11.052 2.254 15.042 6.246 3.989 3.991 6.232 9.401 6.238 15.044zm-36.232 0c0 2.958.877 5.849 2.52 8.307 1.643 2.459 3.978 4.376 6.71 5.507 2.732 1.132 5.738 1.428 8.639.851 2.9-.577 5.565-2.001 7.656-4.092s3.515-4.755 4.092-7.655c.577-2.901.281-5.907-.851-8.639-1.132-2.733-3.048-5.068-5.507-6.711s-5.35-2.52-8.307-2.52c-3.965.003-7.766 1.579-10.57 4.383-2.803 2.803-4.379 6.605-4.382 10.569z"/><path d="m224.112 195.026v38.93c0 .842-.335 1.65-.93 2.245-.595.596-1.403.93-2.245.93s-1.649-.334-2.244-.93c-.596-.595-.93-1.403-.93-2.245v-38.93c0-.842.334-1.65.93-2.245.595-.595 1.402-.93 2.244-.93s1.65.335 2.245.93.93 1.403.93 2.245z"/><path d="m243.646 252.21c.002 4.212-1.245 8.33-3.583 11.833-2.339 3.503-5.664 6.233-9.555 7.846s-8.172 2.035-12.303 1.214-7.926-2.849-10.904-5.827c-2.978-2.979-5.006-6.773-5.827-10.904-.822-4.131-.399-8.413 1.214-12.304 1.612-3.89 4.343-7.215 7.846-9.554s7.62-3.586 11.832-3.584c5.642.006 11.052 2.25 15.041 6.239 3.99 3.99 6.234 9.399 6.239 15.041zm-36.243 0c-.002 2.96.874 5.854 2.517 8.316s3.979 4.381 6.713 5.516c2.734 1.134 5.743 1.431 8.646.855s5.57-2 7.664-4.092c2.093-2.092 3.519-4.758 4.098-7.661.578-2.903.282-5.912-.85-8.647-1.132-2.734-3.05-5.072-5.511-6.716-2.461-1.645-5.354-2.523-8.314-2.523-3.965.003-7.768 1.579-10.573 4.382s-4.384 6.605-4.39 10.57z"/><path d="m93.0249 130.889v64.677c0 .842-.3345 1.649-.9298 2.244-.5954.596-1.4028.93-2.2448.93-.8419 0-1.6494-.334-2.2447-.93-.5954-.595-.9298-1.402-.9298-2.244v-64.677c0-.842.3344-1.649.9298-2.244.5953-.596 1.4028-.93 2.2447-.93.842 0 1.6494.334 2.2448.93.5953.595.9298 1.402.9298 2.244z"/><path d="m112.697 213.682c0 4.211-1.249 8.327-3.589 11.828-2.339 3.501-5.664 6.23-9.5545 7.842-3.8904 1.611-8.1712 2.033-12.3012 1.211-4.13-.821-7.9236-2.849-10.9012-5.826-2.9775-2.978-5.0053-6.772-5.8268-10.902s-.3998-8.41 1.2116-12.301c1.6114-3.89 4.3403-7.215 7.8415-9.555 3.5013-2.339 7.6176-3.588 11.8285-3.588 5.644.009 11.0541 2.254 15.0451 6.245s6.237 9.402 6.246 15.046zm-36.2432 0c0 2.957.8769 5.848 2.5199 8.307 1.6429 2.459 3.9781 4.375 6.7103 5.507 2.7321 1.131 5.7385 1.428 8.6389.851s5.5647-2.001 7.6561-4.092c2.091-2.092 3.515-4.756 4.092-7.656.577-2.901.281-5.907-.851-8.639s-3.048-5.068-5.5071-6.71c-2.4589-1.643-5.3498-2.52-8.307-2.52-3.9638.005-7.7637 1.582-10.5666 4.385-2.8028 2.803-4.3799 6.603-4.3855 10.567z"/></g></svg>