<svg fill="none" height="43" viewBox="0 0 42 43" width="42" xmlns="http://www.w3.org/2000/svg"><g fill="#10182e"><path d="m19.6842 2.2382c-.8257-1.09966-2.0297-1.854306-3.3792-2.11816-1.3496-.263853-2.7491-.01819-3.9282.689534-1.179.707726-2.0539 1.827286-2.45573 3.142416-.4018 1.31513-.30196 2.73251.28023 3.97833.0923.17413.1375.36935.1311.56632-.0063.19698-.0641.38887-.1674.55667-.1034.1678-.24878.30568-.42183.4-.17304.09431-.36772.14178-.56475.13771-.21482-.00605-.4241-.0695-.60609-.18378-.182-.11428-.33008-.2752-.42884-.46606-.4592-.977-.71314-2.0378-.74612-3.11683-.9013.11865-1.76528.43489-2.53021.92613-.76493.49123-1.41193 1.14534-1.89478 1.9156-.48284.77025-.78962 1.63762-.89841 2.54022-.10878.9025-.0169 1.818.2691 2.6809 1.14216-.5919 2.40809-.9053 3.69445-.9146.18075-.0594.373-.0751.56099-.0458.18799.0292.36636.1027.52047.2142.15411.1116.27957.2581.36609.4276.08651.1694.13162.357.13162.5472 0 .1903-.04511.3778-.13162.5473-.08652.1694-.21198.3159-.36609.4275s-.33248.185-.52047.2143-.38024.0136-.56099-.0458c.60684.9628.90495 2.0881.85442 3.2251-.02425.3022-.16166.5841-.38477.7894-.22311.2052-.51547.3187-.81863.3177-.3022-.0242-.5841-.1616-.78936-.3847-.20526-.2232-.31875-.5155-.31778-.8187.03713-.4839-.03928-.9698-.22314-1.419-.18385-.4492-.47007-.8493-.83586-1.1683-1.25204.5704-2.27077 1.5527-2.886416 2.7831-.615643 1.2305-.791006 2.6347-.496863 3.9788s1.040029 2.5467 2.113339 3.4075 2.40921 1.3278 3.78506 1.3231c.15014 0 .2988.0296.4375.087.13871.0575.26474.1417.37089.2479.10616.1061.19037.2322.24783.3709.05745.1387.08702.2873.08702.4375 0 .1501-.02957.2988-.08702.4375-.05746.1387-.14167.2647-.24783.3709-.10615.1061-.23218.1903-.37089.2478-.1387.0574-.28736.087-.4375.087-.8164-.0034-1.62768-.1292-2.40681-.3731-.55985.6503-.92215 1.4471-1.04418 2.2965-.12204.8493.00128 1.7159.3554 2.4975s.9243 1.4456 1.64333 1.9139 1.55694.7213 2.41499.7292h.14441c.03595-.5594.13691-1.1127.30085-1.6487.1434-.2134.35138-.3753.59346-.4619s.50554-.0934.75178-.0194c.24623.074.46229.2249.61651.4307.15422.2057.2385.4554.24048.7125-.20079.6447-.27222 1.3228-.2102 1.9952s.25628 1.326.57166 1.9231c.3153.5971.7455 1.1261 1.2659 1.5565.5203.4303 1.1206.7537 1.7663.9514 1.3628.3956 2.8235.2756 4.1036-.337.6114-.2759 1.1565-.6797 1.5987-1.1841.4422-.5045.7711-1.0978.9645-1.7401v-9.3024c-.9-.0972-1.761-.4201-2.5031-.9386-.8909.6578-1.9617 1.0273-3.0687 1.059-.8606-.0024-1.7001-.2668-2.4068-.7582-.2384-.1801-.4013-.4426-.4569-.7362s0-.5974.1561-.8523c.1801-.2384.4426-.4013.7362-.4569s.5974 0 .8523.1561c.3935.2399.8477.3618 1.3085.3511s.9088-.1534 1.2908-.4113c-.4298-.6485-.7245-1.3771-.8664-2.1421-.041-.2965.03-.5976.1991-.8446s.4242-.4221.7155-.4911c.1447-.0277.2936-.0263.4377.0043.1442.0306.2808.0896.4019.1737.121.0841.2241.1914.3031.3159.079.1244.1323.2633.157.4086.1219.7002.4526 1.3472.9486 1.8561.4961.509 1.1344.8561 1.8312.996v-14.2724c-.7727-.4919-1.6512-.793-2.5632-.8785-.3454.3343-.6087.744-.7695 1.1971-.1607.453-.2145.937-.1572 1.4143.0203.1478.0112.2982-.0269.4425s-.1043.2796-.1949.3982-.2038.218-.333.2927c-.1292.0746-.2719.123-.4199.1422h-.1444c-.2725-.012-.5328-.1161-.7383-.2954-.2056-.1793-.3441-.4231-.3929-.6914-.0983-.7815-.0202-1.5752.2286-2.3226-.2221.1165-.4353.2493-.6378.3972-.2535.1573-.5563.2148-.8499.1615-.2935-.0534-.5567-.2139-.7386-.4504-.0891-.1198-.1536-.2562-.1898-.4011-.0361-.1449-.0432-.2956-.0208-.4433.0223-.1476.0737-.2894.1512-.4171.0775-.1278.1795-.2389.3001-.327 1.0811-.7543 2.3355-1.22274 3.6464-1.36161 1.3109-.13888 2.6357.05632 3.8508.56741v-8.123z"/><path d="m38.4333 29.2065c-.7796.242-1.5906.3677-2.4069.3731-.3032 0-.594-.1205-.8083-.3349-.2144-.2144-.3349-.5052-.3349-.8084s.1205-.594.3349-.8084c.2143-.2144.5051-.3348.8083-.3348 1.3655-.0099 2.687-.4839 3.7474-1.3441 1.0604-.8603 1.7967-2.0556 2.0878-3.3897.2912-1.3341.12-2.7275-.4856-3.9514-.6055-1.2239-1.6093-2.2054-2.8465-2.7833-.3629.322-.6479.7221-.8334 1.1704-.1856.4482-.2668.9327-.2376 1.417.001.3031-.1125.5955-.3178.8186-.2052.2231-.4871.3605-.7893.3848-.2959 0-.5801-.1158-.7915-.3228-.2115-.207-.3334-.4885-.3397-.7844-.0618-1.1381.2372-2.2668.8544-3.2251h-.0602c-.1807.0594-.373.0751-.561.0458s-.3663-.1027-.5204-.2143c-.1542-.1115-.2796-.258-.3661-.4275-.0866-.1694-.1317-.357-.1317-.5472 0-.1903.0451-.3778.1317-.5473.0865-.1694.2119-.3159.3661-.4275.1541-.1116.3324-.185.5204-.2143s.3803-.0136.561.0458c1.2836-.0032 2.5497.2979 3.6945.8785.2928-.8628.3898-1.78.284-2.685s-.4118-1.77512-.8957-2.54714c-.484-.77202-1.1338-1.42659-1.9022-1.91621s-1.6362-.802-2.5404-.91446c-.0271 1.07981-.2813 2.14182-.7462 3.11682-.0987.19086-.2468.35179-.4288.46607-.182.11427-.3913.17773-.6061.18377-.1662-.00247-.3301-.03934-.4813-.1083-.1358-.06325-.2577-.15282-.3586-.26354s-.1788-.24037-.2291-.38142c-.0504-.14106-.0723-.29072-.0643-.4403.0079-.14957.0454-.29609.1104-.43104.6312-1.34076.7048-2.87714.2046-4.27209-.366-.9529-.9794-1.79098-1.7771-2.42787-.7977-.636887-1.7508-1.049546-2.7611-1.1954478s-2.0412-.0197682-2.9865.3654018-1.7708 1.015446-2.3914 1.825866v6.40212c.6564-.07109 1.2808-.32083 1.8051-.72204.2485-.18434.5583-.26594.8653-.22784.307.03809.5876.19295.7834.43242.1595.25595.2172.56247.1614.85888-.0557.29641-.2207.5611-.4622.74165-.9275.6954-2.0335 1.1127-3.1891 1.2034v6.5465c1.4024.2707 2.6593 1.0402 3.538 2.1662.9402-.3371 1.9619-.3733 2.9235-.1038.9617.2695 1.8157.8315 2.4437 1.608.0901.117.1563.2505.1947.393.0385.1425.0485.2912.0295.4376s-.0666.2876-.1402.4156c-.0735.128-.1716.2402-.2885.3303-.117.0901-.2505.1562-.393.1947-.1426.0385-.2913.0485-.4376.0295-.1464-.019-.2876-.0666-.4156-.1402s-.2402-.1716-.3303-.2886c-.2355-.3151-.5532-.5593-.9184-.7058-.3651-.1465-.7635-.1896-1.1515-.1245-.1379.0073-.2749.0275-.4091.0601.2016.7406.2507 1.5144.1444 2.2745-.0488.2683-.1874.5121-.3929.6914-.2055.1792-.4658.2834-.7383.2954h-.1565c-.2932-.0556-.5553-.2181-.7354-.4561-.1801-.2379-.2654-.5343-.2393-.8316.0529-.4749.011-.9556-.1233-1.4142s-.3582-.886-.6589-1.2573c-.4482-.5667-1.056-.986-1.745-1.2035v11.9138c.5939.5418 1.3434.8829 2.1421.9747.9602.1202 1.929-.1436 2.6956-.7341.2467-.1771.5512-.2545.8525-.2166.3013.038.5771.1884.7721.4212.173.242.2503.5394.217.8349-.0333.2956-.1749.5683-.3975.7657-1.0369.7899-2.3067 1.2132-3.6102 1.2034-.2725.0176-.5458.0176-.8183 0-.6394-.0759-1.2639-.2463-1.8533-.5055v4.2601h.0843c.2097.6468.5541 1.2418 1.0104 1.7458s1.0143.9057 1.6371 1.1785c1.2884.6131 2.7568.7329 4.1276.3369 1.2975-.3948 2.3857-1.2877 3.0262-2.4831.6406-1.1954.7814-2.5959.3915-3.8949.0056-.2538.0913-.4994.2449-.7015.1535-.2021.3671-.3506.6101-.424s.503-.0681.7428.0151c.2399.0833.4472.2403.5924.4485.1803.534.2974 1.0874.349 1.6487h.1444c.8622.0012 1.7065-.2451 2.4327-.7098s1.3036-1.1282 1.6636-1.9116.4874-1.6537.3671-2.5074-.4832-1.6549-1.0457-2.3083z"/></g></svg>