<svg fill="none" height="43" viewBox="0 0 48 43" width="48" xmlns="http://www.w3.org/2000/svg"><path d="m46.5056 9.03164c-1.0605-2.56076-2.8383-4.76056-5.1195-6.33472-2.2813-1.57417-4.9688-2.455633-7.7392-2.538351h-.5728c-3.2702.004344-6.4697.952331-9.2144 2.730171-2.7534-1.77853-5.9608-2.726372-9.2387-2.730171h-.5728c-2.7651.091842-5.44538.977241-7.72106 2.550551-2.27569 1.57331-4.05069 3.76811-5.11324 6.32252-1.1246877 2.59296-1.477969 5.45516-1.017525 8.24376s1.715085 5.3854 3.613625 7.4791l.12188.1219 18.34342 17.5024c.4286.3992.9926.6212 1.5783.6212.5858 0 1.1498-.222 1.5784-.6212l18.3556-17.5024.1219-.1219c1.8985-2.0937 3.1531-4.6905 3.6136-7.4791.4604-2.7886.1071-5.6508-1.0175-8.24376zm-5.9357 12.60266-16.7102 15.9301-16.71011-15.9301c-1.29449-1.4488-2.14664-3.2383-2.45553-5.1565-.3089-1.9182-.0616-3.8847.71261-5.6667.71263-1.76331 1.92539-3.27974 3.48896-4.36254s3.40967-1.6847 5.31097-1.73157h.4144c2.8251-.00794 5.5652.96574 7.7518 2.75455.3867.3252.87.51347 1.3748.53551.5048.02205 1.0027-.12337 1.4163-.41363l.134-.12188c2.1978-1.78439 4.9453-2.75333 7.7762-2.74236h.4266c1.9013.04687 3.7474.64877 5.3109 1.73157 1.5636 1.0828 2.7764 2.59923 3.489 4.36255.7703 1.7799 1.0166 3.7427.71 5.6577-.3065 1.9151-1.1533 3.7029-2.4407 5.1533z" fill="#1d1d1b"/></svg>