<svg fill="none" height="27" viewBox="0 0 26 27" width="26" xmlns="http://www.w3.org/2000/svg"><path d="m3.34662.00100388h19.30678c.4422-.01096831.882.06803982 1.2927.23222812.4107.164188.7838.410131 1.0965.722897.3128.312771.5587.685831.7229 1.096551s.2432.85052.2323 1.2927v19.30672c.0165.4455-.0584.8897-.2201 1.3051s-.4068.7934-.7202 1.1104c-.3133.3171-.6883.5667-1.1018.7333-.4134.1666-.8567.2468-1.3023.2356h-19.30678c-.44566.0112-.88888-.069-1.30236-.2356-.41349-.1666-.78846-.4162-1.101802-.7333-.313346-.317-.558424-.695-.720128-1.1104-.1617038-.4154-.2366057-.8596-.22008835-1.3051v-19.30672c-.01096831-.44218.06803975-.88198.23222735-1.2927.164189-.41072.410131-.78378.722898-1.096551.312763-.312766.685833-.558709 1.096553-.722897.41071-.1641883.85051-.24319643 1.2927-.23222812zm15.61598 2.89135612c-.3099.00346-.6061.1281-.8253.34725-.2191.21915-.3438.51538-.3472.82528v2.8114c.0034.3099.1281.60613.3472.82528.2192.21914.5154.34379.8253.34725h2.9446c.311 0 .6092-.12353.8291-.34342.2199-.2199.3435-.51813.3435-.82911v-2.8114c0-.31098-.1236-.60922-.3435-.82911s-.5181-.34342-.8291-.34342zm4.1305 8.11444h-2.2918c.2195.7259.3318 1.4801.3331 2.2385-.042 2.1086-.9156 4.1153-2.4305 5.5828-1.5149 1.4674-3.5483 2.2768-5.6573 2.2518-2.1112.0286-4.14804-.7792-5.66582-2.2471-1.51777-1.4678-2.39322-3.4765-2.43526-5.5875.0121-.7617.14246-1.5169.3864-2.2385h-2.43833v11.0058c.00351.2733.11455.5342.30907.7263.19453.192.45688.2997.73022.2996h18.12092c.2733.0001.5357-.1076.7302-.2996.1945-.1921.3056-.453.3091-.7263zm-10.0465-3.11787c-.6771-.01058-1.3498.11235-1.9794.36175-.6297.24941-1.20407.62042-1.69033 1.09183s-.8749 1.03399-1.1437 1.65559c-.26881.6217-.41253 1.2902-.42295 1.9674.02454 1.3653.58962 2.6651 1.57129 3.6143.98169.9492 2.29979 1.4702 3.66509 1.4488.6755.0106 1.3464-.112 1.9744-.3607.6281-.2487 1.201-.6188 1.686-1.0889.485-.4702.8727-1.0313 1.1408-1.6513.2681-.6201.4115-1.2868.4219-1.9622-.021-1.3653-.5827-2.6665-1.5619-3.61823-.9792-.95168-2.2958-1.47614-3.6612-1.45834z" fill="#fff"/></svg>