<svg fill="none" height="41" viewBox="0 0 48 41" width="48" xmlns="http://www.w3.org/2000/svg"><g fill="#10182e"><path d="m40.9286.00015155h-33.90337c-1.8632 0-3.6501.74015645-4.96759 2.05764845-1.317484 1.31748-2.05764 3.10438-2.05764 4.96759v19.87601c0 .9225.181713 1.8361.534764 2.6884.353051.8524.870526 1.6268 1.522876 2.2792.65236.6523 1.42681 1.1698 2.27915 1.5228.85234.3531 1.76588.5348 2.68844.5348h25.27467l5.1103 6.0447c.1549.1821.3476.328.5649.4276.2172.0997.4536.1506.6925.1492.1959-.0007.3905-.0319.5768-.0923.3259-.1116.6093-.3211.8116-.5998.2024-.2787.3137-.6131.3189-.9575v-4.9719h.6114c1.8612-.003 3.6451-.7445 4.9601-2.0617s2.0536-3.1023 2.0536-4.9635v-19.87601c0-.92647-.1832-1.84378-.5391-2.69915-.356-.85536-.8776-1.63187-1.5348-2.28483-.6573-.65296-1.4372-1.169471-2.2949-1.519796-.8576-.350326-1.7761-.52754759-2.7026-.52146245zm-33.90337 3.31073845h33.90337c.9852 0 1.93.39135 2.6266 1.08795.6966.69661 1.0879 1.6414 1.0879 2.62655v19.87601c0 .9851-.3913 1.9299-1.0879 2.6265s-1.6414 1.088-2.6266 1.088h-2.3071c-.2167.0045-.4303.0516-.6287.1387s-.3778.2124-.5277.3688c-.15.1564-.2677.3408-.3464.5427s-.1168.4173-.1122.634v2.1225l-2.6994-3.1838c-.1542-.1835-.3466-.3313-.5638-.4329-.2171-.1016-.4538-.1546-.6936-.1554h-26.02447c-.98514 0-1.92994-.3914-2.62654-1.088s-1.08795-1.6414-1.08795-2.6265v-19.91061c0-.98515.39135-1.92994 1.08795-2.62655.6966-.6966 1.6414-1.08795 2.62654-1.08795z"/><path d="m16.6802 20.1646c.58.0022 1.1477-.1677 1.631-.4882.4834-.3206.8607-.7774 1.0843-1.3126.2235-.5352.2832-1.1247.1714-1.6938-.1117-.5692-.3899-1.0923-.7992-1.5033-.4093-.4109-.9313-.6911-1.5-.8051s-1.1585-.0567-1.6945.1648c-.5361.2214-.9944.5969-1.3169 1.079-.3224.4821-.4946 1.0491-.4946 1.6291 0 .7751.3071 1.5186.8541 2.0678s1.2893.8592 2.0644.8623z"/><path d="m23.9713 20.1646c.58.0022 1.1476-.1677 1.631-.4882.4833-.3206.8607-.7774 1.0842-1.3126s.2832-1.1247.1715-1.6938c-.1118-.5692-.3899-1.0923-.7992-1.5033-.4094-.4109-.9314-.6911-1.5001-.8051s-1.1584-.0567-1.6945.1648c-.5361.2214-.9944.5969-1.3168 1.079-.3225.4821-.4947 1.0491-.4947 1.6291 0 .7751.3071 1.5186.8541 2.0678s1.2894.8592 2.0645.8623z"/><path d="m31.7113 20.1645c.5818.0115 1.1539-.1506 1.6432-.4655.4894-.3149.8739-.7685 1.1046-1.3027.2306-.5343.2969-1.1252.1905-1.6973-.1065-.5721-.3809-1.0996-.7883-1.5152-.4074-.4155-.9293-.7004-1.4992-.8182s-1.162-.0632-1.7007.1567c-.5388.22-.9999.5954-1.3244 1.0784-.3246.4831-.498 1.0518-.4981 1.6337-.0002.7672.3006 1.5039.8377 2.0518.5371.5478 1.2676.8632 2.0347.8783z"/></g></svg>