<svg enable-background="new 0 0 1000 1000" viewBox="0 0 1000 1000" xmlns="http://www.w3.org/2000/svg"><g transform="matrix(.1 0 0 -.1 0 511)"><path d="m4783.3 4998.9c-435.1-69.3-877.8-290.7-1178.1-592.9-421.6-421.6-625.6-991.4-600.6-1672.9 7.7-207.9 3.8-250.3-27-309.9-125.1-246.4 84.7-899 346.5-1072.3 59.7-38.5 84.7-77 136.7-207.9 338.8-839.3 1037.5-1374.5 1680.5-1284 585.2 82.8 1114.6 567.9 1403.4 1286 50.1 125.1 77 167.5 129 200.2 71.2 42.3 188.7 192.5 252.2 317.6 119.3 238.7 175.2 627.6 105.9 758.5-23.1 48.1-30.8 140.5-34.7 456.2-5.8 423.5-28.9 589.1-117.4 849-140.5 412-392.7 660.3-746.9 733.4-75.1 15.4-115.5 32.7-121.3 53.9-63.5 217.5-256 377.3-552.5 460.1-123.3 32.7-523.7 48.2-675.7 25zm-198.3-1676.7c254.1-59.7 573.7-59.7 839.3 0 398.5 88.5 631.4 23.1 858.6-242.6 190.6-223.3 209.8-275.3 217.5-579.4 23.1-868.2-294.5-1690.2-810.4-2094.5-400.4-311.8-750.8-358-1149.3-150.1-629.5 329.2-1039.5 1191.6-1041.5 2192.6 0 338.8 21.2 394.6 238.7 650.7 209.9 246.4 460.1 311.9 847.1 223.3z"/><path d="m3501.2-133.3c-213.7-146.3-579.4-335-1012.6-523.6-585.2-254.1-875.9-419.7-997.2-564.1-258-304.2-400.4-1070.3-454.3-2410.2-23.1-583.3-15.4-689.2 67.4-833.5 59.7-102 202.1-232.9 313.8-283l90.5-42.4h3494 3494l109.7 53.9c140.5 69.3 288.8 229.1 336.9 363.8 28.9 88.5 34.7 154 28.9 477.4-17.3 1361-186.7 2352.4-458.2 2673.9-121.3 144.4-412 309.9-989.5 560.2-517.9 225.2-847 398.5-1087.7 571.8-196.4 142.4-258 109.7-319.6-177.1-53.9-258-202.1-700.7-321.5-970.2-119.4-263.7-350.4-666.1-369.6-643-7.7 7.7-40.4 113.6-73.1 234.8l-59.7 219.5 52 67.4c42.3 55.8 52 92.4 57.7 209.8 11.6 194.4-5.8 265.7-86.6 352.3-77 86.6-155.9 115.5-313.8 115.5-148.2 0-232.9-28.9-302.2-100.1-82.8-84.7-102-146.3-102-313.8 0-152.1 19.2-227.2 77-288.8 36.6-38.5 36.6-42.4-25-263.7-34.7-125.1-67.4-231-75.1-236.8-17.3-17.3-256 402.3-361.9 643-129 288.8-256 664.2-317.6 939.4-75.2 344.7-113.7 360.1-394.7 167.6zm259.8-691.1c225.2-695 581.4-1311 1053-1819.2 171.3-184.8 206-184.8 377.3 0 296.5 319.6 531.3 658.4 735.4 1058.8 188.7 373.4 348.4 793.1 421.6 1108.8l23.1 98.2 204.1-121.2c109.7-65.4 227.1-130.9 257.9-142.4l55.8-23.1v-209.8c0-155.9-5.8-209.8-23.1-209.8-13.5 0-71.2-21.2-125.1-48.1-206-94.3-400.4-336.9-487-606.4-59.7-192.5-327.3-1478.4-327.3-1580.5 0-117.4 25-184.8 102-265.7 59.7-61.6 227.1-155.9 281.1-155.9 13.5 0 55.8-25 92.4-57.7 111.7-98.2 277.2-67.4 340.7 65.4 38.5 82.8 38.5 113.6 0 196.3-53.9 113.6-215.6 161.7-311.9 92.4-84.7-59.7-234.9 19.3-234.9 123.2 0 123.2 292.6 1439.9 352.3 1582.4 75.1 182.9 232.9 350.4 360 385 261.8 71.2 508.2-127.1 623.7-498.6 25-80.9 107.8-448.5 184.8-816.2 104-492.8 136.7-679.5 123.2-702.6-11.6-19.3-52-50.1-88.6-71.2-67.4-36.6-71.2-36.6-148.2-1.9-167.5 77-329.2-19.2-329.2-192.5 0-75.1 9.6-98.2 65.4-154 94.3-94.3 213.7-90.5 329.2 11.5 21.2 19.2 82.8 48.1 134.8 65.5 182.9 59.7 315.7 217.5 317.6 377.3 0 102-304.2 1507.3-358 1649.8-111.7 298.4-292.6 500.5-517.9 577.5l-86.6 28.9v142.2 142.5l102-44.3c53.9-25 223.3-100.1 375.4-167.5 290.7-127.1 554.4-275.3 644.9-361.9 236.8-225.2 402.3-1220.5 421.6-2544.9 5.8-336.9 5.8-336.9-46.2-427.4-40.4-65.4-78.9-102-154-138.6l-100.1-50h-3399.5-3399.6l-100.1 50c-75.1 36.6-113.6 73.2-154 138.6l-52 90.5 5.8 346.5c13.5 1047.2 134.8 1979 302.2 2356.3 63.5 140.5 129 204.1 331.1 325.3 130.9 78.9 841.3 408.1 879.8 408.1 5.8 0 11.5-438.9 11.5-976v-977.9l-86.6-36.6c-50-19.2-119.4-71.2-161.7-121.3-231-261.8-154-652.6 159.8-820.1 111.7-59.7 354.2-59.7 463.9 0 394.6 207.9 383.1 758.5-17.3 945.2l-88.5 42.3v1037.6 1037.6l179 96.3c96.3 53.9 215.6 123.2 263.7 154l86.6 55.8 25-88.6c13.5-47.9 63.5-209.6 109.7-357.9z"/></g></svg>