<svg fill="none" height="42" viewBox="0 0 47 42" width="47" xmlns="http://www.w3.org/2000/svg"><path d="m36.4615 7.53929c.9553-.00171 1.893-.25744 2.7169-.74099l7.7745-4.59885v-2.19945l-8.7272 5.15165c-.662.38013-1.4125.57892-2.1759.57633l-11.5853-.14114c-.5881-.21171-1.0468-.34109-1.1762-.41166-2.7498-.68242-5.6246-.68242-8.3744 0-1.4662.40245-3.0271.27758-4.4106-.35286l-10.5033-4.82232v19.254l1.09384.5999c1.59885.8821 2.88499 2.2381 3.68144 3.8813l-.61162.5058c-.77739.5849-1.30509 1.442-1.47739 2.3994-.17231.9575.02351 1.9448.54821 2.764.5995.7848 1.4733 1.3141 2.44645 1.482h.42342c.31753.0253.63682.0174.95271-.0235-.00603.7933.24119 1.568.7057 2.2112.33112.4339.75839.785 1.2482 1.0259.48982.2408 1.02884.3647 1.57464.362h.8233c-.1033.8935.1456 1.7922.694 2.5052.5942.7927 1.4698 1.3274 2.4464 1.4938h.4117c.8405.0453 1.671-.1997 2.3523-.694l.3646-.2823c.0714.522.2693 1.0186.5764 1.4467.5063.6891 1.2618 1.1534 2.1053 1.2938h.3529c.7265.0354 1.4436-.176 2.0347-.5998h.0589l.4351.6116c.3505.4928.8695.84 1.4588.9757.5894.1357 1.208.0504 1.7386-.2395.5307-.29.9366-.7646 1.1407-1.3339.2041-.5692.1923-1.1936-.0333-1.7547l.0824.1177c.3434.5247.8579.9145 1.456 1.1031.5981.1887 1.2431.1646 1.8255-.0681.6021-.2494 1.0898-.7139 1.3681-1.3031s.3273-1.261.1374-1.8844c.4351.4891 1.0341.8022 1.6841.8802.6499.078 1.306-.0845 1.8444-.4567.533-.3501.9216-.8807 1.0945-1.4944s.1183-1.2692-.1535-1.846c.2494.2811.5518.5104.8898.6746.3381.1643.7052.2603 1.0803.2827.3752.0224.7511-.0293 1.1063-.1522.3551-.1229.6826-.3145.9637-.564.2812-.2494.5104-.5518.6746-.8898.1643-.3381.2604-.7051.2828-1.0803.0223-.3752-.0294-.7511-.1523-1.1062-.1228-.3552-.3145-.6827-.5639-.9638l-1.3644-1.9525 2.9757-3.4697c.7805-.9153 1.7112-1.6909 2.7523-2.2935l1.4702-.8469v-2.2935l-2.023 1.1762c-1.1612.6551-2.1998 1.5067-3.0698 2.517l-3.2228 3.6696c-.5209-.4744-1.1987-.7397-1.9033-.745-.7046-.0052-1.3862.25-1.9142.7167-.5279.4666-.8648 1.1119-.9461 1.8118-.0812.6999.0989 1.4051.5059 1.9803v.1176c-.458-.3166-1.0016-.4862-1.5585-.4862-.5568 0-1.1004.1696-1.5584.4862v.0588c-.4159.2902-.7393.6943-.9312 1.1637-.192.4694-.2443.9843-.1509 1.4827l-.3058.2235c-.4405-.2556-.9451-.3793-1.4539-.3564s-1.0002.1916-1.4159.4858c-.3816.258-.6903.61-.8963 1.0221-.206.412-.3024.8701-.2799 1.3302l-.8469.5411c-.3258-.0703-.6624-.0743-.9898-.0116-.3273.0626-.6387.1906-.9156.3762-.3256.2378-.5902.5494-.7721.9092-.182.3598-.2761.7577-.2747 1.1609l-.4234.2705c-.1393.114-.303.1945-.4784.2353s-.3577.0407-.5331-.0001c-.3667-.0716-.6937-.277-.9174-.5763-.1161-.1383-.1987-.3015-.2416-.4769-.0428-.1755-.0447-.3584-.0054-.5346.0797-.3664.2884-.692.5881-.9174l4.6341-3.411c.1156-.0732.2115-.1736.2792-.2926s.1051-.2527.1089-.3895c.0048-.1271-.016-.2538-.061-.3727-.0451-.1189-.1134-.2276-.2011-.3197s-.1929-.1657-.3095-.2165c-.1166-.0507-.2422-.0776-.3693-.0791-.1914-.0025-.3793.0506-.541.1529l-7.3394 5.3163c-.4188.2891-.9308.4108-1.4349.3411-.2501-.0366-.4899-.1244-.7044-.258-.2146-.1335-.3992-.31-.5424-.5183-.1403-.206-.2381-.438-.2875-.6824-.0494-.2443-.0494-.4961-.0001-.7405.0493-.2443.147-.4764.2873-.6825.1403-.206.3203-.382.5296-.5175l8.692-6.1866c.1032-.0914.186-.2037.2428-.3294.0567-.1257.0862-.262.0865-.3999.0002-.2435-.0941-.4777-.263-.6532-.1689-.1754-.3993-.2786-.6427-.2877-.1363-.0089-.2728.0154-.3977.0707s-.2346.14-.3197.2468l-8.5744 6.1279c-.2027.1196-.3853.2704-.541.447-.4676.3164-1.0281.4664-1.5912.4259-.5632-.0406-1.09641-.2693-1.51391-.6494-.26417-.3806-.38437-.8428-.33912-1.3039s.253-.8911.58612-1.2131l.85861-.5881 9.527-6.5043c.1157-.0722.211-.1727.2769-.2921s.1001-.2537.0995-.39c.0095-.1555-.0212-.3107-.0892-.4508s-.1709-.2603-.2989-.349c-.1506-.1091-.3317-.1678-.5176-.1678-.1858 0-.3669.0587-.5175.1678l-10.19742 6.8924c0 .1176-.17643.1646-.247.2234l-.98798.7175c-.4063.2641-.89879.3612-1.37493.2713-.47614-.09-.89922-.3602-1.18116-.7543-.28193-.3941-.40098-.8817-.33236-1.3614s.31963-.9144.70076-1.2137l19.23049-14.1141c1.0713.7164 1.9841 1.6451 2.6817 2.7287 1.8936 5.8809 4.2342 5.9633 5.6691 5.2576.3561-.1863.6337-.494.7825-.8672.1489-.3732.1592-.7874.0291-1.1676-.5743-2.2029-.9677-4.449-1.1762-6.716-.5293-1.17617-2.2347-2.35235-4.1166-3.32857l6.1749.09409z" fill="#10182e"/></svg>