<svg fill="none" height="43" viewBox="0 0 44 43" width="44" xmlns="http://www.w3.org/2000/svg"><path d="m43.9998 24.4206s-.1677-4.7917-1.6052-6.888c-.3704-.4311-.8506-.754-1.3896-.9344l-.2036-.0719c-.5483-.2558-1.1125-.4758-1.6891-.6588l-.4792-.1917c-.587-.2875-1.0781-.611-1.1979-.9224.0107-.0633.0054-.1283-.0156-.189-.0209-.0607-.0567-.1152-.1042-.1584.7238-.8182 1.2159-1.8149 1.4255-2.887.1951-.2117.3169-.4805.3474-.7667.1198-.4193.2636-1.19792 0-1.50938.2306-.65905.3009-1.36353.2051-2.05514-.0959-.6916-.355-1.35044-.7561-1.92197-.5331-.61905-1.2443-1.05835-2.0365-1.25783l-.6349-.21562c-.5643-.17776-1.1408-.31389-1.725-.4073h-.1437c-.0831.01616-.1685.01616-.2516 0-.2335-.00771-.466.03308-.6828.11979-.6122.24822-1.1683.6168-1.6354 1.0839s-.8357 1.02322-1.0839 1.6354c-.2276.95293-.2276 1.94605 0 2.89898l-.1318.11979c-.1851.4861-.1851 1.02328 0 1.50938.036.2847.1571.5519.3474.7667.1819 1.0776.6635 2.0822 1.3896 2.899-.0878.0847-.1571.1867-.2036.2994-.1079.3355-.6829.6948-1.3297 1.0063-.1649-.5292-.3942-1.0362-.6829-1.5094-.3735-.4276-.8526-.7498-1.3896-.9344l-.2156-.0599c-.5432-.2613-1.1035-.4855-1.6771-.6708l-.4792-.1917c-.5869-.2875-1.0781-.6109-1.1979-.9224.0146-.0622.0123-.1273-.0067-.1883-.0189-.0611-.0538-.116-.1011-.1591.7204-.8189 1.2085-1.81571 1.4136-2.88697.1946-.21327.32-.48062.3593-.76668.1198-.43125.2636-1.19792 0-1.50939.2353-.65763.3091-1.36215.2153-2.05426s-.3525-1.35156-.7543-1.92285c-.5433-.63765-1.2719-1.089913-2.0844-1.293761l-.6229-.215627c-.5615-.185229-1.139-.317577-1.7251-.3953153h-.1437c-.0831.0161572-.1685.0161572-.2516 0-.2435.0050491-.4837.0579643-.7068.1557303-.6063.253179-1.1566.623776-1.6192 1.090463-.4626.46669-.8283 1.02025-1.0761 1.62883-.2272.95702-.2272 1.95394 0 2.91096-.0494.03342-.0938.07376-.1318.11979-.2635.3474-.1078 1.07814 0 1.50939.0383.28048.1593.5432.3474.75469.1779 1.07777.6505 2.0853 1.3657 2.911-.0871.0781-.153.177-.1917.2875-.2755.8505-3.5938 1.8448-3.5938 1.8448-.5387.1869-1.0183.5135-1.3896.9463-.2847.4482-.5102.9314-.6708 1.4375-.587-.2994-1.0781-.6229-1.1979-.9343.0107-.0633.0053-.1283-.0156-.189s-.0568-.1152-.1042-.1584c.7298-.8142 1.2227-1.8126 1.4255-2.887.1951-.2117.3168-.4805.3474-.7667.1318-.4193.2755-1.19794 0-1.5094.2356-.66024.3085-1.36755.2126-2.06196-.096-.69442-.3579-1.35547-.7636-1.92713-.5428-.5952-1.2526-1.01272-2.0365-1.19793l-.611-.27552c-.5572-.18573-1.13075-.3181-1.71299-.39532-.04714-.01217-.09661-.01217-.14375 0-.08318.01505-.16838.01505-.25157 0-.23721-.00602-.47329.03468-.69479.1198-.61334.25362-1.16922.62834-1.6344 1.10175s-.83009 1.03578-1.07292 1.65348c-.24186.95119-.24186 1.94779 0 2.89898-.05254.03437-.0974.07923-.13177.13177-.26354.33542-.11979 1.07818 0 1.50938.03303.282.15467.5462.3474.7547.18829 1.0791.66892 2.086 1.3896 2.911-.08708.0781-.15301.177-.19167.2875-.27553.8505-3.59378 1.8448-3.59378 1.8448-.5393.1859-1.01908.5126-1.3896.9463-1.41355 2.1683-1.58126 6.924-1.58126 6.924 0 .7787 1.09011 13.9559 11.3204 17.7294.1677-1.8928.6349-5.4386 1.9287-7.3433.4592-.5445 1.0544-.9578 1.725-1.198 0 0 4.1208-1.1979 4.4563-2.3239.0423-.1444.1255-.2733.2396-.3714-.8831-1.0211-1.4712-2.2635-1.7011-3.5938-.2411-.2613-.3922-.5929-.4313-.9463-.1557-.5391-.3354-1.4615 0-1.8928.0468-.0609.1035-.1136.1678-.1557-.2834-1.1812-.2834-2.4126 0-3.5938.312-.765.7736-1.46 1.3579-2.0442.5842-.5842 1.2792-1.0458 2.0442-1.3579.274-.1087.568-.1577.8625-.1437.1072.0161.2162.0161.3234 0 .0554-.011.1124-.011.1677 0 .7316.1072 1.4528.2755 2.1563.5031l.7906.2635c.9941.2494 1.8859.8021 2.5516 1.5813 1.3896 1.5693 1.0063 3.8693.6948 4.9834l.0599.0599c.3234.4312.1437 1.3656 0 1.8927-.0421.3561-.1927.6907-.4313.9583-.2659 1.335-.8819 2.5753-1.7849 3.5938.0578.0544.1012.1222.1263.1975s.0311.1556.0175.2338c.1318.3953.7427.8026 1.4734 1.1979.1797.0839.3714.1557.599.2396.7196.2351 1.4238.5152 2.1083.8385l.2756.0839c.6706.2401 1.2657.6534 1.725 1.1979 1.0771 2.0662 1.7096 4.335 1.8568 6.6605 9.4756-3.498 9.3198-17.2502 9.3198-17.2502z" fill="#10182e"/></svg>