<svg fill="none" height="42" viewBox="0 0 36 42" width="36" xmlns="http://www.w3.org/2000/svg"><g fill="#10182e"><path d="m0 31.6307c.119164-.0936.244174-.1796.374269-.2573.421053-.2339.842101-.4678 1.274851-.69l2.5848-1.2515 1.84795-.8655 1.85965-.8421 1.80117-.7719.78361-.3626c.179-.0822.3728-.127.5696-.1318.1969-.0048.3927.0305.5754.1039.1828.0733.3487.183.4876.3226.139.1395.2481.3059.3206.4889.2924.6784.5731 1.3684.8655 2.0468l.6433 1.4737c.1988.4678.3977.924.6082 1.3801s.4912 1.0877.7485 1.6374.5497 1.1111.8304 1.6725c.0185.0528.042.1038.0702.1521 0 0 .0585.0819.0819.0702s.0585-.0585.0819-.0936c.0063-.0387.0063-.0782 0-.117l.1052-2.3976c0-.6433.0702-1.2866.0936-1.9299 0-.269 0-.5263 0-.7836.0177-.0927.0177-.188 0-.2807-.1755-.3976-.3626-.7836-.5497-1.1696-.1872-.3859-.4912-1.0526-.7486-1.5789-.2573-.5263-.3508-.7018-.5146-1.0527-.0715-.1483-.1227-.3057-.152-.4678-.0231-.2.0342-.401.1592-.5589.1249-.1579.3075-.2597.5074-.2832h5.0878c.2046-.0179.4103.0184.5965.1053.1543.0776.277.2061.3473.3639.0704.1577.084.3349.0386.5016-.0266.1132-.0658.223-.1169.3275l-1.1696 2.3391-.6667 1.4035c-.0723.1407-.1046.2984-.0936.4562 0 .69.0702 1.3684.0936 2.0585.0585.9941.1053 1.9883.152 2.9941-.0054.0506-.0054.1015 0 .1521 0 0 .0819.0701.1287 0 .3275-.6667.655-1.3217.9591-1.9883.3041-.6667.7134-1.5556 1.0526-2.3392s.7485-1.7076 1.1696-2.5614c.2105-.4796.4093-.9591.6082-1.4503.1387-.3577.4114-.6472.7602-.807.1835-.0841.383-.1277.5848-.1277s.4013.0436.5848.1277c.6316.2573 1.2515.538 1.883.8187l1.4152.6316 1.848.8538 1.8947.8888 1.9883.9708c.4632.222.9123.472 1.3451.7485l.1988.1521c-.028.0698-.0633.1364-.1053.1988l-.4678.6316c-.8414 1.122-1.7935 2.1564-2.8421 3.0877-.461.4217-.9494.8124-1.462 1.1696-.3626.2573-.7134.5263-1.0877.7719-.3743.2457-.5263.3392-.7953.4913-.269.152-.6199.3742-.9474.5497l-1.0409.5029c-.1212.0694-.2461.1318-.3743.1871-.1871.0936-.3743.1638-.5614.2456l-.8889.3392c-.2257.0902-.456.1683-.6901.2339l-.7719.234-.6082.152h-.1286-.1053l-.7953.1521-1.0176.1871h-.152l-.655.0819-.6199.0584c-.2356.0093-.4702.0367-.7017.0819-.2409.0289-.4843.0289-.7252 0h-.5614c-.3912.0148-.7829-.0087-1.1696-.0702-.2807-.0584-.5731 0-.8655-.0818h-.4093-.3743l-.5029-.0819h-.0936c-.3508-.0585-.69-.0936-1.0292-.1754-.2367-.0422-.4709-.0968-.7018-.1638-.1858-.0684-.3777-.1193-.5731-.152l-.3859-.117-.6082-.1871-.5497-.2222-.3158-.1287c-.3041-.117-.61989-.2222-.92399-.3509l-1.09941-.5263c-.32749-.1637-.66667-.3275-.98246-.5146s-.58479-.3509-.8655-.5263l-.73684-.4796c-.30409-.1988-.60818-.4093-.90058-.6315-.2924-.2223-.91228-.7252-1.34503-1.1112-.43275-.3859-.97076-.9356-1.45029-1.4269-.46016-.4712-.88988-.9712-1.286554-1.497l-.6315788-.8304c-.0350877-.0234-.0935672-.0936-.0935672-.1638z"/><path d="m18.105.0517868c.5946-.0028665 1.1887.0362169 1.7778.1169592.5445.063024 1.0813.180573 1.6023.350877.3978.112838.7884.249538 1.1696.409357.7784.36051 1.4871.85541 2.0936 1.46199.8271.84663 1.4265 1.88869 1.7427 3.02924.204.68989.2754 1.41217.2105 2.12865-.0819.60819-.1637 1.16959-.2573 1.82456-.0936.65498-.1403.91228-.2105 1.36838-.0138.1024-.0334.2039-.0585.3041-.0165.046-.0174.096-.0026.1426.0148.0465.0445.0868.0845.1147.1869.1588.3401.3534.4506.5724.1105.2189.176.4578.1927.7025.0524.3372.0524.6804 0 1.0175-.0402.3746-.1226.7434-.2457 1.0995-.065.2255-.1782.4343-.3316.612-.1535.1777-.3436.32-.5572.4172-.1639.0796-.3205.1736-.4679.2807-.225.2016-.3633.4824-.386.7836-.0907.4473-.2319.8829-.421 1.2983-.4816 1.0099-1.1711 1.9067-2.0234 2.6316-.5446.4753-1.1553.8693-1.8129 1.1695-.5747.2671-1.1855.4483-1.8128.5381-.3677.0547-.7398.0743-1.1111.0584-.6922-.035-1.3747-.1771-2.0234-.421-1.2912-.529-2.4235-1.3832-3.2866-2.4795-.4704-.561-.8421-1.1977-1.0994-1.8831-.1217-.2987-.2157-.608-.2807-.924-.0335-.1202-.0765-.2375-.1287-.3508-.0408-.1214-.1052-.2335-.1895-.3298-.0843-.0964-.1868-.1751-.3017-.2316l-.2456-.1404c-.19389-.0876-.36708-.2152-.50818-.3744-.1411-.1593-.24692-.3465-.31053-.5496-.25051-.6721-.35806-1.3892-.31579-2.1052.0042-.4224.14356-.8323.39766-1.1696.07611-.0838.15819-.162.24562-.2339.03931-.0293.0699-.0687.08845-.114.01855-.0454.02436-.0949.01681-.1434-.14035-.4561-.22222-.9941-.30409-1.50873-.08187-.51462-.21053-1.28655-.2807-2.02339-.05817-.42296-.05817-.85189 0-1.27485.08636-.51397.23156-1.0163.43274-1.49708.33336-.87689.84741-1.67386 1.50881-2.33918.5759-.56866 1.2443-1.03534 1.9766-1.38012.6403-.307597 1.3159-.535422 2.0117-.678361.9761-.207852 1.973-.3020461 2.9707-.2807022z"/></g></svg>