<svg width="42" height="43" fill="none" xmlns="http://www.w3.org/2000/svg"><path d="M19.684 2.238a5.56 5.56 0 00-9.483 5.692 1.13 1.13 0 01-1.023 1.661 1.203 1.203 0 01-1.035-.65 7.894 7.894 0 01-.746-3.117 6.173 6.173 0 00-5.054 8.063 8.158 8.158 0 013.695-.914 1.203 1.203 0 110 2.286c.606.963.904 2.088.854 3.225a1.204 1.204 0 01-1.203 1.107 1.203 1.203 0 01-1.108-1.203A3.117 3.117 0 003.522 15.8a6.017 6.017 0 002.516 11.492 1.144 1.144 0 010 2.287 8.17 8.17 0 01-2.407-.373A4.5 4.5 0 007 36.643h.144a7.22 7.22 0 01.3-1.65 1.203 1.203 0 012.203.663 5.127 5.127 0 003.393 6.426 5.776 5.776 0 004.104-.337 4.693 4.693 0 002.563-2.924v-9.303a5.379 5.379 0 01-2.503-.938 5.428 5.428 0 01-3.069 1.059 4.236 4.236 0 01-2.406-.758 1.203 1.203 0 01-.301-1.589 1.203 1.203 0 011.588-.3 2.407 2.407 0 002.6-.06 5.789 5.789 0 01-.867-2.143 1.203 1.203 0 01.915-1.336 1.106 1.106 0 011.3.903 3.526 3.526 0 002.78 2.852V12.937a5.777 5.777 0 00-2.564-.879 3.116 3.116 0 00-.927 2.611 1.13 1.13 0 01-.974 1.276h-.145a1.203 1.203 0 01-1.13-.987 5.271 5.271 0 01.228-2.322 4.995 4.995 0 00-.638.397 1.204 1.204 0 01-1.589-.29 1.132 1.132 0 01.241-1.588 7.81 7.81 0 017.497-.794V2.238h-.06zm18.749 26.968c-.78.242-1.59.368-2.407.374a1.143 1.143 0 010-2.287 6.018 6.018 0 002.503-11.468 3.2 3.2 0 00-1.07 2.587 1.203 1.203 0 01-1.108 1.203 1.131 1.131 0 01-1.13-1.107 5.414 5.414 0 01.854-3.225h-.06a1.203 1.203 0 110-2.286 8.123 8.123 0 013.694.878 6.138 6.138 0 00-5.054-8.063 7.69 7.69 0 01-.747 3.117 1.203 1.203 0 01-1.035.65 1.203 1.203 0 01-.48-.108 1.132 1.132 0 01-.542-1.517 5.596 5.596 0 00.204-4.272A5.74 5.74 0 0022.14 2.25v6.402a3.61 3.61 0 001.805-.722 1.203 1.203 0 011.649.205 1.203 1.203 0 01-.3 1.6 6.114 6.114 0 01-3.19 1.204v6.546a5.908 5.908 0 013.538 2.166 4.813 4.813 0 015.367 1.505 1.123 1.123 0 11-1.78 1.372 2.142 2.142 0 00-2.07-.83 2.234 2.234 0 00-.41.06c.202.74.25 1.514.145 2.274a1.204 1.204 0 01-1.132.987h-.156a1.203 1.203 0 01-.975-1.288 3.61 3.61 0 00-.782-2.672 3.61 3.61 0 00-1.745-1.203V31.77a3.827 3.827 0 002.142.975 3.67 3.67 0 002.696-.735 1.204 1.204 0 011.624.205 1.204 1.204 0 01-.18 1.6 5.885 5.885 0 01-3.61 1.204 6.348 6.348 0 01-.819 0 6.51 6.51 0 01-1.853-.505v4.26h.084a4.813 4.813 0 002.648 2.924 5.836 5.836 0 004.127.337 5.126 5.126 0 003.418-6.378 1.203 1.203 0 012.19-.662 7.22 7.22 0 01.35 1.649h.144a4.502 4.502 0 003.417-7.438h-.048z" fill="#10182E"/></svg>