<svg fill="none" height="36" width="48" xmlns="http://www.w3.org/2000/svg"><g fill="#10182e"><path d="M46.69 33L30.12 18.1a.709.709 0 010-1.05l16.57-14.9a.7.7 0 011.17.52v29.82a.7.7 0 01-1.17.51zM33.13 18.1l11.55 10.4a.7.7 0 001.17-.5V7.18a.7.7 0 00-1.17-.52L33.13 17.05a.709.709 0 000 1.05zM45 35.15H2.82a.7.7 0 01-.47-1.22L19 19a.7.7 0 01.94 0l3.57 3.22a.7.7 0 00.94 0L28 19a.7.7 0 01.94 0l16.6 14.94a.7.7 0 01-.54 1.21zm-37-2h31.8a.7.7 0 00.47-1.22L28.91 21.69a.7.7 0 00-.94 0l-3.57 3.22a.7.7 0 01-.94 0l-3.57-3.22a.7.7 0 00-.94 0L7.59 31.92a.7.7 0 00.47 1.22z"/><path d="M23.46 20.23L2.35 1.22A.7.7 0 012.82 0H45a.7.7 0 01.47 1.22l-21.11 19a.7.7 0 01-.9.01zm-15.87-17l15.87 14.29a.7.7 0 00.94 0L40.27 3.23A.7.7 0 0039.8 2H8.06a.7.7 0 00-.47 1.23zM0 32.49V2.67a.7.7 0 011.17-.52l16.56 14.9a.709.709 0 010 1.05L1.17 33A.7.7 0 010 32.49zM2 7.18V28a.7.7 0 001.17.53L14.73 18.1a.709.709 0 000-1.05L3.18 6.66A.7.7 0 002 7.18z"/></g></svg>