<svg fill="none" height="26" viewBox="0 0 26 26" width="26" xmlns="http://www.w3.org/2000/svg"><path d="m23.4053 0h-20.74409c-.7058 0-1.38269.280376-1.88176.77945-.499074.49907-.77945 1.17596-.77945 1.88176v20.74409c.0173604.6942.305382 1.3541.802586 1.8389s1.164204.756 1.858624.7558h20.74409c.6829-.0169 1.3331-.2957 1.8161-.7786.4829-.483.7617-1.1332.7786-1.8161v-20.74409c.0002-.69442-.271-1.36142-.7558-1.858624s-1.1447-.7852256-1.8389-.802586zm-1.3306 2.66121v3.83214h-2.6612c-.1783-.01401-.3575.01079-.5253.0727-.1678.06192-.3202.15947-.4467.28594-.1264.12647-.224.27885-.2859.44664-.0619.1678-.0867.34702-.0727.52532v2.66125h3.8987v3.8986h-3.7789v9.1014h-3.8987v-9.1812h-2.6612v-3.8987h2.6612v-3.25996c.0309-1.191.5223-2.32364 1.3709-3.15986.8487-.83622 1.9884-1.3109 3.1798-1.32427z" fill="#fff"/></svg>