<svg fill="none" height="38" viewBox="0 0 53 38" width="53" xmlns="http://www.w3.org/2000/svg"><path d="m51.8591 5.79525c-.3045-1.11687-.8952-2.13493-1.7138-2.9535-.8186-.81858-1.8366-1.40932-2.9535-1.71381-4.1358-1.12794-20.7177-1.12794-20.7177-1.12794s-16.56901 0-20.71774 1.08904c-1.11626.31834-2.13187.91843-2.94924 1.74261s-1.40902 1.84474-1.71808 2.9636c-1.08904 4.14873-1.08904 12.74435-1.08904 12.74435s0 8.6864 1.08904 12.7314c.30213 1.1181.89208 2.1374 1.71102 2.9563.81893.819 1.83825 1.4089 2.9563 1.7111 4.18762 1.1409 20.74364 1.1409 20.74364 1.1409s16.5819 0 20.7436-1.0891c1.1169-.3045 2.135-.8952 2.9535-1.7138.8186-.8186 1.4094-1.8366 1.7139-2.9535 1.089-4.1487 1.089-12.7444 1.089-12.7444s0-8.63452-1.1409-12.78325zm-30.6617 20.74365v-15.9337l13.8075 7.9344z" fill="#1c1e3b"/></svg>