<svg fill="none" height="24" viewBox="0 0 16 24" width="16" xmlns="http://www.w3.org/2000/svg"><path d="m8.01926 0c-2.12576.00349921-4.16346.849506-5.66661 2.35265-1.50314 1.50315-2.34914757 3.54084-2.35264678 5.66661-.00107269 1.1909.26576478 2.36684.78075278 3.44064-.007069.0214-.007069.0446 0 .0661l6.060754 11.7378c.11145.2093.27711.3849.47964.5083.20253.1233.43451.19.67164.193.23714-.003.46911-.0697.67165-.193.20253-.1234.36819-.299.47963-.5083l6.07403-11.7245v-.0662c.5819-1.2195.8463-2.56618.7686-3.91514s-.495-2.65641-1.2131-3.80096c-.7182-1.14455-1.7139-2.08908-2.8947-2.7459-1.1808-.656811-2.50846-1.00460994-3.85964-1.0111zm0 12.2141c-.82967 0-1.64071-.246-2.33056-.7069-.68984-.461-1.22751-1.1161-1.54501-1.88263-.31751-.76651-.40058-1.60997-.23872-2.4237s.56139-1.56118 1.14805-2.14785c.58667-.58667 1.33413-.98619 2.14786-1.14805s1.65718-.07879 2.4237.23871 1.42162.85517 1.88262 1.54502c.4609.68985.707 1.50089.707 2.33056 0 .55088-.1086 1.09636-.3194 1.60531-.2108.50893-.5198.97143-.9093 1.36093s-.852.6985-1.36092.9093c-.50895.2108-1.05444.3193-1.60532.3193z" fill="#10182e"/></svg>