<svg width="48" height="43" fill="none" xmlns="http://www.w3.org/2000/svg"><path d="M46.506 9.032A14.383 14.383 0 0033.646.159h-.572a16.99 16.99 0 00-9.214 2.73 17.064 17.064 0 00-9.24-2.73h-.573A14.419 14.419 0 001.214 9.032 14.699 14.699 0 003.81 24.755l.122.121L22.275 42.38a2.316 2.316 0 003.157 0l18.356-17.503.122-.122a14.7 14.7 0 002.596-15.722zM40.57 21.634l-16.71 15.93-16.71-15.93a10.165 10.165 0 01-1.743-10.823 9.75 9.75 0 018.8-6.094h.414a12.188 12.188 0 017.752 2.755 2.291 2.291 0 002.79.121l.135-.121a12.262 12.262 0 017.776-2.743h.427a9.75 9.75 0 018.8 6.094 10.19 10.19 0 01-1.731 10.811z" fill="#1D1D1B"/></svg>