<svg width="26" height="27" fill="none" xmlns="http://www.w3.org/2000/svg"><path d="M3.347.001h19.306a3.264 3.264 0 013.345 3.344v19.307a3.265 3.265 0 01-3.345 3.384H3.347a3.265 3.265 0 01-3.345-3.384V3.345A3.264 3.264 0 013.347.001zm15.616 2.891a1.186 1.186 0 00-1.173 1.173v2.811a1.186 1.186 0 001.173 1.173h2.944a1.172 1.172 0 001.173-1.173V4.065a1.173 1.173 0 00-1.173-1.173h-2.944zm4.13 8.115h-2.292c.22.726.332 1.48.333 2.238a7.994 7.994 0 01-8.087 7.835 7.994 7.994 0 01-8.101-7.835 7.355 7.355 0 01.386-2.238H2.894v11.006a1.04 1.04 0 001.039 1.025h18.12a1.039 1.039 0 001.04-1.025V11.007zM13.047 7.889a5.156 5.156 0 00-5.237 5.077 5.156 5.156 0 005.237 5.063 5.143 5.143 0 005.223-5.063 5.156 5.156 0 00-5.223-5.077z" fill="#fff"/></svg>