<svg xmlns="http://www.w3.org/2000/svg" viewBox="0 0 1000 1000"><path d="M478.33 11.11c-43.51 6.93-87.78 29.07-117.81 59.29-42.16 42.16-62.56 99.14-60.06 167.29.77 20.79.38 25.03-2.7 30.99-12.51 24.64 8.47 89.9 34.65 107.23 5.97 3.85 8.47 7.7 13.67 20.79 33.88 83.93 103.75 137.45 168.05 128.4 58.52-8.28 111.46-56.79 140.34-128.6 5.01-12.51 7.7-16.75 12.9-20.02 7.12-4.23 18.87-19.25 25.22-31.76 11.93-23.87 17.52-62.76 10.59-75.85-2.31-4.81-3.08-14.05-3.47-45.62-.58-42.35-2.89-58.91-11.74-84.9-14.05-41.2-39.27-66.03-74.69-73.34-7.51-1.54-11.55-3.27-12.13-5.39-6.35-21.75-25.6-37.73-55.25-46.01-12.33-3.27-52.37-4.82-67.57-2.5zM458.5 178.78c25.41 5.97 57.37 5.97 83.93 0 39.85-8.85 63.14-2.31 85.86 24.26 19.06 22.33 20.98 27.53 21.75 57.94C652.35 347.8 620.59 430 569 470.43c-40.04 31.18-75.08 35.8-114.93 15.01-62.95-32.92-103.95-119.16-104.15-219.26 0-33.88 2.12-39.46 23.87-65.07 20.99-24.64 46.01-31.19 84.71-22.33z"/><path d="M350.12 524.33c-21.37 14.63-57.94 33.5-101.26 52.36-58.52 25.41-87.59 41.97-99.72 56.41-25.8 30.42-40.04 107.03-45.43 241.02-2.31 58.33-1.54 68.92 6.74 83.35 5.97 10.2 20.21 23.29 31.38 28.3l9.05 4.24h698.8l10.97-5.39c14.05-6.93 28.88-22.91 33.69-36.38 2.89-8.85 3.47-15.4 2.89-47.74-1.73-136.1-18.67-235.24-45.82-267.39-12.13-14.44-41.2-30.99-98.95-56.02-51.79-22.52-84.7-39.85-108.77-57.18-19.64-14.24-25.8-10.97-31.96 17.71-5.39 25.8-20.21 70.07-32.15 97.02-11.94 26.37-35.04 66.61-36.96 64.3-.77-.77-4.04-11.36-7.31-23.48l-5.97-21.95 5.2-6.74c4.23-5.58 5.2-9.24 5.77-20.98 1.16-19.44-.58-26.57-8.66-35.23-7.7-8.66-15.59-11.55-31.38-11.55-14.82 0-23.29 2.89-30.22 10.01-8.28 8.47-10.2 14.63-10.2 31.38 0 15.21 1.92 22.72 7.7 28.88 3.66 3.85 3.66 4.24-2.5 26.37-3.47 12.51-6.74 23.1-7.51 23.68-1.73 1.73-25.6-40.23-36.19-64.3-12.9-28.88-25.6-66.42-31.76-93.94-7.52-34.47-11.37-36.01-39.47-16.76zm25.98 69.11c22.52 69.5 58.14 131.1 105.3 181.92 17.13 18.48 20.6 18.48 37.73 0 29.65-31.96 53.13-65.84 73.54-105.88 18.87-37.34 34.84-79.31 42.16-110.88l2.31-9.82 20.41 12.12c10.97 6.54 22.71 13.09 25.79 14.24l5.58 2.31v20.98c0 15.59-.58 20.98-2.31 20.98-1.35 0-7.12 2.12-12.51 4.81-20.6 9.43-40.04 33.69-48.7 60.64-5.97 19.25-32.73 147.84-32.73 158.05 0 11.74 2.5 18.48 10.2 26.57 5.97 6.16 22.71 15.59 28.11 15.59 1.35 0 5.58 2.5 9.24 5.77 11.17 9.82 27.72 6.74 34.07-6.54 3.85-8.28 3.85-11.36 0-19.63-5.39-11.36-21.56-16.17-31.19-9.24-8.47 5.97-23.49-1.93-23.49-12.32 0-12.32 29.26-143.99 35.23-158.24 7.51-18.29 23.29-35.04 36-38.5 26.18-7.12 50.82 12.71 62.37 49.86 2.5 8.09 10.78 44.85 18.48 81.62 10.4 49.28 13.67 67.95 12.32 70.26-1.16 1.93-5.2 5.01-8.86 7.12-6.74 3.66-7.12 3.66-14.82.19-16.75-7.7-32.92 1.92-32.92 19.25 0 7.51.96 9.82 6.54 15.4 9.43 9.43 21.37 9.05 32.92-1.15 2.12-1.92 8.28-4.81 13.48-6.55 18.29-5.97 31.57-21.75 31.76-37.73 0-10.2-30.42-150.73-35.8-164.98-11.17-29.84-29.26-50.05-51.79-57.75l-8.66-2.89v-28.47l10.2 4.43c5.39 2.5 22.33 10.01 37.54 16.75 29.07 12.71 55.44 27.53 64.49 36.19 23.68 22.52 40.23 122.05 42.16 254.49.58 33.69.58 33.69-4.62 42.74-4.04 6.54-7.89 10.2-15.4 13.86l-10.01 5H160.31l-10.01-5c-7.51-3.66-11.36-7.32-15.4-13.86l-5.2-9.05.58-34.65c1.35-104.72 13.48-197.9 30.22-235.63 6.35-14.05 12.9-20.41 33.11-32.53 13.09-7.89 84.13-40.81 87.98-40.81.58 0 1.15 43.89 1.15 97.6v97.79l-8.66 3.66c-5 1.92-11.94 7.12-16.17 12.13-23.1 26.18-15.4 65.26 15.98 82.01 11.17 5.97 35.42 5.97 46.39 0 39.46-20.79 38.31-75.85-1.73-94.52l-8.85-4.23V579.4l17.9-9.63c9.63-5.39 21.56-12.32 26.37-15.4l8.66-5.58 2.5 8.86c1.35 4.79 6.35 20.96 10.97 35.79z"/></svg>