<svg width="47" height="42" fill="none" xmlns="http://www.w3.org/2000/svg"><path d="M36.462 7.54a5.387 5.387 0 002.716-.742L46.953 2.2V0l-8.727 5.152a4.34 4.34 0 01-2.176.576l-11.585-.141c-.589-.212-1.047-.341-1.177-.412a17.384 17.384 0 00-8.374 0 6.492 6.492 0 01-4.41-.353L0 0v19.254l1.094.6a8.833 8.833 0 013.681 3.881l-.611.506a3.858 3.858 0 00-.93 5.163 3.916 3.916 0 002.447 1.482h.423c.318.026.637.018.953-.023a3.729 3.729 0 00.706 2.211 3.53 3.53 0 002.823 1.388h.823a3.458 3.458 0 00.694 2.505 3.87 3.87 0 002.446 1.494h.412a3.67 3.67 0 002.352-.694l.365-.282c.071.522.27 1.018.576 1.446a3.281 3.281 0 002.106 1.294h.352a3.223 3.223 0 002.035-.6h.06l.434.612a2.47 2.47 0 004.305-2.352l.082.117a2.717 2.717 0 003.282 1.035 2.623 2.623 0 001.505-3.187 2.682 2.682 0 003.529.423 2.647 2.647 0 00.94-3.34 2.86 2.86 0 104.282-3.8l-1.364-1.952 2.976-3.47c.78-.915 1.71-1.69 2.752-2.293l1.47-.847v-2.293l-2.023 1.176a11.523 11.523 0 00-3.07 2.517l-3.223 3.67a2.859 2.859 0 00-4.257 3.763v.118a2.74 2.74 0 00-3.117 0v.059a2.635 2.635 0 00-1.082 2.646l-.306.224a2.659 2.659 0 00-2.87.13 2.68 2.68 0 00-1.176 2.351l-.847.541a2.48 2.48 0 00-1.905.365 2.551 2.551 0 00-1.047 2.07l-.424.27a1.176 1.176 0 01-1.011.236 1.506 1.506 0 01-.918-.576 1.176 1.176 0 01-.247-1.012c.08-.366.289-.692.589-.917l4.634-3.411a.835.835 0 00.388-.682.951.951 0 00-.941-.988.988.988 0 00-.541.152l-7.34 5.317a2.03 2.03 0 01-1.434.34 1.835 1.835 0 01-1.535-1.458 1.87 1.87 0 01.817-1.94l8.692-6.187a.978.978 0 00.33-.73.941.941 0 00-.906-.94.846.846 0 00-.718.317l-8.574 6.128c-.203.12-.385.27-.541.447a2.517 2.517 0 01-3.105-.223 1.952 1.952 0 01.247-2.517l.858-.588 9.527-6.505a.8.8 0 00.377-.682.906.906 0 00-.388-.8.882.882 0 00-1.035 0L8.68 27.852c0 .117-.176.165-.247.223l-.988.718a1.882 1.882 0 01-2.187-3.058l19.23-14.114a9.411 9.411 0 012.682 2.728c1.893 5.881 4.234 5.964 5.669 5.258a1.682 1.682 0 00.811-2.035 41.796 41.796 0 01-1.176-6.716c-.53-1.176-2.234-2.352-4.116-3.328l6.174.094 1.93-.083z" fill="#10182E"/></svg>