<svg fill="none" height="542" width="462" xmlns="http://www.w3.org/2000/svg"><g fill="#fff" opacity=".36"><path d="M372.324 101.865h-.678a5.359 5.359 0 01-4.692-5.971 39.415 39.415 0 00-14.447-35.69 39.42 39.42 0 00-37.975-6.35 5.35 5.35 0 11-3.605-10.075 50.116 50.116 0 0148.293 8.03 50.124 50.124 0 0118.41 45.363 5.355 5.355 0 01-5.306 4.693z"/><path d="M415.795 124.572a5.349 5.349 0 01-4.641-2.685 40.28 40.28 0 00-38.255-19.882 5.364 5.364 0 01-4.054-1.132 5.365 5.365 0 01-1.985-3.712 5.36 5.36 0 015.105-5.82 50.965 50.965 0 0148.458 25.189 5.368 5.368 0 01-4.628 8.042zm16.366 87.327a5.352 5.352 0 01-5.001-3.455 5.356 5.356 0 011.446-5.904 33.356 33.356 0 008.183-38.882 5.358 5.358 0 019.756-4.424 43.995 43.995 0 01-10.894 51.284 5.297 5.297 0 01-3.49 1.381z"/><path d="M441.724 166.791a5.317 5.317 0 01-4.565-2.557l-25.98-42.193a5.36 5.36 0 013.648-8.289 5.349 5.349 0 014.066 1.054 5.35 5.35 0 011.402 1.622l25.981 42.193a5.34 5.34 0 01.122 5.417 5.344 5.344 0 01-4.674 2.74zm2.635 131.592a5.357 5.357 0 01-4.334-8.49 57.448 57.448 0 00-11.328-79.272 5.356 5.356 0 01-.884-7.48 5.356 5.356 0 017.468-.972 68.108 68.108 0 0113.413 93.989 5.34 5.34 0 01-4.335 2.225zM342.315 438.886a61.035 61.035 0 01-16.993-2.429 5.359 5.359 0 01-3.831-4.559 5.374 5.374 0 011.145-3.939 5.358 5.358 0 015.678-1.795 49.855 49.855 0 0042.016-6.639 49.847 49.847 0 0014.906-15.901 49.847 49.847 0 006.7-20.74 5.355 5.355 0 019.391-2.824 5.359 5.359 0 011.273 3.821 60.662 60.662 0 01-19.517 39.141 60.66 60.66 0 01-40.768 15.838z"/><path d="M408.941 451.544a53.704 53.704 0 01-43.638-22.209 5.365 5.365 0 01-.201-5.952 5.376 5.376 0 011.428-1.528 5.37 5.37 0 013.994-.935 5.358 5.358 0 013.486 2.163 43.01 43.01 0 0059.262 10.152 5.36 5.36 0 017.306 1.433 5.36 5.36 0 01-1.181 7.35 53.184 53.184 0 01-30.456 9.526z"/><path d="M402.817 476.527a5.354 5.354 0 01-5.196-6.632 5.357 5.357 0 011.642-2.727 10.748 10.748 0 003.579-8.632 10.74 10.74 0 00-4.538-8.169 5.356 5.356 0 01-1.506-7.586 5.357 5.357 0 017.643-1.185 21.4 21.4 0 019.107 16.323 21.412 21.412 0 01-7.189 17.253 5.309 5.309 0 01-3.542 1.355z"/><path d="M369.37 499.989a5.358 5.358 0 01-1.636-10.459 64.336 64.336 0 0030.928-21.569 5.35 5.35 0 018.414 6.61 74.786 74.786 0 01-36.056 25.111 5.282 5.282 0 01-1.65.307z"/><path d="M328.021 540.469a47.154 47.154 0 01-36.184-16.877 5.344 5.344 0 01-1.393-3.977 5.351 5.351 0 011.915-3.755 5.356 5.356 0 017.699.879 36.224 36.224 0 0064.057-22.362 5.356 5.356 0 015.357-5.23h.128a5.361 5.361 0 015.23 5.473 47.189 47.189 0 01-9.011 26.517 47.189 47.189 0 01-22.455 16.737 46.497 46.497 0 01-15.343 2.595z"/><path d="M273.859 533.603a38.486 38.486 0 118.272-76.075 5.352 5.352 0 014.325 4.278 5.36 5.36 0 01-2.462 5.562 5.353 5.353 0 01-4.151.618 27.805 27.805 0 00-25.953 7.863 27.802 27.802 0 00-.105 38.473 27.793 27.793 0 0025.909 8.005 27.792 27.792 0 0012.525-6.279 5.356 5.356 0 017.437.604 5.353 5.353 0 01-.379 7.451 38.522 38.522 0 01-25.418 9.5zm-32.834-132.269a6.427 6.427 0 01-.844-.064 5.356 5.356 0 01-4.45-6.124 65.627 65.627 0 0129.823-45.288 65.636 65.636 0 0153.72-7.39 5.35 5.35 0 013.511 2.501 5.36 5.36 0 01-6.567 7.728 54.982 54.982 0 00-61.512 22.443 54.987 54.987 0 00-8.401 21.629 5.346 5.346 0 01-5.28 4.565zm116.901-135.632a5.363 5.363 0 01-3.963-1.752 65.217 65.217 0 00-47.108-21.249 65.207 65.207 0 00-47.776 19.702 5.356 5.356 0 11-7.671-7.467 75.865 75.865 0 0155.604-22.939 75.869 75.869 0 0154.827 24.742 5.361 5.361 0 01.924 5.762 5.353 5.353 0 01-4.888 3.188z"/><path d="M241.038 303.254a5.374 5.374 0 01-3.693-1.49 5.377 5.377 0 01-1.651-3.625 59.323 59.323 0 0115.573-43.126 5.355 5.355 0 017.514-.247 5.357 5.357 0 01.362 7.509 48.588 48.588 0 00-12.786 35.302 5.335 5.335 0 01-3.073 5.127c-.641.3-1.334.469-2.041.499zm118.385-147.075a5.344 5.344 0 01-3.644-1.432 37.365 37.365 0 01-10.922-36.036 37.36 37.36 0 0125.997-27.241 5.357 5.357 0 012.966 10.229 26.656 26.656 0 00-10.702 45.21 5.35 5.35 0 011.347 5.881 5.348 5.348 0 01-4.991 3.389zm-52.026 86.496h-.537a5.357 5.357 0 11.077-10.715h.447a26.425 26.425 0 0026.495-27.097 26.422 26.422 0 00-4.004-13.331 5.36 5.36 0 01-.674-4.039 5.365 5.365 0 012.38-3.332 5.348 5.348 0 015.942.185 5.344 5.344 0 011.429 1.522 37.068 37.068 0 011.035 37.706 37.077 37.077 0 01-32.526 19.101zm-66.653 257.941a5.343 5.343 0 01-5.332-5.383l.448-99.115a5.365 5.365 0 011.582-3.768 5.366 5.366 0 013.775-1.564 5.35 5.35 0 014.934 3.331c.266.651.401 1.348.398 2.052l-.461 99.115a5.344 5.344 0 01-5.344 5.332z"/><path d="M241.191 303.292a5.37 5.37 0 01-5.357-5.357V66.652a5.356 5.356 0 019.145-3.788 5.357 5.357 0 011.57 3.788V297.91a5.362 5.362 0 01-3.302 4.972 5.35 5.35 0 01-2.056.41z"/><path d="M241.077 72.01a36.004 36.004 0 1136.005-36.005 36.055 36.055 0 01-36.005 36.005zm0-61.296a25.292 25.292 0 1025.303 25.29 25.317 25.317 0 00-25.303-25.29zM132.73 480.567a5.369 5.369 0 01-5.357-5.357v-71.089a5.387 5.387 0 011.611-3.836l108.462-106.122a5.376 5.376 0 013.81-1.526 5.381 5.381 0 013.772 1.615 5.376 5.376 0 011.526 3.81 5.381 5.381 0 01-1.615 3.772L138.088 406.371v68.839a5.37 5.37 0 01-5.358 5.357z"/><path d="M132.614 541.863a36.007 36.007 0 01-35.313-43.029 36.003 36.003 0 0165.25-12.979 36.007 36.007 0 016.068 20.003 36.053 36.053 0 01-36.005 36.005zm0-61.295a25.288 25.288 0 00-24.804 30.224 25.29 25.29 0 0050.095-4.934 25.315 25.315 0 00-25.291-25.29zm.116-71.102H66.883a5.364 5.364 0 01-5.186-3.241 5.358 5.358 0 015.186-7.461h65.847a5.365 5.365 0 013.956 1.471 5.356 5.356 0 010 7.759 5.355 5.355 0 01-3.956 1.472z"/><path d="M36.005 442.517A36.007 36.007 0 01.692 399.488a36.004 36.004 0 0171.318 7.024 36.059 36.059 0 01-36.005 36.005zm0-61.295a25.29 25.29 0 1025.29 25.29 25.314 25.314 0 00-25.29-25.29zM241.192 187.76h-109.37a5.36 5.36 0 01-5.357-5.358 5.357 5.357 0 015.357-5.357h109.37a5.36 5.36 0 015.357 5.357 5.358 5.358 0 01-5.357 5.358z"/><path d="M101.175 221.028a35.999 35.999 0 01-33.264-22.226 36.005 36.005 0 1169.269-13.779 36.042 36.042 0 01-36.005 36.005zm0-61.295a25.29 25.29 0 1025.29 25.29 25.313 25.313 0 00-25.29-25.29z"/></g></svg>10.754-1.058 16.031.101c.71.126 1.388.395 1.991.789.604.394 1.122.907 1.523 1.506.401.6.677 1.274.811 1.983.134.708.124 1.437-.03 2.141-.155.705-.449 1.371-.867 1.959-.418.587-.95 1.085-1.565 1.462s-1.299.626-2.013.733c-.713.106-1.44.067-2.138-.115-4.638-1.014-9.457-.824-14 .552-4.543 1.377-8.658 3.894-11.953 7.311-3.294 3.418-5.658 7.622-6.867 12.213-1.209 4.59-1.222 9.414-.039 14.01 1.184 4.597 3.525 8.815 6.801 12.25 3.276 3.436 7.377 5.975 11.912 7.376 4.536 1.402 9.354 1.618 13.997.629s8.955-3.151 12.525-6.279c1.075-.886 2.453-1.318 3.841-1.205 1.388.112 2.678.761 3.596 1.809.918 1.047 1.392 2.411 1.321 3.802s-.68 2.7-1.7 3.649c-7.04 6.145-16.074 9.521-25.418 9.5z"/><path d="m241.025 401.334c-.283-.003-.565-.024-.844-.064-1.402-.223-2.658-.993-3.492-2.142-.834-1.148-1.179-2.58-.958-3.982 1.458-9.238 4.872-18.058 10.016-25.868 5.143-7.811 11.897-14.432 19.807-19.42 7.911-4.988 16.796-8.228 26.061-9.503 9.265-1.274 18.695-.554 27.659 2.113.726.151 1.414.451 2.018.882.605.43 1.113.982 1.493 1.619s.624 1.347.716 2.083c.091.736.029 1.484-.184 2.195-.212.711-.57 1.37-1.05 1.936-.481.565-1.074 1.025-1.741 1.349-.668.324-1.395.506-2.137.535-.741.028-1.481-.098-2.171-.37-7.5-2.222-15.389-2.818-23.138-1.748s-15.181 3.781-21.798 7.953c-6.618 4.172-12.269 9.707-16.576 16.238-4.307 6.53-7.171 13.904-8.401 21.629-.187 1.268-.823 2.426-1.792 3.264s-2.207 1.299-3.488 1.301z"/><path d="m357.926 265.702c-.746 0-1.484-.156-2.167-.457-.682-.302-1.294-.743-1.796-1.295-5.99-6.565-13.259-11.836-21.359-15.49-8.101-3.654-16.864-5.614-25.749-5.759-8.886-.145-17.707 1.528-25.923 4.916s-15.652 8.42-21.853 14.786c-.482.538-1.067.973-1.722 1.278-.654.306-1.363.476-2.085.501-.721.024-1.441-.097-2.114-.358-.674-.26-1.288-.654-1.805-1.157-.517-.504-.928-1.107-1.206-1.773-.279-.666-.42-1.382-.414-2.104.005-.722.156-1.436.444-2.098.287-.662.706-1.259 1.231-1.756 7.215-7.412 15.869-13.27 25.432-17.215 9.562-3.945 19.83-5.893 30.172-5.724 10.343.169 20.542 2.451 29.97 6.706 9.429 4.255 17.887 10.392 24.857 18.036.694.768 1.151 1.722 1.315 2.744.165 1.023.029 2.071-.391 3.018-.419.947-1.104 1.752-1.972 2.318-.867.566-1.88.868-2.916.87z"/><path d="m241.038 303.254c-1.376-.005-2.698-.539-3.693-1.49-.994-.952-1.585-2.25-1.651-3.625-.395-7.862.778-15.724 3.452-23.128 2.673-7.404 6.794-14.202 12.121-19.998.969-1.02 2.301-1.617 3.707-1.663 1.405-.046 2.773.462 3.807 1.416 1.034.953 1.652 2.275 1.72 3.68.067 1.405-.42 2.781-1.358 3.829-4.366 4.742-7.745 10.305-9.94 16.366-2.196 6.061-3.163 12.498-2.846 18.936.038.706-.064 1.413-.302 2.079-.237.666-.604 1.279-1.08 1.802s-1.05.947-1.691 1.246c-.641.3-1.334.469-2.041.499z"/><path d="m359.423 156.179c-1.352.001-2.654-.511-3.644-1.432-4.848-4.502-8.414-10.21-10.333-16.541-1.919-6.332-2.122-13.059-.589-19.495s4.748-12.349 9.315-17.135c4.568-4.7864 10.324-8.2739 16.682-10.1061 1.299-.2265 2.637.0346 3.756.7331s1.941 1.7855 2.309 3.0525c.367 1.2671.254 2.6252-.318 3.8141-.572 1.1884-1.562 2.1254-2.781 2.6294-4.544 1.308-8.658 3.801-11.921 7.224-3.262 3.423-5.556 7.651-6.645 12.253-1.089 4.601-.935 9.409.447 13.932 1.382 4.522 3.942 8.595 7.417 11.801.791.731 1.342 1.683 1.583 2.732.24 1.05.158 2.147-.236 3.149s-1.081 1.861-1.971 2.466c-.891.605-1.943.926-3.02.923z"/><path d="m307.397 242.675h-.537c-1.421-.01-2.779-.584-3.777-1.596-.997-1.012-1.552-2.379-1.542-3.8.01-1.42.585-2.779 1.596-3.777 1.012-.997 2.379-1.552 3.8-1.542h.447c4.724.014 9.364-1.239 13.439-3.627 4.075-2.389 7.435-5.825 9.732-9.953 2.296-4.128 3.444-8.795 3.324-13.517-.119-4.722-1.502-9.325-4.004-13.331-.372-.596-.623-1.26-.739-1.953-.115-.693-.093-1.402.065-2.086.159-.685.451-1.331.859-1.903s.925-1.057 1.521-1.429 1.26-.623 1.953-.739c.693-.115 1.402-.093 2.086.066.685.158 1.331.45 1.903.858.572.409 1.058.926 1.429 1.522 3.531 5.617 5.489 12.079 5.671 18.711s-1.419 13.192-4.636 18.995c-3.217 5.802-7.931 10.636-13.653 13.995-5.721 3.36-12.238 5.123-18.873 5.106z"/><path d="m240.744 500.616c-.704-.002-1.401-.142-2.05-.414-.65-.272-1.239-.669-1.735-1.169-.495-.501-.887-1.094-1.152-1.746-.266-.652-.4-1.35-.395-2.054l.448-99.115c.01-1.416.578-2.77 1.582-3.768 1.003-.999 2.36-1.561 3.775-1.564.704.003 1.4.145 2.048.417.649.273 1.238.67 1.733 1.17s.887 1.092 1.153 1.744c.266.651.401 1.348.398 2.052l-.461 99.115c-.003 1.416-.568 2.772-1.569 3.771-1.002 1-2.36 1.561-3.775 1.561z"/><path d="m241.191 303.292c-1.42-.003-2.78-.569-3.784-1.572-1.004-1.004-1.57-2.365-1.573-3.785v-231.2826c0-1.4208.564-2.7834 1.569-3.7881s2.367-1.5691 3.788-1.5691 2.784.5644 3.788 1.5691c1.005 1.0047 1.57 2.3673 1.57 3.7881v231.2576c.003.705-.133 1.405-.401 2.058-.268.652-.662 1.246-1.16 1.746-.497.5-1.089.897-1.741 1.168-.651.271-1.35.41-2.056.41z"/><path d="m241.077 72.0098c-7.121 0-14.082-2.1117-20.003-6.068-5.921-3.9562-10.536-9.5794-13.261-16.1584-2.725-6.5791-3.438-13.8185-2.049-20.8027 1.389-6.9843 4.818-13.3997 9.854-18.4351 5.035-5.03537 11.451-8.4645 18.435-9.85376 6.984-1.389256 14.224-.6762396 20.803 2.04888 6.579 2.72513 12.202 7.33998 16.158 13.26098 3.956 5.9209 6.068 12.8821 6.068 20.0032-.014 9.5449-3.811 18.695-10.561 25.4443-6.749 6.7493-15.899 10.547-25.444 10.5606zm0-61.2953c-5.001.0026-9.89 1.488-14.047 4.2684-4.157 2.7805-7.397 6.7312-9.309 11.3526-1.912 4.6215-2.411 9.7061-1.434 14.6111s3.387 9.4101 6.924 12.9458c3.538 3.5356 8.044 5.943 12.95 6.9178 4.905.9748 9.99.4732 14.61-1.4413 4.621-1.9145 8.57-5.1561 11.348-9.3148s4.261-9.0478 4.261-14.0492c-.007-6.7076-2.675-13.1383-7.419-17.88-4.744-4.7418-11.176-7.407-17.884-7.4104z"/><path d="m132.73 480.567c-1.419-.003-2.78-.569-3.784-1.573-1.004-1.003-1.57-2.364-1.573-3.784v-71.089c.001-.714.144-1.421.421-2.08.277-.658.681-1.255 1.19-1.756l108.462-106.122c.504-.492 1.1-.88 1.753-1.142.654-.262 1.353-.392 2.057-.384.704.009 1.399.156 2.047.433.647.277 1.233.679 1.725 1.182.492.504.88 1.1 1.142 1.753.262.654.392 1.353.384 2.057-.009.704-.156 1.399-.433 2.047-.277.647-.679 1.233-1.182 1.725l-106.851 104.537v68.839c-.004 1.42-.569 2.781-1.573 3.784-1.004 1.004-2.365 1.57-3.785 1.573z"/><path d="m132.614 541.863c-7.121 0-14.082-2.112-20.003-6.068s-10.536-9.58-13.2609-16.159c-2.7251-6.579-3.4381-13.818-2.0489-20.802 1.3893-6.985 4.8188-13.4 9.8538-18.435 5.035-5.036 11.451-8.465 18.435-9.854s14.224-.676 20.803 2.049 12.202 7.34 16.158 13.261 6.068 12.882 6.068 20.003c-.013 9.545-3.811 18.695-10.56 25.444-6.75 6.75-15.9 10.547-25.445 10.561zm0-61.295c-5.002 0-9.891 1.483-14.05 4.262s-7.401 6.729-9.315 11.35-2.415 9.706-1.439 14.612 3.384 9.412 6.921 12.949 8.044 5.945 12.949 6.921c4.906.976 9.991.475 14.612-1.439 4.622-1.914 8.571-5.156 11.35-9.315s4.263-9.048 4.263-14.05c-.007-6.705-2.674-13.134-7.415-17.876-4.742-4.741-11.17-7.408-17.876-7.414z"/><path d="m132.73 409.466h-65.8474c-.7247.035-1.4491-.077-2.1291-.33-.6801-.253-1.3016-.641-1.8271-1.142-.5254-.5-.9437-1.102-1.2295-1.769s-.4332-1.385-.4332-2.11c0-.726.1474-1.444.4332-2.111.2858-.666.7041-1.268 1.2295-1.769.5255-.5 1.147-.889 1.8271-1.141.68-.253 1.4044-.365 2.1291-.33h65.8474c.724-.035 1.449.077 2.129.33.68.252 1.301.641 1.827 1.141.525.501.943 1.103 1.229 1.769.286.667.433 1.385.433 2.111 0 .725-.147 1.443-.433 2.11s-.704 1.269-1.229 1.769c-.526.501-1.147.889-1.827 1.142s-1.405.365-2.129.33z"/><path d="m36.0049 442.517c-7.1211 0-14.0823-2.112-20.0032-6.068-5.921-3.956-10.53585-9.579-13.26098-16.158-2.7251196-6.579-3.438136-13.819-2.04888-20.803 1.38926-6.984 4.81839-13.4 9.85376-18.435 5.0354-5.035 11.4508-8.465 18.4351-9.854 6.9842-1.389 14.2236-.676 20.8027 2.049 6.579 2.725 12.2022 7.34 16.1584 13.261 3.9563 5.921 6.068 12.882 6.068 20.003-.0136 9.545-3.8113 18.695-10.5606 25.445-6.7493 6.749-15.8994 10.547-25.4443 10.56zm0-61.295c-5.002 0-9.8916 1.483-14.0506 4.262s-7.4005 6.729-9.3147 11.35c-1.9141 4.621-2.415 9.706-1.4391 14.612.9758 4.906 3.3845 9.412 6.9214 12.949s8.0432 5.946 12.9491 6.922c4.9058.975 9.9909.475 14.6121-1.44 4.6212-1.914 8.571-5.155 11.3499-9.314 2.779-4.159 4.2622-9.049 4.2622-14.051-.0067-6.705-2.6734-13.134-7.4148-17.875-4.7414-4.742-11.1702-7.408-17.8755-7.415z"/><path d="m241.192 187.76h-109.37c-1.421 0-2.783-.565-3.788-1.569-1.005-1.005-1.569-2.368-1.569-3.789 0-1.42.564-2.783 1.569-3.788 1.005-1.004 2.367-1.569 3.788-1.569h109.37c1.421 0 2.783.565 3.788 1.569 1.005 1.005 1.569 2.368 1.569 3.788 0 1.421-.564 2.784-1.569 3.789-1.005 1.004-2.367 1.569-3.788 1.569z"/><path d="m101.175 221.028c-7.1213 0-14.0825-2.111-20.0034-6.068-5.921-3.956-10.5358-9.579-13.261-16.158-2.7251-6.579-3.4381-13.818-2.0488-20.803 1.3892-6.984 4.8183-13.399 9.8537-18.435 5.0354-5.035 11.4508-8.464 18.4351-9.854 6.9844-1.389 14.2234-.676 20.8024 2.049s12.202 7.34 16.159 13.261c3.956 5.921 6.068 12.882 6.068 20.003-.01 9.546-3.807 18.698-10.557 25.449-6.75 6.75-15.902 10.546-25.448 10.556zm0-61.295c-5.0022 0-9.8918 1.483-14.0508 4.262-4.1589 2.779-7.4005 6.729-9.3146 11.35-1.9142 4.621-2.415 9.706-1.4392 14.612s3.3845 9.413 6.9214 12.949c3.5369 3.537 8.0433 5.946 12.9491 6.922 4.9061.976 9.9911.475 14.6121-1.439s8.571-5.156 11.35-9.315 4.262-9.049 4.262-14.051c-.007-6.705-2.673-13.134-7.415-17.875-4.741-4.741-11.17-7.408-17.875-7.415z"/></g></svg>