<svg fill="none" height="542" width="462" xmlns="http://www.w3.org/2000/svg"><g fill="#fff" opacity=".36"><path d="M372.324 101.865h-.678a5.359 5.359 0 01-4.692-5.971 39.415 39.415 0 00-14.447-35.69 39.42 39.42 0 00-37.975-6.35 5.35 5.35 0 11-3.605-10.075 50.116 50.116 0 0148.293 8.03 50.124 50.124 0 0118.41 45.363 5.355 5.355 0 01-5.306 4.693z"/><path d="M415.795 124.572a5.349 5.349 0 01-4.641-2.685 40.28 40.28 0 00-38.255-19.882 5.364 5.364 0 01-4.054-1.132 5.365 5.365 0 01-1.985-3.712 5.36 5.36 0 015.105-5.82 50.965 50.965 0 0148.458 25.189 5.368 5.368 0 01-4.628 8.042zm16.366 87.327a5.352 5.352 0 01-5.001-3.455 5.356 5.356 0 011.446-5.904 33.356 33.356 0 008.183-38.882 5.358 5.358 0 019.756-4.424 43.995 43.995 0 01-10.894 51.284 5.297 5.297 0 01-3.49 1.381z"/><path d="M441.724 166.791a5.317 5.317 0 01-4.565-2.557l-25.98-42.193a5.36 5.36 0 013.648-8.289 5.349 5.349 0 014.066 1.054 5.35 5.35 0 011.402 1.622l25.981 42.193a5.34 5.34 0 01.122 5.417 5.344 5.344 0 01-4.674 2.74zm2.635 131.592a5.357 5.357 0 01-4.334-8.49 57.448 57.448 0 00-11.328-79.272 5.356 5.356 0 01-.884-7.48 5.356 5.356 0 017.468-.972 68.108 68.108 0 0113.413 93.989 5.34 5.34 0 01-4.335 2.225zM342.315 438.886a61.035 61.035 0 01-16.993-2.429 5.359 5.359 0 01-3.831-4.559 5.374 5.374 0 011.145-3.939 5.358 5.358 0 015.678-1.795 49.855 49.855 0 0042.016-6.639 49.847 49.847 0 0014.906-15.901 49.847 49.847 0 006.7-20.74 5.355 5.355 0 019.391-2.824 5.359 5.359 0 011.273 3.821 60.662 60.662 0 01-19.517 39.141 60.66 60.66 0 01-40.768 15.838z"/><path d="M408.941 451.544a53.704 53.704 0 01-43.638-22.209 5.365 5.365 0 01-.201-5.952 5.376 5.376 0 011.428-1.528 5.37 5.37 0 013.994-.935 5.358 5.358 0 013.486 2.163 43.01 43.01 0 0059.262 10.152 5.36 5.36 0 017.306 1.433 5.36 5.36 0 01-1.181 7.35 53.184 53.184 0 01-30.456 9.526z"/><path d="M402.817 476.527a5.354 5.354 0 01-5.196-6.632 5.357 5.357 0 011.642-2.727 10.748 10.748 0 003.579-8.632 10.74 10.74 0 00-4.538-8.169 5.356 5.356 0 01-1.506-7.586 5.357 5.357 0 017.643-1.185 21.4 21.4 0 019.107 16.323 21.412 21.412 0 01-7.189 17.253 5.309 5.309 0 01-3.542 1.355z"/><path d="M369.37 499.989a5.358 5.358 0 01-1.636-10.459 64.336 64.336 0 0030.928-21.569 5.35 5.35 0 018.414 6.61 74.786 74.786 0 01-36.056 25.111 5.282 5.282 0 01-1.65.307z"/><path d="M328.021 540.469a47.154 47.154 0 01-36.184-16.877 5.344 5.344 0 01-1.393-3.977 5.351 5.351 0 011.915-3.755 5.356 5.356 0 017.699.879 36.224 36.224 0 0064.057-22.362 5.356 5.356 0 015.357-5.23h.128a5.361 5.361 0 015.23 5.473 47.189 47.189 0 01-9.011 26.517 47.189 47.189 0 01-22.455 16.737 46.497 46.497 0 01-15.343 2.595z"/><path d="M273.859 533.603a38.486 38.486 0 118.272-76.075 5.352 5.352 0 014.325 4.278 5.36 5.36 0 01-2.462 5.562 5.353 5.353 0 01-4.151.618 27.805 27.805 0 00-25.953 7.863 27.802 27.802 0 00-.105 38.473 27.793 27.793 0 0025.909 8.005 27.792 27.792 0 0012.525-6.279 5.356 5.356 0 017.437.604 5.353 5.353 0 01-.379 7.451 38.522 38.522 0 01-25.418 9.5zm-32.834-132.269a6.427 6.427 0 01-.844-.064 5.356 5.356 0 01-4.45-6.124 65.627 65.627 0 0129.823-45.288 65.636 65.636 0 0153.72-7.39 5.35 5.35 0 013.511 2.501 5.36 5.36 0 01-6.567 7.728 54.982 54.982 0 00-61.512 22.443 54.987 54.987 0 00-8.401 21.629 5.346 5.346 0 01-5.28 4.565zm116.901-135.632a5.363 5.363 0 01-3.963-1.752 65.217 65.217 0 00-47.108-21.249 65.207 65.207 0 00-47.776 19.702 5.356 5.356 0 11-7.671-7.467 75.865 75.865 0 0155.604-22.939 75.869 75.869 0 0154.827 24.742 5.361 5.361 0 01.924 5.762 5.353 5.353 0 01-4.888 3.188z"/><path d="M241.038 303.254a5.374 5.374 0 01-3.693-1.49 5.377 5.377 0 01-1.651-3.625 59.323 59.323 0 0115.573-43.126 5.355 5.355 0 017.514-.247 5.357 5.357 0 01.362 7.509 48.588 48.588 0 00-12.786 35.302 5.335 5.335 0 01-3.073 5.127c-.641.3-1.334.469-2.041.499zm118.385-147.075a5.344 5.344 0 01-3.644-1.432 37.365 37.365 0 01-10.922-36.036 37.36 37.36 0 0125.997-27.241 5.357 5.357 0 012.966 10.229 26.656 26.656 0 00-10.702 45.21 5.35 5.35 0 011.347 5.881 5.348 5.348 0 01-4.991 3.389zm-52.026 86.496h-.537a5.357 5.357 0 11.077-10.715h.447a26.425 26.425 0 0026.495-27.097 26.422 26.422 0 00-4.004-13.331 5.36 5.36 0 01-.674-4.039 5.365 5.365 0 012.38-3.332 5.348 5.348 0 015.942.185 5.344 5.344 0 011.429 1.522 37.068 37.068 0 011.035 37.706 37.077 37.077 0 01-32.526 19.101zm-66.653 257.941a5.343 5.343 0 01-5.332-5.383l.448-99.115a5.365 5.365 0 011.582-3.768 5.366 5.366 0 013.775-1.564 5.35 5.35 0 014.934 3.331c.266.651.401 1.348.398 2.052l-.461 99.115a5.344 5.344 0 01-5.344 5.332z"/><path d="M241.191 303.292a5.37 5.37 0 01-5.357-5.357V66.652a5.356 5.356 0 019.145-3.788 5.357 5.357 0 011.57 3.788V297.91a5.362 5.362 0 01-3.302 4.972 5.35 5.35 0 01-2.056.41z"/><path d="M241.077 72.01a36.004 36.004 0 1136.005-36.005 36.055 36.055 0 01-36.005 36.005zm0-61.296a25.292 25.292 0 1025.303 25.29 25.317 25.317 0 00-25.303-25.29zM132.73 480.567a5.369 5.369 0 01-5.357-5.357v-71.089a5.387 5.387 0 011.611-3.836l108.462-106.122a5.376 5.376 0 013.81-1.526 5.381 5.381 0 013.772 1.615 5.376 5.376 0 011.526 3.81 5.381 5.381 0 01-1.615 3.772L138.088 406.371v68.839a5.37 5.37 0 01-5.358 5.357z"/><path d="M132.614 541.863a36.007 36.007 0 01-35.313-43.029 36.003 36.003 0 0165.25-12.979 36.007 36.007 0 016.068 20.003 36.053 36.053 0 01-36.005 36.005zm0-61.295a25.288 25.288 0 00-24.804 30.224 25.29 25.29 0 0050.095-4.934 25.315 25.315 0 00-25.291-25.29zm.116-71.102H66.883a5.364 5.364 0 01-5.186-3.241 5.358 5.358 0 015.186-7.461h65.847a5.365 5.365 0 013.956 1.471 5.356 5.356 0 010 7.759 5.355 5.355 0 01-3.956 1.472z"/><path d="M36.005 442.517A36.007 36.007 0 01.692 399.488a36.004 36.004 0 0171.318 7.024 36.059 36.059 0 01-36.005 36.005zm0-61.295a25.29 25.29 0 1025.29 25.29 25.314 25.314 0 00-25.29-25.29zM241.192 187.76h-109.37a5.36 5.36 0 01-5.357-5.358 5.357 5.357 0 015.357-5.357h109.37a5.36 5.36 0 015.357 5.357 5.358 5.358 0 01-5.357 5.358z"/><path d="M101.175 221.028a35.999 35.999 0 01-33.264-22.226 36.005 36.005 0 1169.269-13.779 36.042 36.042 0 01-36.005 36.005zm0-61.295a25.29 25.29 0 1025.29 25.29 25.313 25.313 0 00-25.29-25.29z"/></g></svg>