<svg width="512" height="512" fill="none" xmlns="http://www.w3.org/2000/svg"><rect width="512" height="512" rx="51" fill="#10182D"/><path d="M368.203 108.687h-.563a4.454 4.454 0 01-3.897-4.959 32.732 32.732 0 00-43.534-34.913 4.444 4.444 0 01-2.995-8.367 41.624 41.624 0 0155.396 44.342 4.453 4.453 0 01-4.407 3.897z" fill="#fff"/><path d="M404.305 127.544a4.439 4.439 0 01-3.855-2.229 33.445 33.445 0 00-31.77-16.512 4.453 4.453 0 01-3.366-.94 4.438 4.438 0 01-1.139-1.373 4.44 4.44 0 01.578-5.031 4.442 4.442 0 013.152-1.511 42.324 42.324 0 0140.243 20.918 4.463 4.463 0 01-.003 4.443 4.456 4.456 0 01-3.84 2.235zm13.59 72.523a4.445 4.445 0 01-4.153-2.87 4.444 4.444 0 011.201-4.903 27.699 27.699 0 006.796-32.29 4.45 4.45 0 012.255-5.797 4.449 4.449 0 015.847 2.123 36.54 36.54 0 01-9.047 42.59 4.408 4.408 0 01-2.899 1.147z" fill="#fff"/><path d="M425.839 162.606a4.414 4.414 0 01-3.791-2.124l-21.576-35.04a4.443 4.443 0 01.059-5.055 4.45 4.45 0 017.511.394l21.577 35.04a4.442 4.442 0 01-1.53 6.165c-.682.4-1.459.61-2.25.609v.011zm2.186 109.283a4.45 4.45 0 01-3.599-7.051 47.706 47.706 0 00-9.408-65.833 4.45 4.45 0 012.202-7.889 4.45 4.45 0 013.267.871 56.564 56.564 0 0111.138 78.054 4.421 4.421 0 01-3.6 1.848zm-84.743 116.683a50.672 50.672 0 01-14.112-2.017 4.459 4.459 0 01-2.658-2.131 4.453 4.453 0 013.413-6.567 4.454 4.454 0 011.73.15 41.412 41.412 0 0052.836-35.943 4.45 4.45 0 018.856.829 50.37 50.37 0 01-16.209 32.504 50.37 50.37 0 01-33.856 13.154v.021z" fill="#fff"/><path d="M398.613 399.084a44.586 44.586 0 01-36.24-18.444 4.47 4.47 0 01-.777-3.317 4.452 4.452 0 018.008-1.875 35.721 35.721 0 0049.216 8.431 4.448 4.448 0 016.81 4.441 4.451 4.451 0 01-1.724 2.854 44.175 44.175 0 01-25.293 7.91z" fill="#fff"/><path d="M393.527 419.832a4.445 4.445 0 01-4.153-2.869 4.448 4.448 0 011.201-4.903 8.917 8.917 0 001.865-10.992 8.92 8.92 0 00-2.661-2.961 4.445 4.445 0 01-1.959-4.665 4.444 4.444 0 013.672-3.481 4.45 4.45 0 013.384.862 17.78 17.78 0 016.224 21.406 17.788 17.788 0 01-4.632 6.478 4.407 4.407 0 01-2.941 1.125z" fill="#fff"/><path d="M365.749 439.317a4.448 4.448 0 01-1.359-8.686 53.436 53.436 0 0025.686-17.913 4.44 4.44 0 017.904 2.215 4.443 4.443 0 01-.918 3.275 62.112 62.112 0 01-29.943 20.854c-.44.157-.902.243-1.37.255z" fill="#fff"/><path d="M331.411 472.934a39.157 39.157 0 01-16.581-3.672 39.157 39.157 0 01-13.469-10.344 4.453 4.453 0 01-.681-5.025 4.444 4.444 0 012.688-2.241 4.448 4.448 0 014.821 1.575 30.086 30.086 0 0033.038 9.16 30.083 30.083 0 0020.159-27.732 4.45 4.45 0 014.449-4.342h.106a4.449 4.449 0 014.343 4.544 39.18 39.18 0 01-26.131 35.922 38.603 38.603 0 01-12.742 2.155z" fill="#fff"/><path d="M286.432 467.232a31.965 31.965 0 01-23.779-10.624 31.96 31.96 0 01-3.813-37.438 31.968 31.968 0 0121.148-15.2 31.949 31.949 0 0113.314.084 4.458 4.458 0 012.918 1.906 4.445 4.445 0 01-.072 5.051 4.454 4.454 0 01-2.971 1.823 4.451 4.451 0 01-1.776-.095 23.087 23.087 0 00-27.256 16.672 23.086 23.086 0 005.616 21.809 23.079 23.079 0 0021.517 6.647 23.085 23.085 0 0010.402-5.214 4.449 4.449 0 015.861 6.69 31.995 31.995 0 01-21.109 7.889zm-27.268-109.846a5.296 5.296 0 01-.701-.053 4.45 4.45 0 01-3.695-5.086 54.498 54.498 0 0146.409-45.501 54.49 54.49 0 0122.97 1.754 4.454 4.454 0 012.916 2.077 4.44 4.44 0 01.442 3.553 4.44 4.44 0 01-2.318 2.728 4.463 4.463 0 01-3.578.137 45.642 45.642 0 00-37.318 5.153 45.664 45.664 0 00-20.742 31.448 4.435 4.435 0 01-4.385 3.79zm97.083-112.638a4.445 4.445 0 01-3.292-1.454 54.158 54.158 0 00-78.798-1.285 4.449 4.449 0 11-6.371-6.201 63.005 63.005 0 0171.067-13.482 63.017 63.017 0 0120.643 14.979 4.446 4.446 0 01.768 4.785 4.455 4.455 0 01-4.06 2.648l.043.01z" fill="#fff"/><path d="M259.175 275.934a4.46 4.46 0 01-4.439-4.247 49.282 49.282 0 0112.933-35.816 4.451 4.451 0 017.669 2.852 4.45 4.45 0 01-1.128 3.18 40.352 40.352 0 00-10.618 29.316 4.447 4.447 0 01-1.148 3.223 4.436 4.436 0 01-3.099 1.449l-.17.043zm98.314-122.141a4.435 4.435 0 01-3.026-1.189 31.027 31.027 0 0112.518-52.55 4.45 4.45 0 012.464 8.495 22.14 22.14 0 00-8.888 37.546 4.435 4.435 0 01-.518 6.931c-.74.503-1.614.77-2.508.767h-.042zm-43.206 71.832h-.446a4.446 4.446 0 01-4.417-4.481 4.448 4.448 0 014.481-4.417h.372a21.953 21.953 0 0019.242-11.278 21.95 21.95 0 00-.565-22.297 4.443 4.443 0 117.539-4.703 30.786 30.786 0 01.859 31.313 30.79 30.79 0 01-27.012 15.863h-.053zM258.93 439.837a4.428 4.428 0 01-3.143-1.315 4.436 4.436 0 01-1.285-3.155l.372-82.313a4.46 4.46 0 014.449-4.427 4.439 4.439 0 014.097 2.766c.221.541.333 1.12.331 1.704l-.383 82.312a4.438 4.438 0 01-4.438 4.428z" fill="#fff"/><path d="M259.302 275.966a4.457 4.457 0 01-4.449-4.449V79.444a4.446 4.446 0 014.449-4.45 4.45 4.45 0 014.449 4.45v192.052a4.446 4.446 0 01-4.449 4.47z" fill="#fff"/><path d="M259.207 83.893a29.9 29.9 0 01-29.327-35.734 29.908 29.908 0 0123.493-23.493 29.901 29.901 0 0135.735 29.326 29.947 29.947 0 01-29.901 29.901zm0-50.904a21.001 21.001 0 00-14.837 35.858 21 21 0 0032.311-3.187 20.998 20.998 0 003.539-11.668 21.026 21.026 0 00-21.013-21.003zm-89.979 390.198a4.46 4.46 0 01-4.449-4.449v-59.037a4.483 4.483 0 011.338-3.186l90.074-88.131a4.45 4.45 0 016.297.074 4.458 4.458 0 01.908 4.864 4.447 4.447 0 01-.983 1.433l-88.736 86.815v57.168a4.46 4.46 0 01-4.449 4.449z" fill="#fff"/><path d="M169.132 474.091a29.896 29.896 0 01-27.625-18.458 29.9 29.9 0 1157.526-11.443 29.943 29.943 0 01-29.901 29.901zm0-50.904a21.003 21.003 0 1021.003 21.003 21.03 21.03 0 00-6.158-14.845 21.03 21.03 0 00-14.845-6.158zm.096-59.047h-54.684a4.454 4.454 0 01-4.307-2.691 4.46 4.46 0 010-3.506 4.448 4.448 0 014.307-2.691h54.684a4.46 4.46 0 013.285 1.222 4.45 4.45 0 01-3.285 7.666z" fill="#fff"/><path d="M88.9 391.588a29.905 29.905 0 01-27.624-18.459 29.9 29.9 0 0139.068-39.067 29.907 29.907 0 0118.458 27.625 29.944 29.944 0 01-29.901 29.901zm0-50.904a21.002 21.002 0 1021.004 21.003 21.022 21.022 0 00-21.003-21.003zM259.302 180.02h-90.829a4.448 4.448 0 01-3.145-7.595 4.443 4.443 0 013.145-1.303h90.829a4.447 4.447 0 013.146 7.595 4.452 4.452 0 01-3.146 1.303z" fill="#fff"/><path d="M143.022 207.648a29.896 29.896 0 01-27.625-18.458 29.9 29.9 0 1157.526-11.443 29.93 29.93 0 01-29.901 29.901zm0-50.903a21.002 21.002 0 1021.003 21.002 21.026 21.026 0 00-21.003-21.002z" fill="#fff"/></svg>