<svg fill="none" height="512" viewBox="0 0 512 512" width="512" xmlns="http://www.w3.org/2000/svg"><rect fill="#10182d" height="512" rx="51" width="512"/><g fill="#fff"><path d="m368.203 108.687h-.563c-.582-.069-1.145-.252-1.656-.538-.511-.287-.961-.671-1.323-1.132s-.629-.989-.787-1.553c-.157-.564-.202-1.154-.131-1.736.702-5.5541-.033-11.195-2.134-16.384-2.1-5.1889-5.496-9.7525-9.863-13.2548-4.368-3.5022-9.56-5.826-15.081-6.7494-5.521-.9233-11.187-.4154-16.456 1.4753-1.11.3971-2.332.3371-3.397-.1667s-1.887-1.4101-2.284-2.5197c-.397-1.1095-.337-2.3314.167-3.3967.503-1.0654 1.41-1.887 2.519-2.284 6.698-2.4104 13.901-3.063 20.923-1.8954s13.626 4.1163 19.183 8.5645c5.557 4.4481 9.881 10.247 12.558 16.8425 2.676 6.5956 3.617 13.7673 2.732 20.8304-.135 1.074-.657 2.063-1.468 2.78-.811.718-1.856 1.115-2.939 1.117z"/><path d="m404.305 127.544c-.782.001-1.551-.205-2.227-.596-.677-.392-1.239-.955-1.628-1.633-3.186-5.48-7.865-9.942-13.489-12.865-5.625-2.923-11.965-4.188-18.281-3.647-.595.079-1.2.036-1.779-.125-.579-.162-1.118-.439-1.587-.815s-.856-.843-1.139-1.373c-.284-.529-.457-1.111-.509-1.709-.053-.599.017-1.202.204-1.773s.487-1.098.883-1.549c.397-.452.88-.819 1.422-1.078.542-.26 1.13-.4073 1.73-.4333 8.002-.6906 16.034.9093 23.16 4.6133s13.051 9.359 17.083 16.305c.388.676.592 1.442.592 2.222-.001.78-.206 1.546-.595 2.221-.389.676-.948 1.238-1.622 1.63-.674.393-1.439.601-2.218.605z"/><path d="m417.895 200.067c-.901-.001-1.781-.276-2.523-.789-.741-.512-1.31-1.238-1.63-2.081-.32-.842-.377-1.763-.162-2.638.215-.876.69-1.665 1.363-2.265 4.446-3.942 7.507-9.208 8.73-15.023 1.224-5.814.546-11.867-1.934-17.267-.456-1.069-.475-2.275-.054-3.358.422-1.083 1.25-1.959 2.309-2.439s2.263-.527 3.356-.13 1.987 1.206 2.491 2.253c3.261 7.13 4.142 15.12 2.513 22.79-1.629 7.669-5.682 14.611-11.56 19.8-.794.723-1.825 1.13-2.899 1.147z"/><path d="m425.839 162.606c-.762.003-1.511-.191-2.175-.563-.664-.373-1.221-.91-1.616-1.561l-21.576-35.04c-.335-.497-.566-1.057-.679-1.646-.113-.588-.106-1.194.021-1.78.127-.585.371-1.14.717-1.629.347-.489.788-.903 1.299-1.218.51-.314 1.079-.522 1.672-.611s1.197-.057 1.777.093c.581.151 1.124.417 1.599.783s.871.824 1.164 1.347l21.577 35.04c.416.673.645 1.444.663 2.235s-.176 1.573-.561 2.264c-.386.691-.949 1.266-1.632 1.666-.682.4-1.459.61-2.25.609z"/><path d="m428.025 271.889c-.818-.002-1.62-.23-2.317-.658-.698-.428-1.263-1.04-1.635-1.768-.373-.729-.536-1.546-.474-2.362s.348-1.599.827-2.263c7.308-10.039 10.414-22.533 8.657-34.826-1.757-12.292-8.237-23.416-18.065-31.007-.915-.73-1.505-1.792-1.643-2.955-.137-1.163.19-2.333.909-3.256.72-.924 1.775-1.527 2.936-1.678s2.334.162 3.267.871c11.649 9.002 19.33 22.191 21.41 36.766s-1.605 29.387-10.272 41.288c-.41.572-.95 1.038-1.576 1.359s-1.32.489-2.024.489z"/><path d="m343.282 388.572c-4.776-.004-9.526-.683-14.112-2.017-.561-.163-1.085-.436-1.541-.801-.456-.366-.835-.817-1.117-1.33-.281-.512-.459-1.074-.523-1.655s-.013-1.169.15-1.73c.163-.562.435-1.085.801-1.541.365-.457.817-.836 1.329-1.118.512-.281 1.075-.459 1.656-.523s1.169-.013 1.73.15c5.863 1.711 12.031 2.104 18.064 1.151 6.032-.953 11.779-3.229 16.829-6.664s9.277-7.945 12.379-13.206c3.102-5.26 5.002-11.142 5.564-17.224.142-1.148.725-2.197 1.627-2.922.902-.726 2.051-1.071 3.203-.963 1.153.107 2.218.66 2.969 1.54.752.88 1.131 2.019 1.057 3.174-1.173 12.473-6.951 24.062-16.209 32.504-9.257 8.443-21.327 13.132-33.856 13.154z"/><path d="m398.613 399.084c-7.07.019-14.043-1.644-20.344-4.851s-11.75-7.866-15.896-13.593c-.341-.474-.585-1.012-.718-1.581s-.153-1.159-.059-1.736c.095-.576.302-1.129.611-1.626.308-.496.711-.927 1.186-1.268.474-.341 1.012-.585 1.581-.719.569-.133 1.159-.153 1.735-.058 1.165.191 2.207.837 2.895 1.796 5.477 7.555 13.693 12.668 22.89 14.243 9.198 1.576 18.647-.51 26.326-5.812.968-.627 2.142-.853 3.274-.631 1.131.222 2.133.875 2.792 1.821.66.947.927 2.112.744 3.251-.183 1.138-.801 2.162-1.724 2.854-7.423 5.163-16.251 7.924-25.293 7.91z"/><path d="m393.527 419.832c-.901-.001-1.781-.276-2.523-.789-.742-.512-1.31-1.238-1.63-2.08-.32-.843-.377-1.763-.162-2.639.214-.875.69-1.665 1.363-2.264 1.004-.894 1.792-2.003 2.307-3.245.515-1.241.742-2.582.666-3.924-.077-1.342-.456-2.649-1.108-3.823-.653-1.175-1.562-2.187-2.661-2.961-.506-.323-.941-.745-1.279-1.24-.339-.496-.573-1.055-.69-1.643-.117-.589-.114-1.195.01-1.782.123-.587.364-1.143.708-1.635s.784-.909 1.294-1.226c.509-.317 1.077-.528 1.67-.62s1.199-.063 1.78.085 1.127.413 1.604.777c2.203 1.54 4.029 3.561 5.339 5.909 1.31 2.347 2.07 4.962 2.224 7.646.153 2.685-.305 5.369-1.339 7.851-1.034 2.481-2.618 4.696-4.632 6.478-.808.724-1.855 1.125-2.941 1.125z"/><path d="m365.749 439.317c-1.061 0-2.087-.379-2.893-1.069-.806-.689-1.339-1.644-1.503-2.693-.164-1.048.052-2.12.609-3.023s1.418-1.577 2.428-1.901c10.159-3.272 19.105-9.511 25.686-17.913.728-.927 1.794-1.526 2.964-1.666 1.17-.141 2.347.189 3.274.917.926.728 1.526 1.795 1.666 2.964.141 1.17-.19 2.348-.918 3.275-7.667 9.792-18.099 17.057-29.943 20.854-.44.157-.902.243-1.37.255z"/><path d="m331.411 472.934c-5.729.004-11.389-1.25-16.581-3.672-5.192-2.421-9.79-5.952-13.469-10.344-.406-.444-.718-.965-.917-1.533-.198-.568-.28-1.17-.24-1.77.041-.6.203-1.186.476-1.722s.653-1.011 1.115-1.396.997-.673 1.573-.845c.577-.172 1.182-.226 1.78-.158.597.068 1.175.257 1.698.555.522.298.979.698 1.343 1.178 3.919 4.709 9.182 8.11 15.086 9.747s12.167 1.432 17.952-.587c5.784-2.02 10.814-5.757 14.417-10.713 3.602-4.956 5.606-10.893 5.742-17.019.028-1.161.509-2.266 1.34-3.077.831-.812 1.947-1.266 3.109-1.265h.106c1.178.027 2.297.522 3.112 1.374.814.852 1.257 1.992 1.231 3.17-.208 7.929-2.817 15.608-7.483 22.022s-11.169 11.261-18.648 13.9c-4.096 1.429-8.404 2.158-12.742 2.155z"/><path d="m286.432 467.232c-4.487-.002-8.924-.95-13.021-2.78-4.096-1.831-7.762-4.503-10.758-7.844-2.995-3.341-5.254-7.275-6.628-11.547-1.375-4.271-1.834-8.784-1.349-13.245s1.904-8.77 4.164-12.646c2.261-3.876 5.312-7.233 8.956-9.852 3.643-2.618 7.798-4.441 12.192-5.348 4.395-.907 8.931-.879 13.314.084.589.105 1.152.328 1.653.655.502.328.932.753 1.265 1.251s.562 1.058.673 1.646c.112.589.103 1.194-.025 1.779s-.373 1.138-.72 1.626-.789.902-1.299 1.215c-.511.313-1.079.52-1.672.608-.592.088-1.196.056-1.776-.095-3.851-.842-7.854-.684-11.626.459-3.773 1.143-7.191 3.233-9.926 6.071-2.736 2.838-4.7 6.33-5.704 10.142s-1.015 7.818-.032 11.636c.983 3.817 2.928 7.32 5.648 10.173 2.721 2.853 6.126 4.962 9.893 6.125 3.766 1.164 7.768 1.344 11.624.522 3.855-.821 7.436-2.616 10.402-5.214.892-.736 2.036-1.095 3.189-1.001s2.224.632 2.986 1.502c.763.87 1.156 2.003 1.097 3.158-.058 1.156-.565 2.242-1.411 3.031-5.847 5.103-13.349 7.906-21.109 7.889z"/><path d="m259.164 357.386c-.235-.002-.469-.02-.701-.053-1.164-.185-2.207-.825-2.9-1.778-.693-.954-.979-2.144-.795-3.308 1.21-7.672 4.046-14.996 8.317-21.482 4.272-6.487 9.88-11.985 16.45-16.128 6.569-4.142 13.948-6.833 21.642-7.891 7.695-1.059 15.526-.461 22.97 1.754.603.125 1.174.375 1.676.732.502.358.924.816 1.24 1.345s.518 1.118.594 1.73c.076.611.025 1.232-.152 1.823-.176.59-.473 1.138-.872 1.607-.4.47-.892.851-1.446 1.121-.554.269-1.159.42-1.775.444-.615.024-1.229-.081-1.803-.307-6.229-1.846-12.78-2.341-19.215-1.452s-12.607 3.141-18.103 6.605c-5.495 3.464-10.189 8.062-13.766 13.485s-5.955 11.547-6.976 17.963c-.155 1.052-.684 2.014-1.488 2.71-.805.696-1.833 1.079-2.897 1.08z"/><path d="m356.247 244.748c-.62.001-1.233-.129-1.8-.379-.567-.251-1.075-.617-1.492-1.075-4.974-5.452-11.011-9.83-17.738-12.865-6.728-3.034-14.004-4.662-21.384-4.782-7.379-.12-14.705 1.269-21.528 4.083-6.823 2.813-12.998 6.992-18.148 12.279-.4.446-.886.807-1.43 1.061-.543.254-1.132.396-1.731.416-.6.02-1.197-.081-1.756-.297-.56-.216-1.069-.543-1.499-.961-.43-.419-.771-.919-1.002-1.473-.231-.553-.348-1.147-.344-1.747s.13-1.192.369-1.742.587-1.046 1.022-1.458c5.992-6.156 13.18-11.021 21.121-14.297s16.468-4.894 25.057-4.753c8.589.14 17.059 2.035 24.889 5.568 7.83 3.534 14.855 8.631 20.643 14.979.577.638.956 1.43 1.092 2.279.137.849.024 1.72-.324 2.506-.349.787-.918 1.455-1.638 1.925s-1.562.721-2.422.723z"/><path d="m259.175 275.934c-1.143-.004-2.241-.447-3.067-1.238-.826-.79-1.317-1.867-1.372-3.009-.328-6.53.647-13.059 2.867-19.208s5.642-11.794 10.066-16.608c.805-.846 1.911-1.342 3.079-1.381 1.167-.038 2.303.384 3.162 1.176s1.371 1.89 1.428 3.057c.056 1.167-.349 2.309-1.128 3.18-3.626 3.938-6.432 8.558-8.255 13.591s-2.626 10.379-2.363 15.725c.031.587-.054 1.174-.251 1.727s-.502 1.062-.897 1.496c-.395.435-.872.787-1.404 1.036-.532.248-1.108.389-1.695.413z"/><path d="m357.489 153.793c-1.123.001-2.204-.424-3.026-1.189-4.027-3.739-6.988-8.479-8.582-13.737-1.593-5.258-1.762-10.845-.489-16.19s3.943-10.256 7.736-14.23c3.793-3.975 8.574-6.871 13.853-8.393 1.08-.188 2.191.029 3.12.609s1.612 1.483 1.917 2.535.212 2.18-.263 3.167c-.475.988-1.298 1.765-2.31 2.184-3.774 1.086-7.19 3.157-9.9 5.999-2.709 2.843-4.614 6.355-5.519 10.176-.904 3.821-.776 7.814.372 11.57 1.147 3.755 3.273 7.138 6.159 9.801.657.606 1.115 1.397 1.315 2.269.199.871.131 1.782-.196 2.614s-.898 1.546-1.637 2.048c-.74.503-1.614.77-2.508.767z"/><path d="m314.283 225.625h-.446c-1.18-.008-2.308-.485-3.136-1.325-.829-.841-1.289-1.976-1.281-3.156s.485-2.308 1.326-3.136c.84-.829 1.975-1.289 3.155-1.281h.372c3.922.011 7.776-1.029 11.16-3.012 3.384-1.984 6.175-4.838 8.082-8.266s2.86-7.304 2.761-11.225c-.1-3.922-1.248-7.745-3.326-11.072-.309-.495-.517-1.046-.613-1.621-.096-.576-.078-1.164.054-1.733.132-.568.374-1.105.713-1.58s.769-.878 1.264-1.187 1.046-.517 1.621-.613c.576-.096 1.164-.078 1.733.054.568.132 1.105.374 1.58.713s.878.768 1.187 1.264c2.932 4.665 4.558 10.031 4.709 15.539s-1.178 10.955-3.85 15.774c-2.671 4.819-6.587 8.833-11.338 11.623s-10.164 4.255-15.674 4.24z"/><path d="m258.93 439.837c-.585-.001-1.163-.118-1.703-.344-.539-.225-1.029-.555-1.44-.971-.411-.415-.737-.908-.957-1.449-.221-.542-.332-1.121-.328-1.706l.372-82.313c.008-1.175.48-2.299 1.313-3.129.833-.829 1.96-1.296 3.136-1.298.584.002 1.162.12 1.701.346.538.227 1.027.557 1.438.972.412.415.737.907.958 1.448s.333 1.12.331 1.704l-.383 82.312c-.003 1.176-.471 2.302-1.303 3.132-.833.83-1.96 1.296-3.135 1.296z"/><path d="m259.302 275.966c-1.18-.003-2.31-.472-3.143-1.306-.834-.834-1.304-1.964-1.306-3.143v-192.0731c0-1.1799.468-2.3116 1.303-3.1459.834-.8344 1.966-1.3031 3.146-1.3031s2.311.4687 3.146 1.3031c.834.8343 1.303 1.966 1.303 3.1459v192.0521c.002.586-.111 1.167-.333 1.709s-.55 1.035-.963 1.45c-.413.416-.905.745-1.446.97s-1.121.341-1.707.341z"/><path d="m259.207 83.893c-5.914 0-11.695-1.7536-16.612-5.0392-4.918-3.2855-8.75-7.9554-11.013-13.4191s-2.856-11.4758-1.702-17.276 4.002-11.128 8.183-15.3097c4.182-4.1817 9.51-7.0295 15.31-8.1833 5.8-1.1537 11.812-.5616 17.276 1.7016 5.464 2.2631 10.134 6.0956 13.419 11.0128 3.286 4.9171 5.04 10.6982 5.04 16.612-.012 7.9268-3.166 15.5257-8.771 21.1307-5.605 5.6051-13.204 8.759-21.13 8.7702zm0-50.9037c-4.154.0021-8.214 1.2356-11.666 3.5447-3.453 2.3091-6.143 5.5901-7.731 9.428-1.588 3.838-2.002 8.0606-1.191 12.1341.812 4.0734 2.813 7.8148 5.751 10.751 2.937 2.9363 6.68 4.9355 10.754 5.7451 4.074.8095 8.296.393 12.133-1.197s7.117-4.282 9.424-7.7356c2.308-3.4537 3.539-7.514 3.539-11.6675-.006-5.5704-2.222-10.9109-6.162-14.8488-3.939-3.9379-9.281-6.1512-14.851-6.154z"/><path d="m169.228 423.187c-1.179-.003-2.309-.472-3.143-1.306s-1.303-1.964-1.306-3.143v-59.037c.001-.593.12-1.18.349-1.727.23-.547.566-1.043.989-1.459l90.074-88.131c.418-.408.913-.731 1.456-.948s1.123-.326 1.708-.319c.584.007 1.162.129 1.7.359.537.23 1.024.564 1.433.982.408.419.73.913.948 1.456.217.543.326 1.123.319 1.708s-.129 1.162-.359 1.7c-.231.538-.564 1.025-.983 1.433l-88.736 86.815v57.168c-.003 1.179-.473 2.309-1.306 3.143-.834.834-1.964 1.303-3.143 1.306z"/><path d="m169.132 474.091c-5.914 0-11.695-1.753-16.612-5.039-4.917-3.285-8.75-7.955-11.013-13.419s-2.855-11.476-1.701-17.276c1.153-5.8 4.001-11.128 8.183-15.31 4.181-4.182 9.509-7.029 15.31-8.183 5.8-1.154 11.812-.562 17.275 1.702 5.464 2.263 10.134 6.095 13.42 11.012 3.285 4.917 5.039 10.699 5.039 16.612-.011 7.927-3.165 15.526-8.77 21.131s-13.204 8.759-21.131 8.77zm0-50.904c-4.154 0-8.215 1.232-11.669 3.54s-6.146 5.588-7.735 9.426c-1.59 3.838-2.006 8.061-1.195 12.135.81 4.074 2.81 7.816 5.748 10.754 2.937 2.937 6.679 4.937 10.753 5.748 4.075.81 8.298.394 12.135-1.196 3.838-1.589 7.118-4.281 9.426-7.735s3.54-7.515 3.54-11.669c-.006-5.568-2.221-10.907-6.158-14.845-3.938-3.937-9.277-6.152-14.845-6.158z"/><path d="m169.228 364.14h-54.684c-.602.029-1.204-.064-1.768-.274-.565-.21-1.081-.533-1.518-.948-.436-.416-.783-.916-1.021-1.469-.237-.554-.36-1.151-.36-1.753 0-.603.123-1.199.36-1.753.238-.554.585-1.053 1.021-1.469.437-.416.953-.738 1.518-.948.564-.21 1.166-.303 1.768-.274h54.684c.601-.029 1.203.064 1.768.274.564.21 1.081.532 1.517.948s.784.915 1.021 1.469c.238.554.36 1.15.36 1.753 0 .602-.122 1.199-.36 1.753-.237.553-.585 1.053-1.021 1.469-.436.415-.953.738-1.517.948-.565.21-1.167.303-1.768.274z"/><path d="m88.9009 391.588c-5.9138 0-11.6949-1.754-16.612-5.039-4.9172-3.286-8.7497-7.956-11.0128-13.42-2.2631-5.463-2.8553-11.475-1.7015-17.276 1.1537-5.8 4.0015-11.128 8.1832-15.309 4.1817-4.182 9.5095-7.03 15.3097-8.184 5.8003-1.153 11.8123-.561 17.2765 1.702 5.463 2.263 10.133 6.096 13.419 11.013 3.285 4.917 5.039 10.698 5.039 16.612-.011 7.927-3.165 15.525-8.77 21.131-5.605 5.605-13.2043 8.758-21.1311 8.77zm0-50.904c-4.1539 0-8.2146 1.232-11.6685 3.54-3.4539 2.307-6.1459 5.588-7.7356 9.425-1.5896 3.838-2.0056 8.061-1.1952 12.135s2.8108 7.817 5.7481 10.754 6.6796 4.938 10.7538 5.748c4.0741.81 8.2971.395 12.1349-1.195 3.8376-1.59 7.1176-4.282 9.4256-7.736s3.54-7.514 3.54-11.668c-.006-5.569-2.22-10.908-6.158-14.845-3.9376-3.938-9.2765-6.152-14.8451-6.158z"/><path d="m259.302 180.02h-90.829c-1.18 0-2.311-.469-3.145-1.303-.835-.835-1.304-1.966-1.304-3.146s.469-2.312 1.304-3.146c.834-.835 1.965-1.303 3.145-1.303h90.829c1.18 0 2.311.468 3.146 1.303.834.834 1.303 1.966 1.303 3.146s-.469 2.311-1.303 3.146c-.835.834-1.966 1.303-3.146 1.303z"/><path d="m143.022 207.648c-5.914 0-11.695-1.753-16.612-5.039-4.917-3.285-8.75-7.955-11.013-13.419s-2.855-11.476-1.701-17.276c1.153-5.8 4.001-11.128 8.183-15.31 4.182-4.181 9.509-7.029 15.31-8.183 5.8-1.154 11.812-.562 17.276 1.702 5.463 2.263 10.133 6.095 13.419 11.012 3.285 4.917 5.039 10.699 5.039 16.612-.008 7.928-3.161 15.529-8.767 21.134-5.606 5.606-13.206 8.759-21.134 8.767zm0-50.903c-4.154 0-8.215 1.231-11.669 3.539-3.453 2.308-6.145 5.588-7.735 9.426s-2.006 8.061-1.195 12.135c.81 4.074 2.81 7.816 5.748 10.754 2.937 2.937 6.679 4.937 10.754 5.748 4.074.81 8.297.394 12.134-1.196 3.838-1.589 7.118-4.281 9.426-7.735s3.54-7.515 3.54-11.669c-.006-5.568-2.22-10.907-6.158-14.845-3.938-3.937-9.276-6.152-14.845-6.157z"/></g></svg>