<svg fill="none" height="550" viewBox="0 0 468 550" width="468" xmlns="http://www.w3.org/2000/svg"><g fill="#e2e3e7"><path d="m377.466 104.087h-.686c-.71-.083-1.396-.306-2.019-.655-.623-.35-1.171-.819-1.613-1.38-.441-.562-.767-1.206-.959-1.894-.192-.6878-.247-1.4071-.16-2.1162.855-6.7709-.041-13.6478-2.602-19.9738-2.56-6.3259-6.701-11.8895-12.025-16.1592-5.324-4.2696-11.654-7.1026-18.385-8.2283-6.731-1.1256-13.638-.5064-20.062 1.7986-1.353.4841-2.842.411-4.141-.2032s-2.3-1.7192-2.784-3.0718c-.484-1.3527-.411-2.8423.203-4.1411s1.719-2.3004 3.072-2.7844c8.165-2.9386 16.947-3.7342 25.507-2.3107 8.56 1.4234 16.612 5.0183 23.387 10.4411 6.774 5.4228 12.045 12.4923 15.308 20.533 3.264 8.0407 4.41 16.784 3.331 25.3942-.164 1.3098-.8 2.5158-1.789 3.3898-.989.875-2.263 1.359-3.583 1.361z"/><path d="m421.478 127.077c-.953.001-1.89-.25-2.715-.727-.825-.478-1.51-1.164-1.984-1.991-3.885-6.681-9.588-12.12-16.445-15.684-6.857-3.563-14.586-5.105-22.286-4.446-.726.096-1.464.044-2.169-.153-.706-.197-1.364-.535-1.935-.993s-1.044-1.027-1.389-1.673-.556-1.355-.62-2.0848c-.064-.7295.02-1.4645.248-2.1605s.595-1.3387 1.078-1.8892c.483-.5506 1.072-.9976 1.732-1.3142.661-.3166 1.379-.4961 2.11-.5278 9.755-.842 19.548 1.1087 28.235 5.6243 8.687 4.5152 15.911 11.4092 20.826 19.8772.473.824.722 1.758.721 2.709s-.25 1.884-.725 2.708c-.474.824-1.156 1.509-1.977 1.987-.822.479-1.754.733-2.705.738z"/><path d="m438.048 215.49c-1.099-.001-2.172-.336-3.076-.961s-1.598-1.509-1.988-2.537c-.39-1.027-.459-2.149-.197-3.216.261-1.068.841-2.031 1.662-2.761 5.42-4.806 9.151-11.227 10.643-18.315 1.491-7.088.665-14.468-2.358-21.051-.556-1.303-.58-2.773-.066-4.094.514-1.32 1.524-2.388 2.815-2.973 1.29-.585 2.759-.642 4.091-.158 1.332.483 2.422 1.469 3.037 2.747 3.975 8.692 5.05 18.433 3.064 27.783s-6.927 17.813-14.093 24.138c-.969.881-2.225 1.378-3.534 1.398z"/><path d="m447.73 169.821c-.928.004-1.841-.233-2.651-.687-.809-.453-1.488-1.109-1.97-1.902l-26.304-42.718c-.408-.606-.689-1.288-.827-2.006s-.129-1.456.026-2.17c.154-.714.452-1.39.874-1.986.422-.597.961-1.102 1.583-1.485s1.316-.637 2.038-.745c.723-.109 1.46-.07 2.168.114.707.183 1.37.508 1.949.954s1.061 1.004 1.419 1.641l26.304 42.718c.507.821.787 1.762.809 2.726.021.964-.215 1.917-.685 2.759s-1.157 1.544-1.989 2.031c-.832.488-1.779.745-2.744.743z"/><path d="m450.396 303.049c-.998-.002-1.976-.279-2.826-.801s-1.54-1.268-1.993-2.156c-.454-.889-.654-1.885-.578-2.88.076-.994.425-1.949 1.008-2.758 8.91-12.239 12.696-27.47 10.554-42.457-2.142-14.986-10.042-28.547-22.023-37.801-1.115-.891-1.835-2.185-2.002-3.602-.168-1.418.23-2.844 1.107-3.97.878-1.126 2.163-1.861 3.579-2.045 1.415-.185 2.846.197 3.983 1.06 14.202 10.975 23.566 27.055 26.101 44.823 2.536 17.769-1.956 35.826-12.522 50.335-.5.697-1.159 1.265-1.922 1.657-.763.391-1.609.596-2.466.595z"/><path d="m347.084 445.3c-5.822-.004-11.614-.832-17.204-2.459-.684-.199-1.322-.531-1.878-.976-.556-.446-1.019-.997-1.362-1.621-.344-.625-.56-1.311-.639-2.019-.078-.708-.015-1.425.183-2.109.199-.684.531-1.323.977-1.879.445-.556.996-1.019 1.62-1.362.625-.343 1.311-.56 2.019-.638s1.425-.016 2.109.183c7.148 2.086 14.668 2.565 22.022 1.403s14.361-3.936 20.517-8.124 11.31-9.686 15.091-16.099c3.782-6.414 6.099-13.584 6.784-20.998.172-1.401.884-2.679 1.983-3.563 1.1-.884 2.5-1.306 3.905-1.174 1.405.131 2.703.805 3.62 1.878.916 1.073 1.378 2.46 1.288 3.869-1.43 15.206-8.475 29.335-19.76 39.627-11.286 10.292-26.001 16.009-41.275 16.035z"/><path d="m414.539 458.116c-8.619.022-17.12-2.005-24.802-5.914-7.682-3.91-14.324-9.59-19.379-16.572-.415-.578-.713-1.233-.875-1.927-.163-.694-.187-1.413-.072-2.116.116-.704.369-1.377.744-1.983.376-.605.867-1.131 1.446-1.546.579-.416 1.234-.714 1.928-.876s1.413-.187 2.116-.071c1.42.233 2.689 1.02 3.529 2.189 6.676 9.211 16.692 15.444 27.905 17.365 11.213 1.92 22.733-.623 32.094-7.086 1.181-.764 2.612-1.04 3.992-.769 1.379.27 2.6 1.066 3.404 2.22.805 1.153 1.13 2.574.906 3.962-.223 1.389-.976 2.636-2.101 3.48-9.049 6.294-19.812 9.661-30.835 9.644z"/><path d="m408.34 483.41c-1.099-.002-2.172-.337-3.076-.962-.904-.624-1.598-1.509-1.988-2.537-.39-1.027-.459-2.149-.197-3.216.261-1.068.841-2.03 1.662-2.761 1.223-1.09 2.185-2.442 2.812-3.955s.905-3.149.812-4.784c-.094-1.636-.556-3.229-1.351-4.661-.796-1.432-1.905-2.666-3.244-3.61-.616-.393-1.147-.908-1.559-1.512-.413-.604-.699-1.285-.842-2.003-.142-.717-.138-1.456.013-2.172.15-.716.444-1.394.863-1.993.42-.6.956-1.108 1.577-1.495.621-.386 1.314-.643 2.037-.756.723-.112 1.461-.076 2.17.104.708.181 1.373.503 1.955.947 2.686 1.878 4.912 4.341 6.509 7.203 1.597 2.863 2.524 6.05 2.711 9.323.187 3.272-.371 6.544-1.632 9.57s-3.191 5.726-5.647 7.898c-.985.883-2.262 1.372-3.585 1.372z"/><path d="m374.474 507.164c-1.293 0-2.544-.462-3.527-1.303-.983-.84-1.633-2.005-1.833-3.283-.2-1.277.063-2.585.742-3.685.679-1.101 1.729-1.923 2.961-2.318 12.385-3.989 23.291-11.595 31.314-21.838.887-1.13 2.187-1.86 3.613-2.031 1.426-.172 2.862.231 3.992 1.118 1.129.888 1.86 2.188 2.031 3.614s-.231 2.862-1.119 3.991c-9.348 11.939-22.065 20.796-36.504 25.424-.537.192-1.1.296-1.67.311z"/><path d="m332.613 548.147c-6.984.004-13.884-1.524-20.214-4.476s-11.935-7.257-16.42-12.611c-.495-.541-.875-1.177-1.118-1.869-.242-.692-.341-1.426-.292-2.158s.247-1.446.58-2.099.795-1.232 1.359-1.702c.563-.47 1.216-.82 1.918-1.03.703-.21 1.441-.276 2.169-.193.729.083 1.433.313 2.071.677.637.363 1.194.851 1.637 1.435 4.777 5.742 11.194 9.888 18.392 11.883 7.198 1.996 14.833 1.746 21.885-.716 7.052-2.461 13.184-7.018 17.576-13.059 4.392-6.042 6.834-13.281 7-20.748.034-1.416.621-2.763 1.634-3.752 1.014-.989 2.374-1.543 3.79-1.542h.13c1.436.033 2.8.636 3.793 1.675.993 1.038 1.533 2.429 1.501 3.865-.253 9.666-3.435 19.028-9.123 26.847s-13.616 13.728-22.734 16.945c-4.994 1.743-10.245 2.631-15.534 2.628z"/><path d="m277.777 541.196c-5.471-.003-10.879-1.158-15.874-3.39-4.994-2.231-9.463-5.49-13.115-9.562-3.652-4.073-6.405-8.869-8.081-14.077-1.676-5.207-2.236-10.709-1.645-16.148.592-5.438 2.322-10.691 5.077-15.416 2.756-4.726 6.476-8.818 10.918-12.011 4.442-3.192 9.507-5.414 14.864-6.52 5.358-1.106 10.888-1.071 16.231.102.719.128 1.405.4 2.016.799s1.136.918 1.542 1.525c.405.607.685 1.289.821 2.007.135.717.125 1.455-.031 2.168s-.455 1.388-.878 1.983-.962 1.099-1.584 1.481c-.622.381-1.315.634-2.038.741-.722.108-1.458.069-2.165-.115-4.695-1.027-9.575-.835-14.174.559-4.6 1.393-8.766 3.941-12.101 7.401-3.336 3.46-5.729 7.717-6.953 12.365-1.224 4.647-1.238 9.531-.039 14.185 1.198 4.654 3.569 8.923 6.885 12.402 3.317 3.478 7.469 6.049 12.061 7.468 4.591 1.418 9.47 1.637 14.171.636 4.7-1.001 9.066-3.19 12.681-6.357 1.088-.897 2.483-1.334 3.888-1.22 1.406.114 2.711.771 3.641 1.831.929 1.061 1.409 2.442 1.337 3.85-.071 1.409-.689 2.734-1.721 3.695-7.128 6.221-16.273 9.639-25.734 9.618z"/><path d="m244.537 407.281c-.286-.003-.572-.024-.855-.065-1.419-.226-2.69-1.005-3.535-2.168-.844-1.163-1.193-2.613-.97-4.032 1.476-9.353 4.933-18.282 10.141-26.19 5.207-7.908 12.044-14.611 20.053-19.661 8.01-5.05 17.005-8.33 26.385-9.621 9.38-1.29 18.928-.561 28.003 2.139.736.153 1.432.457 2.044.893s1.126.994 1.511 1.639.632 1.363.724 2.109c.093.746.03 1.502-.185 2.222s-.577 1.387-1.064 1.96c-.486.572-1.087 1.038-1.762 1.366-.676.328-1.413.513-2.164.542-.75.028-1.499-.099-2.198-.375-7.593-2.25-15.58-2.853-23.425-1.77-7.846 1.084-15.37 3.829-22.07 8.052-6.7 4.224-12.421 9.829-16.782 16.44s-7.26 14.077-8.505 21.899c-.189 1.283-.833 2.456-1.815 3.304-.981.848-2.234 1.316-3.531 1.317z"/><path d="m362.889 269.962c-.755 0-1.503-.157-2.194-.463-.691-.305-1.31-.751-1.819-1.31-6.064-6.647-13.423-11.984-21.624-15.683-8.202-3.7-17.073-5.684-26.07-5.831-8.996-.146-17.927 1.547-26.245 4.978-8.318 3.43-15.847 8.524-22.124 14.969-.488.545-1.081.985-1.744 1.294-.662.31-1.38.482-2.111.507-.73.025-1.458-.098-2.14-.362-.682-.263-1.304-.662-1.828-1.172-.523-.51-.939-1.12-1.221-1.795-.282-.674-.424-1.399-.419-2.13s.158-1.453.449-2.124c.292-.67.716-1.275 1.247-1.777 7.305-7.505 16.067-13.436 25.748-17.43s20.077-5.966 30.548-5.795 20.797 2.481 30.343 6.789c9.545 4.308 18.109 10.522 25.165 18.261.704.778 1.166 1.743 1.332 2.778.167 1.036.029 2.097-.396 3.056-.424.958-1.118 1.774-1.996 2.346-.878.573-1.904.879-2.953.881z"/><path d="m244.549 307.981c-1.393-.005-2.732-.545-3.739-1.509-1.007-.963-1.605-2.277-1.672-3.669-.4-7.96.788-15.92 3.495-23.416s6.879-14.379 12.272-20.247c.981-1.032 2.329-1.637 3.753-1.683 1.423-.047 2.808.468 3.855 1.433s1.672 2.304 1.741 3.726c.068 1.423-.426 2.815-1.375 3.877-4.421 4.801-7.842 10.433-10.064 16.569-2.223 6.136-3.202 12.653-2.881 19.172.039.715-.065 1.43-.306 2.105-.24.674-.612 1.294-1.093 1.824-.482.53-1.064.959-1.712 1.262-.649.303-1.351.475-2.067.504z"/><path d="m364.404 159.077c-1.369.001-2.687-.517-3.689-1.45-4.909-4.557-8.519-10.337-10.462-16.747s-2.149-13.221-.596-19.737c1.552-6.516 4.807-12.503 9.431-17.348 4.624-4.8461 10.453-8.3769 16.889-10.2319 1.316-.2293 2.67.0349 3.803.7422 1.133.7072 1.965 1.8076 2.337 3.0905.372 1.2828.258 2.6582-.321 3.8612-.579 1.204-1.582 2.152-2.816 2.662-4.601 1.324-8.766 3.849-12.069 7.314s-5.625 7.747-6.728 12.405c-1.103 4.659-.946 9.527.453 14.105 1.399 4.579 3.991 8.703 7.509 11.949.801.74 1.359 1.704 1.602 2.766.244 1.062.16 2.173-.238 3.188-.399 1.014-1.095 1.884-1.996 2.496-.902.613-1.967.938-3.057.935z"/><path d="m311.732 246.649h-.544c-1.439-.01-2.814-.592-3.824-1.616-1.01-1.025-1.571-2.408-1.561-3.847.01-1.438.592-2.814 1.616-3.824s2.408-1.571 3.847-1.561h.453c4.782.014 9.48-1.254 13.606-3.673 4.125-2.418 7.527-5.897 9.852-10.076s3.487-8.905 3.366-13.685c-.121-4.781-1.521-9.442-4.054-13.497-.377-.604-.631-1.276-.748-1.977-.117-.702-.094-1.42.066-2.113.161-.693.456-1.347.869-1.926.414-.579.937-1.071 1.541-1.447.603-.377 1.275-.631 1.977-.748.701-.117 1.419-.094 2.112.066.693.161 1.348.456 1.926.87.579.413 1.071.936 1.448 1.54 3.574 5.687 5.556 12.23 5.74 18.944.185 6.715-1.436 13.356-4.693 19.231s-8.03 10.768-13.822 14.17c-5.793 3.401-12.391 5.186-19.109 5.169z"/><path d="m244.248 507.798c-.713-.002-1.418-.144-2.076-.419-.657-.275-1.254-.678-1.756-1.184-.501-.506-.898-1.107-1.167-1.767s-.404-1.367-.399-2.08l.453-100.348c.01-1.433.586-2.804 1.601-3.815 1.016-1.011 2.39-1.58 3.823-1.583.712.003 1.417.147 2.073.423.657.275 1.253.678 1.754 1.184.502.506.898 1.106 1.168 1.765.269.659.406 1.365.403 2.078l-.466 100.348c-.004 1.433-.575 2.806-1.59 3.818-1.014 1.012-2.388 1.58-3.821 1.58z"/><path d="m244.703 308.02c-1.437-.003-2.815-.576-3.831-1.592-1.017-1.017-1.589-2.394-1.593-3.832v-234.159c0-1.4385.572-2.8181 1.589-3.8353s2.397-1.5886 3.835-1.5886c1.439 0 2.818.5714 3.835 1.5886 1.018 1.0172 1.589 2.3968 1.589 3.8353v234.133c.003.715-.134 1.423-.405 2.084s-.67 1.262-1.174 1.768c-.504.507-1.103.909-1.763 1.183s-1.367.415-2.082.415z"/><path d="m244.587 73.861c-7.209 0-14.257-2.1379-20.252-6.1434-5.994-4.0055-10.666-9.6986-13.425-16.3595-2.759-6.6608-3.481-13.9903-2.075-21.0614 1.407-7.0711 4.879-13.5664 9.977-18.6644 5.098-5.09797 11.593-8.56975 18.664-9.97629 7.071-1.406534 14.4-.684649 21.061 2.07437 6.661 2.75902 12.354 7.43122 16.36 13.42582 4.005 5.9947 6.143 13.0424 6.143 20.2521-.014 9.6636-3.858 18.9276-10.692 25.7608-6.833 6.8332-16.097 10.6782-25.761 10.6919zm0-62.0576c-5.063.0025-10.012 1.5064-14.221 4.3215-4.209 2.815-7.489 6.8149-9.425 11.4938s-2.441 9.8268-1.452 14.7928c.99 4.966 3.429 9.5271 7.011 13.1068 3.581 3.5796 8.143 6.0169 13.11 7.0038 4.966.987 10.114.4791 14.792-1.4592 4.678-1.9384 8.676-5.2202 11.489-9.4306 2.813-4.2105 4.314-9.1604 4.314-14.224-.007-6.791-2.708-13.3017-7.511-18.1024-4.803-4.8008-11.316-7.4991-18.107-7.5025z"/><path d="m134.895 487.5c-1.438-.003-2.815-.576-3.832-1.592-1.016-1.017-1.589-2.394-1.592-3.832v-71.973c.001-.723.146-1.439.426-2.105.28-.667.689-1.271 1.205-1.779l109.811-107.442c.51-.498 1.113-.891 1.775-1.156s1.369-.397 2.082-.388c.713.008 1.417.157 2.072.437.655.281 1.249.688 1.747 1.198s.891 1.113 1.156 1.775c.265.661.397 1.369.389 2.082-.009.713-.157 1.417-.438 2.072s-.687 1.249-1.197 1.747l-108.181 105.837v69.695c-.003 1.438-.575 2.815-1.592 3.832-1.016 1.016-2.394 1.589-3.831 1.592z"/><path d="m134.775 549.558c-7.21 0-14.257-2.138-20.252-6.143-5.995-4.006-10.667-9.699-13.426-16.36-2.7589-6.661-3.4808-13.99-2.0743-21.061 1.4063-7.071 4.8783-13.567 9.9763-18.665s11.593-8.569 18.664-9.976c7.072-1.406 14.401-.684 21.062 2.075s12.354 7.431 16.359 13.425c4.006 5.995 6.144 13.043 6.144 20.252-.014 9.664-3.859 18.928-10.692 25.761s-16.097 10.678-25.761 10.692zm0-62.058c-5.064 0-10.015 1.502-14.225 4.316-4.211 2.813-7.493 6.812-9.431 11.491s-2.445 9.827-1.457 14.794 3.427 9.529 7.008 13.11c3.58 3.581 8.143 6.019 13.11 7.007s10.115.481 14.794-1.457c4.678-1.938 8.677-5.22 11.491-9.43 2.813-4.211 4.315-9.161 4.315-14.226-.007-6.788-2.707-13.297-7.507-18.097-4.801-4.801-11.309-7.501-18.098-7.508z"/><path d="m134.892 415.514h-66.6661c-.7337.036-1.4671-.078-2.1556-.334s-1.3178-.649-1.8497-1.155c-.532-.507-.9555-1.116-1.2449-1.792-.2894-.675-.4386-1.402-.4386-2.136 0-.735.1492-1.462.4386-2.137s.7129-1.284 1.2449-1.791c.5319-.507 1.1612-.9 1.8497-1.156s1.4219-.37 2.1556-.334h66.6661c.734-.036 1.467.078 2.155.334.689.256 1.318.649 1.85 1.156s.956 1.116 1.245 1.791.439 1.402.439 2.137c0 .734-.15 1.461-.439 2.136-.289.676-.713 1.285-1.245 1.792-.532.506-1.161.899-1.85 1.155-.688.256-1.421.37-2.155.334z"/><path d="m36.9644 448.976c-7.2096 0-14.2574-2.137-20.252-6.143-5.9946-4.005-10.66685-9.699-13.42587-16.359-2.759017-6.661-3.480902-13.991-2.07437-21.062 1.40654-7.071 4.87832-13.566 9.97634-18.664 5.098-5.098 11.5932-8.57 18.6644-9.977 7.0711-1.406 14.4005-.684 21.0614 2.075 6.6608 2.759 12.354 7.431 16.3594 13.426 4.0055 5.994 6.1434 13.042 6.1434 20.252-.0137 9.663-3.8586 18.927-10.6919 25.761-6.8332 6.833-16.0971 10.678-25.7608 10.691zm0-62.057c-5.0641 0-10.0146 1.502-14.2253 4.315-4.2107 2.814-7.4925 6.812-9.4305 11.491s-2.4451 9.827-1.4571 14.794 3.4266 9.529 7.0075 13.11 8.1433 6.02 13.1102 7.008c4.9668.988 10.1151.481 14.7938-1.457s8.6776-5.22 11.4911-9.431 4.3152-9.161 4.3152-14.225c-.0068-6.789-2.7067-13.298-7.507-18.098-4.8004-4.8-11.3091-7.5-18.0979-7.507z"/><path d="m244.701 191.051h-110.73c-1.439 0-2.818-.572-3.836-1.589-1.017-1.017-1.588-2.397-1.588-3.835 0-1.439.571-2.818 1.588-3.836 1.018-1.017 2.397-1.588 3.836-1.588h110.73c1.439 0 2.818.571 3.835 1.588 1.017 1.018 1.589 2.397 1.589 3.836 0 1.438-.572 2.818-1.589 3.835s-2.396 1.589-3.835 1.589z"/><path d="m102.943 224.733c-7.2097 0-14.2575-2.138-20.2521-6.143-5.9946-4.006-10.6668-9.699-13.4259-16.36-2.759-6.661-3.4809-13.99-2.0743-21.061 1.4065-7.071 4.8783-13.567 9.9763-18.665s11.5932-8.57 18.6644-9.976c7.0716-1.407 14.4006-.685 21.0616 2.074s12.354 7.432 16.359 13.426c4.006 5.995 6.144 13.043 6.144 20.252-.011 9.665-3.854 18.931-10.688 25.765s-16.1 10.678-25.765 10.688zm0-62.058c-5.0642 0-10.0147 1.502-14.2254 4.316-4.2107 2.813-7.4925 6.812-9.4305 11.491-1.938 4.678-2.445 9.827-1.4571 14.793.988 4.967 3.4266 9.53 7.0075 13.111s8.1433 6.019 13.1102 7.007c4.9673.988 10.1153.481 14.7943-1.457 4.678-1.938 8.677-5.22 11.491-9.43 2.813-4.211 4.315-9.162 4.315-14.226-.007-6.789-2.707-13.297-7.507-18.098-4.801-4.8-11.309-7.5-18.098-7.507z"/></g></svg>