<svg width="468" height="550" fill="none" xmlns="http://www.w3.org/2000/svg"><path d="M377.466 104.087h-.686a5.419 5.419 0 01-4.591-3.929 5.418 5.418 0 01-.16-2.116 39.905 39.905 0 00-14.627-36.133 39.91 39.91 0 00-38.447-6.43 5.417 5.417 0 11-3.65-10.2 50.742 50.742 0 0167.533 54.057 5.424 5.424 0 01-5.372 4.751z" fill="#E2E3E7"/><path d="M421.478 127.077a5.414 5.414 0 01-4.699-2.718 40.777 40.777 0 00-38.731-20.13 5.42 5.42 0 01-6.113-4.904 5.419 5.419 0 013.058-5.364 5.43 5.43 0 012.11-.528 51.598 51.598 0 0149.061 25.502 5.43 5.43 0 01-.004 5.417 5.436 5.436 0 01-4.682 2.725zm16.57 88.413a5.418 5.418 0 01-5.064-3.498 5.42 5.42 0 011.465-5.977 33.777 33.777 0 008.285-39.366 5.423 5.423 0 019.877-4.478 44.538 44.538 0 01-11.029 51.921 5.375 5.375 0 01-3.534 1.398z" fill="#E2E3E7"/><path d="M447.73 169.821a5.387 5.387 0 01-4.621-2.589l-26.304-42.718a5.424 5.424 0 119.23-5.683l26.304 42.718c.507.821.787 1.762.809 2.726a5.42 5.42 0 01-2.674 4.79 5.4 5.4 0 01-2.744.743v.013zm2.666 133.228a5.42 5.42 0 01-5.397-5.837 5.427 5.427 0 011.008-2.758 58.162 58.162 0 00-11.469-80.258 5.425 5.425 0 016.667-8.557 68.958 68.958 0 0113.579 95.158 5.406 5.406 0 01-4.388 2.252zM347.084 445.3a61.713 61.713 0 01-17.204-2.459 5.436 5.436 0 01-3.24-2.597 5.435 5.435 0 01-.456-4.128 5.426 5.426 0 016.725-3.696 50.483 50.483 0 0064.414-43.818 5.42 5.42 0 015.888-4.737 5.424 5.424 0 014.908 5.747 61.41 61.41 0 01-61.035 55.662v.026z" fill="#E2E3E7"/><path d="M414.539 458.116a54.375 54.375 0 01-44.181-22.486 5.416 5.416 0 01-.947-4.043 5.424 5.424 0 016.234-4.476 5.427 5.427 0 013.529 2.189 43.545 43.545 0 0059.999 10.279 5.425 5.425 0 016.201 8.893 53.857 53.857 0 01-30.835 9.644z" fill="#E2E3E7"/><path d="M408.34 483.41a5.426 5.426 0 01-5.261-6.715 5.42 5.42 0 011.662-2.761 10.878 10.878 0 002.273-13.4 10.892 10.892 0 00-3.244-3.61 5.424 5.424 0 01.052-9.175 5.436 5.436 0 016.162.295 21.68 21.68 0 019.22 16.526 21.665 21.665 0 01-7.279 17.468 5.372 5.372 0 01-3.585 1.372z" fill="#E2E3E7"/><path d="M374.474 507.164a5.426 5.426 0 01-4.618-8.271 5.424 5.424 0 012.961-2.318 65.145 65.145 0 0031.314-21.838 5.416 5.416 0 118.517 6.692 75.713 75.713 0 01-36.504 25.424c-.537.192-1.1.296-1.67.311z" fill="#E2E3E7"/><path d="M332.613 548.147a47.762 47.762 0 01-36.634-17.087 5.437 5.437 0 01-1.118-1.869 5.437 5.437 0 01.288-4.257 5.42 5.42 0 015.446-2.925 5.427 5.427 0 013.708 2.112 36.668 36.668 0 0057.853-1.892 36.673 36.673 0 007-20.748 5.427 5.427 0 015.424-5.294h.13a5.42 5.42 0 015.294 5.54 47.763 47.763 0 01-31.857 43.792 47.056 47.056 0 01-15.534 2.628z" fill="#E2E3E7"/><path d="M277.777 541.196a38.96 38.96 0 01-28.989-12.952 38.966 38.966 0 0121.133-64.172 38.96 38.96 0 0116.231.102 5.428 5.428 0 014.379 4.331 5.44 5.44 0 01-.909 4.151 5.432 5.432 0 01-3.622 2.222 5.414 5.414 0 01-2.165-.115 28.137 28.137 0 00-26.275 7.96 28.136 28.136 0 00-6.992 26.55 28.145 28.145 0 0018.946 19.87 28.141 28.141 0 0026.852-5.721 5.423 5.423 0 018.866 4.461 5.422 5.422 0 01-1.721 3.695 39.003 39.003 0 01-25.734 9.618zm-33.24-133.915a6.437 6.437 0 01-.855-.065 5.423 5.423 0 01-4.505-6.2 66.448 66.448 0 0184.582-53.333 5.426 5.426 0 013.03 8.823 5.426 5.426 0 01-6.124 1.533 55.662 55.662 0 00-70.782 44.621 5.407 5.407 0 01-5.346 4.621zm118.352-137.319a5.42 5.42 0 01-4.013-1.773 66.007 66.007 0 00-47.694-21.514 66.016 66.016 0 00-48.369 19.947 5.406 5.406 0 01-1.744 1.294 5.413 5.413 0 01-4.251.145 5.415 5.415 0 01-3.468-5.097 5.43 5.43 0 011.696-3.901 76.81 76.81 0 0186.639-16.436 76.82 76.82 0 0125.165 18.261 5.418 5.418 0 01.936 5.834 5.419 5.419 0 01-4.949 3.227l.052.013z" fill="#E2E3E7"/><path d="M244.549 307.981a5.436 5.436 0 01-5.411-5.178 60.065 60.065 0 0115.767-43.663 5.425 5.425 0 017.974 7.353 49.179 49.179 0 00-12.945 35.741 5.421 5.421 0 01-3.111 5.191 5.402 5.402 0 01-2.067.504l-.207.052zm119.855-148.904a5.407 5.407 0 01-3.689-1.45 37.82 37.82 0 01-11.058-36.484 37.82 37.82 0 0126.32-27.58 5.423 5.423 0 013.003 10.356 26.984 26.984 0 00-18.797 19.719 26.988 26.988 0 007.962 26.054 5.407 5.407 0 011.364 5.954 5.415 5.415 0 01-5.053 3.431h-.052zm-52.672 87.572h-.544a5.424 5.424 0 11.078-10.848h.453a26.76 26.76 0 0022.77-40.931 5.419 5.419 0 01.187-6.016 5.41 5.41 0 013.518-2.195 5.423 5.423 0 015.486 2.476 37.537 37.537 0 011.047 38.175 37.545 37.545 0 01-32.931 19.339h-.064zm-67.484 261.149a5.42 5.42 0 01-3.832-1.603 5.42 5.42 0 01-1.566-3.847L239.303 402a5.439 5.439 0 015.424-5.398 5.406 5.406 0 012.073.423 5.425 5.425 0 013.325 5.027l-.466 100.348a5.412 5.412 0 01-5.411 5.398z" fill="#E2E3E7"/><path d="M244.703 308.02a5.435 5.435 0 01-5.424-5.424V68.437a5.425 5.425 0 0110.848 0V302.57a5.432 5.432 0 01-1.579 3.852 5.411 5.411 0 01-3.845 1.598z" fill="#E2E3E7"/><path d="M244.587 73.861a36.455 36.455 0 01-35.752-43.564 36.457 36.457 0 0128.641-28.641 36.452 36.452 0 0143.564 35.752 36.503 36.503 0 01-36.453 36.453zm0-62.058a25.603 25.603 0 00-25.098 30.608 25.606 25.606 0 0050.716-5.003 25.631 25.631 0 00-25.618-25.605zM134.895 487.5a5.438 5.438 0 01-5.424-5.424v-71.973a5.453 5.453 0 011.631-3.884l109.811-107.442a5.428 5.428 0 117.586 7.767L140.318 412.381v69.695a5.434 5.434 0 01-5.423 5.424z" fill="#E2E3E7"/><path d="M134.775 549.558a36.456 36.456 0 01-33.678-22.503 36.453 36.453 0 1170.131-13.95 36.506 36.506 0 01-36.453 36.453zm0-62.058a25.6 25.6 0 00-14.225 4.316 25.6 25.6 0 00-10.888 26.285 25.605 25.605 0 0050.718-4.996 25.632 25.632 0 00-25.605-25.605zm.117-71.986H68.226a5.423 5.423 0 110-10.835h66.666a5.418 5.418 0 014.005 1.49 5.424 5.424 0 01-4.005 9.345z" fill="#E2E3E7"/><path d="M36.964 448.976a36.448 36.448 0 01-33.677-22.502 36.455 36.455 0 0126.566-49.703 36.458 36.458 0 0137.42 15.501 36.45 36.45 0 016.144 20.252 36.507 36.507 0 01-36.453 36.452zm0-62.057a25.609 25.609 0 00-23.655 15.806 25.605 25.605 0 1049.26 9.799 25.63 25.63 0 00-25.605-25.605zm207.737-195.868h-110.73a5.427 5.427 0 01-5.424-5.424c0-1.439.571-2.818 1.588-3.836a5.426 5.426 0 013.836-1.588h110.73a5.422 5.422 0 013.835 9.259 5.423 5.423 0 01-3.835 1.589z" fill="#E2E3E7"/><path d="M102.943 224.733a36.456 36.456 0 01-33.678-22.503 36.451 36.451 0 0126.566-49.702 36.45 36.45 0 0137.421 15.5 36.452 36.452 0 016.144 20.252 36.495 36.495 0 01-36.453 36.453zm0-62.058a25.602 25.602 0 00-23.656 15.807 25.603 25.603 0 0018.66 34.911 25.606 25.606 0 0030.601-25.113 25.634 25.634 0 00-25.605-25.605z" fill="#E2E3E7"/></svg>