<svg width="303" height="274" fill="none" xmlns="http://www.w3.org/2000/svg"><g opacity=".18" fill="#10182E"><path d="M42.243 53.399v.402a3.175 3.175 0 01-3.545 2.74A23.28 23.28 0 0013.82 87.483a3.173 3.173 0 11-5.958 2.116A29.63 29.63 0 0139.47 50.224a3.175 3.175 0 012.773 3.175z"/><path d="M55.66 27.653a3.175 3.175 0 01-1.576 2.751 23.788 23.788 0 00-11.757 22.614 3.187 3.187 0 01-6.349.56A30.126 30.126 0 0150.91 24.923a3.175 3.175 0 014.751 2.73zm51.64-9.64a3.174 3.174 0 01-5.535 2.116 19.711 19.711 0 00-22.973-4.878 3.174 3.174 0 01-2.603-5.778 26.01 26.01 0 0130.317 6.445 3.17 3.17 0 01.794 2.095z"/><path d="M80.633 12.33a3.175 3.175 0 01-1.513 2.699L54.2 30.383a3.174 3.174 0 11-3.323-5.386L75.808 9.643a3.175 3.175 0 014.825 2.688zm77.797-1.555a3.1 3.1 0 01-.603 1.852 3.175 3.175 0 01-4.423.709 33.958 33.958 0 00-46.857 6.688 3.171 3.171 0 01-4.676.863 3.175 3.175 0 01-.287-4.747 40.275 40.275 0 0155.576-7.936 3.175 3.175 0 011.27 2.571zm83.068 60.337a35.808 35.808 0 01-1.428 10.032 3.177 3.177 0 01-3.871 1.97 3.173 3.173 0 01-2.214-3.737 29.504 29.504 0 00-3.938-24.833 29.51 29.51 0 00-21.649-12.785 3.18 3.18 0 01-2.159-1.136 3.181 3.181 0 01-.371-3.523 3.199 3.199 0 011.875-1.56c.4-.124.82-.169 1.237-.13a35.854 35.854 0 0132.518 35.65v.052z"/><path d="M248.991 31.716a31.685 31.685 0 01-13.132 25.788 3.18 3.18 0 01-2.379.576 3.17 3.17 0 01-2.594-2.426 3.159 3.159 0 01.416-2.413c.225-.354.519-.66.864-.9a25.398 25.398 0 006-35.037 3.164 3.164 0 01-.641-2.437 3.168 3.168 0 011.336-2.135 3.177 3.177 0 013.648.03c.352.252.65.573.873.944a31.448 31.448 0 015.609 18.01z"/><path d="M263.763 35.335a3.182 3.182 0 01-2.041 2.958 3.173 3.173 0 01-3.494-.841 6.344 6.344 0 00-7.829-1.326 6.35 6.35 0 00-2.107 1.897 3.173 3.173 0 01-4.557.992 3.173 3.173 0 01-.628-4.621 12.697 12.697 0 0119.851-1.143c.512.574.798 1.315.805 2.084z"/><path d="M277.636 55.102a3.178 3.178 0 01-4.816 2.669 3.176 3.176 0 01-1.364-1.695 38.097 38.097 0 00-12.698-18.285 3.176 3.176 0 01-1.31-3.44 3.168 3.168 0 011.574-2 3.172 3.172 0 013.651.466 44.271 44.271 0 0114.814 21.322c.101.311.151.636.149.963z"/><path d="M301.582 79.557a27.914 27.914 0 01-9.979 21.396 3.17 3.17 0 01-3.622.542 3.184 3.184 0 01-1.722-3.233 3.186 3.186 0 011.292-2.176 21.43 21.43 0 00-13.228-37.873 3.174 3.174 0 01-3.09-3.174v-.074a3.176 3.176 0 013.238-3.09 27.874 27.874 0 0125.566 18.592 27.503 27.503 0 011.545 9.09z"/><path d="M297.509 111.599a22.756 22.756 0 01-15.792 21.601 22.743 22.743 0 01-18.409-2.001 22.734 22.734 0 01-7.009-6.361 22.74 22.74 0 01-3.774-18.128 3.19 3.19 0 01.45-1.206 3.182 3.182 0 014.542-.886 3.174 3.174 0 011.199 3.447 16.428 16.428 0 0011.872 19.402 16.427 16.427 0 0015.525-4.001 16.428 16.428 0 001.015-22.724 3.177 3.177 0 01.426-4.328 3.176 3.176 0 014.346.159 22.776 22.776 0 015.609 15.026zm-78.212 19.396c.011.166.011.332 0 .498a3.173 3.173 0 01-3.619 2.635 38.797 38.797 0 01-32.396-33.042 38.798 38.798 0 011.254-16.354 3.18 3.18 0 011.476-2.09 3.177 3.177 0 014.489 1.332 3.173 3.173 0 01.098 2.556 32.481 32.481 0 0013.263 36.387 32.492 32.492 0 0012.8 4.957 3.173 3.173 0 012.635 3.121zm-80.189-69.131a3.18 3.18 0 01-1.058 2.339 38.531 38.531 0 00-9.652 43.168 38.524 38.524 0 008.742 12.915 3.176 3.176 0 01-2.214 5.273 3.177 3.177 0 01-2.199-.733 44.868 44.868 0 011.058-65.322 3.176 3.176 0 015.291 2.339l.032.021z"/><path d="M161.309 130.984a3.177 3.177 0 01-2.995 3.175 35.063 35.063 0 01-13.677-2.045 35.068 35.068 0 01-11.825-7.172 3.17 3.17 0 01-1.208-2.246 3.186 3.186 0 01.834-2.41 3.164 3.164 0 011.062-.754 3.16 3.16 0 012.55.005 3.18 3.18 0 011.058.76 28.738 28.738 0 0020.868 7.534 3.177 3.177 0 013.333 2.995v.158zM74.358 60.986a3.175 3.175 0 01-.846 2.116 22.096 22.096 0 01-37.418-8.91 3.174 3.174 0 116.085-1.756 15.757 15.757 0 0026.687 6.349 3.175 3.175 0 014.476-.095 3.173 3.173 0 011.016 2.296zm51.132 30.771v.307a3.176 3.176 0 01-5.42 2.245 3.175 3.175 0 01-.929-2.245V91.8a15.622 15.622 0 00-8.025-13.71 15.616 15.616 0 00-15.88.409 3.174 3.174 0 01-3.354-5.376 21.957 21.957 0 0133.587 18.634h.021zm152.516 39.407a3.175 3.175 0 01-3.174 3.175l-58.602-.265a3.175 3.175 0 110-6.349l58.602.275a3.172 3.172 0 013.174 3.164z"/><path d="M161.33 130.889a3.172 3.172 0 01-3.174 3.175H21.417a3.176 3.176 0 01-2.245-5.419 3.172 3.172 0 012.245-.93h136.749a3.175 3.175 0 013.164 3.174z"/><path d="M24.581 130.964a21.289 21.289 0 01-25.448 20.88 21.291 21.291 0 014.168-42.171 21.298 21.298 0 0121.28 21.291zm-36.221 0a14.96 14.96 0 009.236 13.823 14.962 14.962 0 10-9.236-13.823zm277.794 64.062a3.172 3.172 0 01-3.174 3.175h-42.031a3.177 3.177 0 01-2.265-.953l-62.782-64.126a3.17 3.17 0 01-.776-2.21 3.169 3.169 0 013.112-3.046 3.17 3.17 0 012.193.823l61.851 63.173h40.698a3.175 3.175 0 013.174 3.164z"/><path d="M302.386 195.089a21.289 21.289 0 01-36.349 15.051 21.286 21.286 0 01-4.609-23.205 21.291 21.291 0 0119.678-13.136 21.31 21.31 0 0121.28 21.29zm-36.232 0a14.948 14.948 0 009.23 13.814 14.949 14.949 0 0016.295-3.241 14.952 14.952 0 00-10.573-25.525 14.963 14.963 0 00-14.952 14.952zm-42.042-.063v38.93a3.176 3.176 0 01-5.419 2.245 3.172 3.172 0 01-.93-2.245v-38.93a3.172 3.172 0 013.174-3.175 3.176 3.176 0 013.175 3.175z"/><path d="M243.646 252.21a21.293 21.293 0 01-36.345 15.066 21.294 21.294 0 013.233-32.762 21.287 21.287 0 0111.832-3.584 21.304 21.304 0 0121.28 21.28zm-36.243 0a14.963 14.963 0 1014.963-14.952 14.975 14.975 0 00-14.963 14.952zM93.025 130.889v64.677a3.172 3.172 0 01-3.175 3.174 3.172 3.172 0 01-3.174-3.174v-64.677a3.172 3.172 0 013.174-3.174 3.172 3.172 0 013.175 3.174z"/><path d="M112.697 213.682a21.292 21.292 0 01-36.346 15.055 21.295 21.295 0 01-4.615-23.203 21.295 21.295 0 0119.67-13.143 21.324 21.324 0 0121.291 21.291zm-36.243 0a14.953 14.953 0 1014.952-14.952 14.97 14.97 0 00-14.952 14.952z"/></g></svg>